<svg clip-rule="evenodd" fill-rule="evenodd" stroke-linejoin="round" stroke-miterlimit="2" viewBox="0 0 185 185" xmlns="http://www.w3.org/2000/svg"><g transform="translate(-2868.09 -1705.02)"><path d="m168.086-215.483h183.299v183.299h-183.299z" fill="none" transform="matrix(1.00677 0 0 1.00655 2698.86 1921.91)"/><path d="m2972.51 1768.41c-4.52-2.56-8.92-3.7-10.92-4.04-2.19-.37-9.31-1.34-17.36 2.19-16.11 7.06-23.86 26.1-21.96 42.99 2.45 21.81 20.45 41.2 42.35 44.55 30.66 4.7 47.58-11.59 51.04-14.73 24.55-22.27 27.5-54.74 17.19-78.24-7.45-16.97-26.83-35.66-49.7-41.03-15.61-3.66-30.33-3.55-45.67 1-39.36 11.68-64.05 59.5-51.47 98.31 3.31 10.2 8.73 19.6 15.71 27.62 7.97 9.13 17.98 16.46 29.23 21.09 17.41 7.18 41.66 7.98 41.66 7.98s-24.54-3.7-39.24-12.2c-12.17-7.03-23.84-17.15-30.11-30.16-12.03-24.92-7.66-54.36 10.61-74.8 12.9-14.44 34.62-20.55 53.52-16.86 22.5 4.4 43.5 27.5 38.08 51.86-1.3 5.85-5.74 11.7-9.53 15.05-8.77 7.73-22.99 8.36-32.58 1.42-8.98-6.5-14.06-19.98-8.1-30.11 3.04-5.17 7.36-8.48 11.58-10.18 1.46-.59 3.04-1.21 5.67-1.71z" fill="#ec1f76"/></g></svg>