<?xml version="1.0" encoding="UTF-8" standalone="no"?>
<!DOCTYPE svg PUBLIC "-//W3C//DTD SVG 1.1//EN" "http://www.w3.org/Graphics/SVG/1.1/DTD/svg11.dtd">
<svg width="100%" height="100%" viewBox="0 0 185 184" version="1.1" xmlns="http://www.w3.org/2000/svg" xmlns:xlink="http://www.w3.org/1999/xlink" xml:space="preserve" xmlns:serif="http://www.serif.com/" style="fill-rule:evenodd;clip-rule:evenodd;stroke-linejoin:round;stroke-miterlimit:2;">
    <g transform="matrix(1,0,0,1,-2868.09,-1705.02)">
        <g transform="matrix(1.00931,0,0,1.00384,2698.43,1921.33)">
            <rect x="168.086" y="-215.483" width="183.299" height="183.299" style="fill:rgb(255,0,0);"/>
        </g>
        <path d="M2972.51,1768.41C2967.99,1765.85 2963.59,1764.71 2961.59,1764.37C2959.4,1764 2952.28,1763.03 2944.23,1766.56C2928.12,1773.62 2920.37,1792.66 2922.27,1809.55C2924.72,1831.36 2942.72,1850.75 2964.62,1854.1C2995.28,1858.8 3012.2,1842.51 3015.66,1839.37C3040.21,1817.1 3043.16,1784.63 3032.85,1761.13C3025.4,1744.16 3006.02,1725.47 2983.15,1720.1C2967.54,1716.44 2952.82,1716.55 2937.48,1721.1C2898.12,1732.78 2873.43,1780.6 2886.01,1819.41C2889.32,1829.61 2894.74,1839.01 2901.72,1847.03C2909.69,1856.16 2919.7,1863.49 2930.95,1868.12C2948.36,1875.3 2972.61,1876.1 2972.61,1876.1C2972.61,1876.1 2948.07,1872.4 2933.37,1863.9C2921.2,1856.87 2909.53,1846.75 2903.26,1833.74C2891.23,1808.82 2895.6,1779.38 2913.87,1758.94C2926.77,1744.5 2948.49,1738.39 2967.39,1742.08C2989.89,1746.48 3010.89,1769.58 3005.47,1793.94C3004.17,1799.79 2999.73,1805.64 2995.94,1808.99C2987.17,1816.72 2972.95,1817.35 2963.36,1810.41C2954.38,1803.91 2949.3,1790.43 2955.26,1780.3C2958.3,1775.13 2962.62,1771.82 2966.84,1770.12C2968.3,1769.53 2969.88,1768.91 2972.51,1768.41Z" style="fill:white;"/>
        <path d="M2972.51,1768.41C2967.99,1765.85 2963.59,1764.71 2961.59,1764.37C2959.4,1764 2952.28,1763.03 2944.23,1766.56C2928.12,1773.62 2920.37,1792.66 2922.27,1809.55C2924.72,1831.36 2942.72,1850.75 2964.62,1854.1C2995.28,1858.8 3012.2,1842.51 3015.66,1839.37C3040.21,1817.1 3043.16,1784.63 3032.85,1761.13C3025.4,1744.16 3006.02,1725.47 2983.15,1720.1C2967.54,1716.44 2952.82,1716.55 2937.48,1721.1C2898.12,1732.78 2873.43,1780.6 2886.01,1819.41C2889.32,1829.61 2894.74,1839.01 2901.72,1847.03C2909.69,1856.16 2919.7,1863.49 2930.95,1868.12C2948.36,1875.3 2972.61,1876.1 2972.61,1876.1C2972.61,1876.1 2948.07,1872.4 2933.37,1863.9C2921.2,1856.87 2909.53,1846.75 2903.26,1833.74C2891.23,1808.82 2895.6,1779.38 2913.87,1758.94C2926.77,1744.5 2948.49,1738.39 2967.39,1742.08C2989.89,1746.48 3010.89,1769.58 3005.47,1793.94C3004.17,1799.79 2999.73,1805.64 2995.94,1808.99C2987.17,1816.72 2972.95,1817.35 2963.36,1810.41C2954.38,1803.91 2949.3,1790.43 2955.26,1780.3C2958.3,1775.13 2962.62,1771.82 2966.84,1770.12C2968.3,1769.53 2969.88,1768.91 2972.51,1768.41ZM2971.94,1768.32C2969.61,1768.81 2968.14,1769.38 2966.77,1769.93C2962.51,1771.64 2958.15,1774.99 2955.09,1780.19C2949.08,1790.42 2954.19,1804.01 2963.24,1810.57C2972.91,1817.57 2987.24,1816.93 2996.07,1809.14C2999.89,1805.77 3004.36,1799.87 3005.67,1793.99C3011.1,1769.52 2990.03,1746.3 2967.42,1741.89C2948.46,1738.18 2926.66,1744.32 2913.72,1758.81C2895.4,1779.3 2891.02,1808.83 2903.08,1833.82C2909.37,1846.87 2921.07,1857.03 2933.26,1864.08C2944.63,1870.64 2961.86,1874.35 2969.14,1875.7C2961.83,1875.19 2944.41,1873.45 2931.02,1867.94C2919.8,1863.32 2909.82,1856.01 2901.87,1846.89C2894.9,1838.9 2889.5,1829.52 2886.2,1819.35C2873.66,1780.63 2898.28,1732.94 2937.53,1721.29C2952.84,1716.75 2967.53,1716.64 2983.1,1720.3C3005.91,1725.64 3025.24,1744.28 3032.66,1761.21C3042.94,1784.65 3040,1817.02 3015.53,1839.22C3012.07,1842.35 2995.21,1858.58 2964.65,1853.9C2942.84,1850.57 2924.91,1831.25 2922.47,1809.53C2920.58,1792.72 2928.28,1773.77 2944.31,1766.74C2952.31,1763.24 2959.38,1764.2 2961.56,1764.57C2963.48,1764.89 2967.61,1765.96 2971.94,1768.32Z"/>
    </g>
</svg>
