<?xml version="1.0" encoding="UTF-8" standalone="no"?>
<!DOCTYPE svg PUBLIC "-//W3C//DTD SVG 1.1//EN" "http://www.w3.org/Graphics/SVG/1.1/DTD/svg11.dtd">
<svg width="100%" height="100%" viewBox="0 0 185 185" version="1.1" xmlns="http://www.w3.org/2000/svg" xmlns:xlink="http://www.w3.org/1999/xlink" xml:space="preserve" xmlns:serif="http://www.serif.com/" style="fill-rule:evenodd;clip-rule:evenodd;stroke-linejoin:round;stroke-miterlimit:2;">
    <g id="icon-正方形-export" serif:id="icon 正方形 export" transform="matrix(1,0,0,1,-2868.09,-1705.02)">
        <g transform="matrix(1.00677,0,0,1.00655,2698.86,1921.91)">
            <rect x="168.086" y="-215.483" width="183.299" height="183.299" style="fill:rgb(236,31,118);fill-opacity:0;"/>
        </g>
        <path d="M2972.53,1768.86C2967.61,1765.38 2963.64,1764.65 2961.64,1764.31C2959.45,1763.94 2952.28,1763.03 2944.23,1766.56C2928.12,1773.62 2920.37,1792.66 2922.27,1809.55C2924.72,1831.36 2942.72,1850.75 2964.62,1854.1C2995.28,1858.8 3012.2,1842.51 3015.66,1839.37C3040.21,1817.1 3043.16,1784.63 3032.85,1761.13C3025.4,1744.16 3006.02,1725.47 2983.15,1720.1C2967.54,1716.44 2952.82,1716.55 2937.48,1721.1C2898.12,1732.78 2873.43,1780.6 2886.01,1819.41C2889.32,1829.61 2894.74,1839.01 2901.72,1847.03C2909.69,1856.16 2919.7,1863.49 2930.95,1868.12C2948.36,1875.3 2972.61,1876.1 2972.61,1876.1C2972.61,1876.1 2948.07,1872.4 2933.37,1863.9C2921.2,1856.87 2909.53,1846.75 2903.26,1833.74C2891.23,1808.82 2895.6,1779.38 2913.87,1758.94C2926.77,1744.5 2948.49,1738.39 2967.39,1742.08C2989.89,1746.48 3010.89,1769.58 3005.47,1793.94C3004.17,1799.79 2999.73,1805.64 2995.94,1808.99C2987.17,1816.72 2972.95,1817.35 2963.36,1810.41C2954.38,1803.91 2949.3,1790.43 2955.26,1780.3C2958.3,1775.13 2962.62,1771.82 2966.84,1770.12C2968.3,1769.53 2969.91,1769.14 2972.53,1768.86Z" style="fill:rgb(236,31,118);"/>
    </g>
</svg>
