<svg clip-rule="evenodd" fill-rule="evenodd" stroke-linejoin="round" stroke-miterlimit="1.41421" viewBox="0 0 102 30" xmlns="http://www.w3.org/2000/svg"><path d="m92.317 0h-83.455c-.341 0-.679 0-1.018.002-.285.001-.567.006-.854.009-.624.006-1.247.05-1.863.132-.615.084-1.21.242-1.766.47-.556.23-1.064.528-1.506.885-.443.355-.812.765-1.094 1.215-.282.449-.478.93-.581 1.427-.103.496-.159.998-.166 1.502-.009.23-.009.461-.014.69v17.338c.005.232.006.457.014.691.008.503.064 1.005.167 1.501.102.498.298.979.58 1.429.282.448.652.856 1.095 1.209.44.358.947.656 1.504.884.556.228 1.152.388 1.767.473.616.081 1.239.126 1.863.133.288.005.569.008.854.008.34.001.677.001 1.018.001h83.455c.335 0 .674 0 1.008-.001.283 0 .573-.003.857-.008.623-.006 1.244-.051 1.859-.133.616-.086 1.214-.245 1.773-.473.557-.228 1.064-.526 1.504-.884.442-.355.813-.763 1.098-1.21.281-.45.475-.932.576-1.429.103-.497.161-.998.172-1.502.004-.232.004-.457.004-.691.007-.273.007-.543.007-.82v-15.696c0-.275 0-.548-.007-.819 0-.23 0-.461-.004-.69-.011-.504-.069-1.006-.173-1.502-.101-.497-.295-.978-.575-1.428-.574-.902-1.484-1.636-2.602-2.1-.559-.227-1.157-.385-1.773-.47-.615-.082-1.236-.126-1.859-.132-.284-.004-.574-.008-.857-.01-.335-.001-.673-.001-1.008-.001z" fill="#a6a6a6" fill-rule="nonzero"/><path d="m7.849 29.344c-.284 0-.56-.003-.841-.008-.582-.006-1.163-.047-1.738-.123-.535-.074-1.054-.213-1.539-.411-.481-.196-.919-.453-1.299-.762-.384-.305-.705-.659-.948-1.047-.246-.391-.416-.811-.505-1.243-.096-.465-.147-.935-.155-1.407-.006-.157-.013-.684-.013-.684v-17.325s.008-.519.013-.672c.007-.47.059-.939.154-1.404.089-.433.259-.854.505-1.246.243-.388.561-.742.944-1.049.382-.309.822-.568 1.303-.767.484-.197 1.002-.335 1.536-.408.577-.076 1.16-.117 1.744-.123l.839-.009h85.471l.849.01c.579.005 1.156.046 1.727.121.54.075 1.063.213 1.553.411.965.401 1.75 1.036 2.245 1.816.242.389.41.806.498 1.236.096.468.15.941.161 1.415.003.213.003.441.003.668.008.281.008.549.008.819v15.697c0 .272 0 .538-.008.806 0 .244 0 .467-.004.697-.01.466-.064.931-.159 1.39-.086.436-.256.858-.501 1.253-.246.384-.564.735-.945 1.039-.38.31-.819.569-1.301.767-.488.199-1.01.338-1.55.412-.574.076-1.155.117-1.738.122-.271.006-.556.009-.833.009l-1.008.001-84.468-.001z" fill-rule="nonzero"/><path d="m27.967 22.23c-.594.216-1.29.39-2.082.522l.072.57c.75-.138 1.422-.318 2.01-.534zm-1.164-4.26c-.204.66-.438 1.266-.708 1.806-.072.108-.156.18-.246.222l.144.528c.312-.054.606-.108.894-.162-.276.492-.504.834-.69 1.038-.072.066-.155.12-.258.162l.151.516c.576-.078 1.175-.228 1.805-.444v-.51c-.372.12-.744.222-1.104.294.336-.432.744-1.11 1.224-2.028l-.528-.198c-.114.228-.222.45-.324.66-.216.036-.432.072-.648.096.276-.456.552-1.05.822-1.776zm1.146.66v.522h1.308v2.064h-.588v-1.512h-.54v2.034h1.128v1.098c0 .402.204.606.618.606h.744c.204-.012.36-.066.48-.162.102-.102.186-.438.246-1.014l-.522-.162c-.023.438-.072.69-.132.756-.072.048-.144.072-.216.072h-.45c-.144 0-.21-.066-.21-.198v-.996h1.116v-2.034h-.54v1.512h-.576v-2.064h1.344v-.522h-1.344v-.624h-.558v.624z" fill="#fff" fill-rule="nonzero"/><path d="m32.635 19.452v2.262h1.657l-.001.426h-2.388v.522h2.388v.882h.552v-.882h2.394v-.522h-2.394v-.426h1.674v-2.262zm3.348 1.776h-2.814v-.426h2.814zm-2.814-.888v-.402h2.814v.402zm-1.218-1.926v.51h1.326v.408h.564v-.408h1.464v.408h.564v-.408h1.326v-.51h-1.326v-.408h-.564v.408h-1.464v-.408h-.564v.408z" fill="#fff" fill-rule="nonzero"/><path d="m37.988 19.05-.001.546h1.848c-.432.996-1.122 1.818-2.07 2.454l.33.534c1.02-.78 1.752-1.776 2.184-2.988h.007v2.208h-1.188v.546h1.188v1.182h.575v-1.182h1.236l.001-.546h-1.236l-.001-2.208h.007c.401 1.074 1.103 2.046 2.106 2.91l.389-.492c-.972-.708-1.656-1.518-2.052-2.418h1.842v-.546h-2.292v-1.038h-.575v1.038z" fill="#fff" fill-rule="nonzero"/><path d="m45.14 17.934c-.3.924-.763 1.74-1.387 2.436l.186.606c.192-.204.378-.414.558-.63v3.198h.564v-4.02c.252-.42.45-.87.606-1.338l-.528-.252zm2.034.084v4.596h-.852v-3.504h-.564v4.392h.564v-.336h2.226v.336h.576v-4.398h-.576v3.51h-.804v-4.596z" fill="#fff" fill-rule="nonzero"/><path d="m49.897 20.628v.546h1.075c-.085.774-.337 1.428-.763 1.968l.438.396c.516-.624.816-1.416.912-2.364h2.268v1.536c0 .162-.066.246-.198.246-.204 0-.432-.012-.678-.03l.15.552h.702c.408 0 .612-.192.612-.564v-1.74h.834v-.546h-.834v-2.424h-3.408v2.424zm3.93 0h-2.238v-1.902h2.238zm-1.356-1.656-.462.288c.36.408.648.786.864 1.122l.45-.312c-.204-.312-.486-.678-.852-1.098z" fill="#fff" fill-rule="nonzero"/><path d="m16.527 21.568c-1.067.514-2.263.803-3.526.803-4.49 0-8.134-3.645-8.134-8.134 0-4.49 3.644-8.134 8.134-8.134 4.489 0 8.134 3.644 8.134 8.134 0 .405-.03.803-.087 1.192-.421-.174-.782-.299-1.047-.381-.411-.127-1.258-.335-2.08-.384-1.203-.073-2.194.148-3.006.678-.186.054.162-.482.498-.859.256-.289.388-.379.473-.473.364-.323.907-.88 1.154-1.516.733-2.022-.381-2.965-1.306-3.289-.45-.193-1.033-.221-1.519-.101-.698.171-1.175.629-1.47 1.378-.058.149-.512.89-1.469 1.628-.757.584-2.225 1.604-2.87 3.412-.122.342-.258 1.162-.045 1.56-.14-.263.166-1.562 1.356-2.757.444-.447.964-.891 1.627-1.289.374-.224.746-.375 1.04-.497.231-.096.413-.161.518-.204.17-.042.533-.13.657-.135.267-.011.485.069.543.181.081.157.016.332-.113.52.032-.046-.068.067-.068.067l.009.001c-.181.155-.629.563-1.004 1.084-.048.067-1.202 1.712-.587 3.526.439 1.298 1.693 1.882 1.672 1.831 0 0-.48-.996-.384-2.057.075-.825.613-1.525.701-1.537.026-.003-.177.361-.249.543-.405 1.037-.111 2.103.023 2.486.137.394.28.679.452.949.365.576.771.989 1.13 1.266.241.186.521.353.843.508zm-3.126-10.86c-.036-.074-.011-.175.023-.226.041-.062.072-.104.203-.135.228-.055.33.113.339.18.014.102-.013.143-.045.181-.041.049-.132.103-.271.103-.04.001-.196.006-.249-.103z" fill="#fefbfb"/><g fill-rule="nonzero"><path d="m25.859 6.371h1.166v8.347h-1.166z" fill="#fff"/><path d="m30.473 6.371h1.369c.899 0 1.633.189 2.202.567s.854.855.854 1.431c0 .704-.42 1.291-1.26 1.763 1.301.419 1.951 1.146 1.951 2.181 0 .721-.335 1.302-1.006 1.743s-1.569.662-2.694.662h-1.416zm1.165 1.009v2.47c.651-.009 1.149-.129 1.495-.36.345-.232.518-.551.518-.957 0-.354-.156-.636-.467-.848-.312-.212-.73-.318-1.254-.318-.113 0-.21.004-.292.013zm0 3.459v2.857h.095c1.017 0 1.71-.157 2.081-.472.37-.314.555-.635.555-.963 0-.432-.207-.777-.623-1.035s-.985-.387-1.708-.387z" fill="#fff"/><path d="m38.617 6.371h1.166v8.347h-1.166z" fill="#fff"/><path d="m48.333 7.295-.955.74c-.253-.253-.483-.442-.688-.566-.206-.125-.503-.187-.891-.187-.425 0-.769.093-1.034.278-.264.186-.396.425-.396.718 0 .253.115.477.345.671.231.195.624.406 1.18.636.555.229.988.443 1.297.642.31.198.564.418.763.658.198.24.346.494.443.76.098.267.146.548.146.845 0 .695-.261 1.287-.783 1.776-.521.489-1.153.734-1.894.734-.722 0-1.361-.191-1.914-.574-.553-.382-.979-.955-1.277-1.719l1.179-.321c.429.939 1.086 1.408 1.972 1.408.429 0 .786-.124 1.07-.373.285-.249.427-.564.427-.944 0-.227-.074-.455-.223-.684-.149-.23-.335-.419-.556-.567-.221-.149-.575-.318-1.06-.508-.486-.19-.859-.365-1.119-.524-.259-.159-.484-.349-.674-.57s-.328-.44-.417-.658c-.088-.219-.132-.452-.132-.701 0-.599.249-1.109.746-1.53.497-.422 1.1-.632 1.809-.632.47 0 .946.098 1.43.294.483.197.885.496 1.206.898z" fill="#fff"/><path d="m50.792 13.951c0-.24.089-.447.267-.622.179-.175.394-.262.647-.262.249 0 .463.087.644.262s.271.382.271.622c0 .245-.089.454-.267.626-.179.173-.395.259-.648.259s-.468-.085-.647-.256c-.178-.17-.267-.38-.267-.629z" fill="#fff"/><path d="m55.71 6.371h1.166v7.22h2.812v1.127h-3.978z" fill="#fff"/><path d="m61.08 10.492c0-1.205.47-2.238 1.409-3.099.94-.86 2.069-1.29 3.388-1.29 1.288 0 2.397.433 3.328 1.3.93.867 1.396 1.897 1.396 3.089 0 1.262-.46 2.329-1.379 3.201-.92.871-2.048 1.307-3.385 1.307-1.319 0-2.442-.439-3.368-1.317s-1.389-1.942-1.389-3.191zm8.267.053c0-.922-.343-1.698-1.03-2.33-.687-.631-1.531-.946-2.534-.946-.954 0-1.77.321-2.45.963s-1.02 1.413-1.02 2.313c0 .912.349 1.684 1.047 2.316.698.631 1.553.946 2.565.946.931 0 1.734-.322 2.409-.966s1.013-1.41 1.013-2.296z" fill="#fff"/><path d="m71.837 6.384h1.247l2.703 5.903 2.725-5.903h1.26l-3.998 8.616z" fill="#fff"/><path d="m81.537 6.371h4.784v1.14h-3.619v2.084h3.619v1.126h-3.619v2.87h3.619v1.127h-4.784z" fill="#fff"/></g></svg>