<svg clip-rule="evenodd" fill-rule="evenodd" stroke-linejoin="round" stroke-miterlimit="2" viewBox="0 0 135 40" xmlns="http://www.w3.org/2000/svg"><g fill-rule="nonzero"><path d="m99.322 0h-89.787c-.367 0-.73 0-1.095.002-.306.002-.61.008-.919.013-.671.007-1.341.066-2.004.175-.661.112-1.302.324-1.9.627-.598.306-1.145.705-1.62 1.18-.477.473-.874 1.02-1.177 1.62-.304.599-.515 1.241-.625 1.903-.111.662-.171 1.331-.179 2.002-.01.307-.01.615-.015.921v23.117c.005.31.006.61.015.921.008.671.068 1.34.18 2.002.11.663.32 1.306.624 1.905.303.597.701 1.142 1.178 1.612.473.477 1.019.875 1.618 1.179s1.239.516 1.901.63c.663.109 1.333.168 2.004.177.31.007.613.011.919.011.366.002.728.002 1.095.002h89.787c.36 0 .725 0 1.084-.002.305 0 .617-.004.922-.01.67-.009 1.339-.068 2-.178.664-.114 1.307-.327 1.908-.63.599-.304 1.145-.702 1.618-1.179.476-.473.874-1.017 1.181-1.614.302-.6.511-1.242.62-1.905.111-.662.173-1.331.185-2.002.004-.31.004-.61.004-.921.008-.364.008-.725.008-1.094v-20.928c0-.366 0-.73-.008-1.092 0-.306 0-.614-.004-.92-.012-.671-.074-1.341-.186-2.003-.109-.662-.317-1.304-.619-1.903-.617-1.203-1.596-2.182-2.799-2.8-.601-.303-1.244-.514-1.908-.627-.661-.11-1.33-.169-2-.176-.305-.005-.617-.011-.922-.013-.36-.002-.724-.002-1.084-.002z" fill="#a6a6a6" transform="matrix(1.23931 0 0 1 -.001239 0)"/><path d="m8.445 39.125c-.305 0-.602-.004-.904-.01-.627-.008-1.252-.063-1.87-.164-.576-.099-1.134-.284-1.656-.548-.517-.262-.989-.605-1.397-1.016-.414-.407-.758-.879-1.02-1.397-.265-.521-.448-1.08-.544-1.657-.103-.62-.158-1.247-.166-1.875-.007-.21-.015-.913-.015-.913v-23.1s.009-.692.015-.895c.007-.627.063-1.253.165-1.872.096-.578.279-1.139.544-1.662.261-.518.603-.99 1.015-1.398.411-.412.884-.757 1.402-1.023.521-.263 1.078-.446 1.653-.544.62-.101 1.247-.156 1.876-.164l.902-.012h91.956l.913.013c.623.007 1.244.061 1.859.162.581.099 1.144.284 1.67.548 1.038.535 1.883 1.381 2.416 2.42.26.52.441 1.076.535 1.649.104.624.162 1.255.174 1.887.003.283.003.588.003.89.008.375.008.732.008 1.092v20.929c0 .363 0 .718-.008 1.075 0 .325 0 .623-.004.93-.012.621-.069 1.24-.171 1.853-.093.581-.275 1.144-.54 1.67-.264.513-.607.98-1.016 1.386-.409.414-.881.759-1.4 1.022-.525.266-1.087.451-1.667.55-.618.101-1.243.155-1.87.163-.292.007-.599.011-.897.011l-1.084.002z" transform="matrix(1.23931 0 0 1 -.00062 -.0015)"/><path d="m.075-.693v.089h.162v.105h-.185v.092h.457v-.092h-.178v-.105h.16v-.089h-.16v-.115h-.094v.115zm-.007.415v.089h.169v.146c-.058.006-.12.011-.184.017l.013.1c.168-.016.317-.036.449-.061v-.097c-.057.01-.118.02-.184.029v-.134h.165v-.089h-.165v-.104h-.094v.104zm.445-.348v.091h.266v.494c0 .032-.021.048-.061.048-.034 0-.07-.002-.108-.005l.022.092h.119c.08 0 .12-.038.12-.112v-.517h.08v-.091h-.08v-.196h-.092v.196zm.103.187-.079.035c.044.069.084.148.12.237l.078-.04c-.035-.085-.075-.162-.119-.232z" fill="#fff" transform="matrix(8 0 0 8 34.097998 30.55205)"/><path d="m.507-.381h.114v.114h-.114zm.207 0h.119v.114h-.119zm.119.204v.049h.094v-.545h-.213v-.149h-.093v.149h-.209v.546h.095v-.05h.114v.278h.093v-.278zm0-.291h-.119v-.115h.119zm-.212 0h-.114v-.115h.114zm-.445.18v.391h.093v-.397c.026.022.053.047.08.077l.051-.078c-.04-.038-.084-.071-.131-.099v-.006c.05-.07.086-.139.11-.209v-.08h-.095c-.012-.042-.028-.089-.048-.139l-.09.025c.018.037.033.075.047.114h-.133v.091h.223c-.042.102-.124.206-.245.313l.03.1c.039-.034.075-.069.108-.103z" fill="#fff" transform="matrix(8 0 0 8 42.097998 30.55205)"/><path d="m.054-.381v.091h.179c-.014.129-.056.238-.127.328l.073.066c.086-.104.136-.236.152-.394h.378v.256c0 .027-.011.041-.033.041-.034 0-.072-.002-.113-.005l.025.092h.117c.068 0 .102-.032.102-.094v-.29h.139v-.091h-.139v-.404h-.568v.404zm.655 0h-.373v-.317h.373zm-.226-.276-.077.048c.06.068.108.131.144.187l.075-.052c-.034-.052-.081-.113-.142-.183z" fill="#fff" transform="matrix(8 0 0 8 50.097998 30.55205)"/><path d="m.31-.645c.025 0 .045.007.059.022.014.013.021.031.021.054 0 .038-.031.074-.091.108-.001 0-.002.001-.002.001-.016-.018-.028-.033-.037-.046-.02-.028-.029-.05-.029-.067 0-.023.006-.041.02-.053.012-.013.032-.019.059-.019zm-.1.234c-.048.027-.075.042-.079.046-.061.045-.091.1-.091.166 0 .071.025.125.077.163.045.033.105.05.18.05.091 0 .166-.03.225-.09l.071.076h.137l-.148-.157c.04-.071.061-.158.065-.261h-.108c-.005.069-.017.128-.035.178l-.149-.158.059-.035c.056-.04.084-.087.084-.143 0-.049-.019-.087-.057-.115-.034-.025-.077-.037-.128-.037-.054 0-.099.013-.133.041-.038.028-.057.067-.057.117 0 .027.008.054.026.082.011.019.031.045.061.077zm.083.329c-.041 0-.075-.01-.101-.03-.029-.022-.043-.05-.043-.085 0-.031.011-.059.033-.083.018-.022.043-.043.074-.062.004-.002.008-.005.012-.007l.184.197c-.041.046-.094.07-.159.07z" fill="#fff" transform="matrix(8 0 0 8 58.097998 30.55205)"/><path d="m.377-.793v.209h.196v.052h-.258v.078h.192c-.045.034-.115.065-.209.093l.047.077c.102-.041.178-.088.228-.142v.141h.092v-.086c.074.024.146.055.218.092l.049-.075c-.081-.031-.17-.058-.267-.08v-.02h.258v-.078h-.258v-.052h.197v-.209zm.399.134h-.312v-.059h.312zm-.513.406c-.033.05-.072.092-.116.128l.072.051c.046-.04.085-.087.119-.143zm.51-.01c-.032.048-.069.089-.113.124l.072.051c.045-.039.084-.085.117-.138zm-.221-.02h-.092c-.001.045-.007.081-.017.107-.041.091-.169.156-.384.194l.037.085c.207-.043.343-.111.408-.203.062.094.196.162.404.202l.037-.085c-.209-.034-.343-.103-.403-.205.006-.028.01-.06.01-.095zm-.388-.242v.247h.092v-.352c.037-.05.068-.104.092-.16l-.08-.037c-.05.11-.126.207-.228.291l.028.095c.034-.027.066-.055.096-.084z" fill="#fff" transform="matrix(8 0 0 8 64.057998 30.55205)"/><path d="m.127-.81-.068.066c.075.054.133.105.175.151l.069-.067c-.048-.05-.107-.1-.176-.15zm-.016.245-.068.066c.07.052.125.1.163.146l.068-.068c-.044-.048-.099-.096-.163-.144zm.089.271c-.042.118-.091.234-.147.347l.095.042c.05-.111.096-.229.138-.354zm.3-.105c-.042.088-.111.16-.208.216l.06.076c.113-.07.193-.168.24-.292h.092c-.025.1-.062.18-.112.24-.056.064-.14.121-.25.173l.06.077c.12-.061.211-.13.273-.207.052-.07.092-.164.12-.283h.063c-.006.211-.017.33-.032.356-.016.032-.043.049-.083.05-.036 0-.073-.002-.111-.004l.026.088c.032.002.064.003.098.003.086-.002.138-.037.157-.106.02-.069.033-.226.04-.472h-.417c.116-.068.223-.141.321-.217v-.087h-.483v.092h.335c-.106.073-.22.142-.343.207v.09z" fill="#fff" transform="matrix(8 0 0 8 72.057998 30.55205)"/><path d="m.127-.81-.068.066c.075.054.133.105.175.151l.069-.067c-.048-.05-.107-.1-.176-.15zm-.016.245-.068.066c.07.052.125.1.163.146l.068-.068c-.044-.048-.099-.096-.163-.144zm.089.271c-.042.118-.091.234-.147.347l.095.042c.05-.111.096-.229.138-.354zm.3-.105c-.042.088-.111.16-.208.216l.06.076c.113-.07.193-.168.24-.292h.092c-.025.1-.062.18-.112.24-.056.064-.14.121-.25.173l.06.077c.12-.061.211-.13.273-.207.052-.07.092-.164.12-.283h.063c-.006.211-.017.33-.032.356-.016.032-.043.049-.083.05-.036 0-.073-.002-.111-.004l.026.088c.032.002.064.003.098.003.086-.002.138-.037.157-.106.02-.069.033-.226.04-.472h-.417c.116-.068.223-.141.321-.217v-.087h-.483v.092h.335c-.106.073-.22.142-.343.207v.09z" fill="#fff" transform="matrix(8 0 0 8 80.057998 30.55205)"/><path d="m.133-.737-.079.025c.024.064.043.132.059.202l.073-.02c-.016-.078-.033-.147-.053-.207zm.253-.011c-.006.078-.018.148-.037.208l.07.023c.024-.064.04-.138.046-.221zm-.335.272v.092h.163c-.038.084-.097.163-.179.239l.039.099c.057-.065.106-.14.148-.225v.371h.095v-.377c.024.035.054.08.088.135l.057-.084c-.049-.051-.097-.097-.145-.138v-.02h.141v-.092h-.141v-.34h-.095v.34zm.709-.339v.571l-.29.044.013.094.277-.042v.248h.093v-.262l.113-.017-.016-.094-.097.015v-.557zm-.183.066-.063.061c.068.053.122.102.16.148l.064-.065c-.044-.047-.097-.095-.161-.144zm-.024.235-.064.06c.068.054.12.105.158.152l.064-.065c-.043-.049-.096-.098-.158-.147z" fill="#fff" transform="matrix(8 0 0 8 88.057998 30.55205)"/></g><path d="m179.906 242.127c-15.773 7.574-33.457 11.82-52.129 11.82-66.366 0-120.247-53.644-120.247-119.718 0-66.075 53.881-119.719 120.247-119.719 66.367 0 120.248 53.644 120.248 119.719 0 5.959-.439 11.817-1.285 17.544-6.226-2.551-11.561-4.401-15.484-5.607-6.067-1.865-18.594-4.925-30.739-5.655-17.789-1.07-32.44 2.178-44.438 9.979-2.761.797 2.386-7.091 7.351-12.641 3.799-4.246 5.739-5.577 6.997-6.964 5.385-4.741 13.415-12.946 17.059-22.309 10.845-29.756-5.627-43.64-19.306-48.397-6.645-2.851-15.274-3.254-22.459-1.5-10.317 2.518-17.367 9.257-21.717 20.291-.863 2.189-7.583 13.101-21.718 23.951-11.201 8.598-32.899 23.61-42.433 50.23-1.801 5.029-3.809 17.094-.669 22.953-2.072-3.865 2.465-22.992 20.048-40.583 6.565-6.569 14.254-13.114 24.056-18.961 5.524-3.295 11.031-5.523 15.37-7.319 3.411-1.411 6.11-2.362 7.666-2.995 2.506-.627 7.875-1.922 9.708-1.994 3.944-.155 7.167 1.018 8.019 2.661 1.198 2.312.249 4.895-1.671 7.651.473-.679-1.002.998-1.002.998l.133.007c-2.669 2.288-9.288 8.287-14.834 15.96-.71.981-17.779 25.187-8.687 51.894 6.5 19.096 25.028 27.692 24.724 26.944 0 0-7.103-14.659-5.68-30.271 1.108-12.145 9.06-22.451 10.358-22.62.394-.052-2.616 5.303-3.675 7.983-5.991 15.262-1.642 30.95.334 36.592 2.034 5.806 4.145 9.992 6.682 13.971 5.402 8.472 11.399 14.547 16.706 18.629 3.561 2.738 7.709 5.199 12.467 7.476zm-46.213-159.83c-.529-1.086-.167-2.575.334-3.327.607-.908 1.065-1.53 3.007-1.996 3.372-.807 4.877 1.672 5.012 2.662.203 1.489-.194 2.099-.668 2.661-.604.714-1.941 1.506-4.009 1.517-.589.003-2.898.078-3.676-1.517z" fill="#fefbfb" transform="matrix(.0901946 0 0 .0905929 5.80953 6.82215)"/><g fill="#fff" fill-rule="nonzero" transform="matrix(.131844 0 0 .127468 -5.86494 3.44703)"><path d="m306 39.6h11.787v87.308h-11.787z"/><path d="m352.656 39.6h13.843c9.092 0 16.516 1.976 22.273 5.928s8.635 8.944 8.635 14.974c0 7.356-4.249 13.501-12.747 18.435 13.158 4.386 19.737 11.993 19.737 22.821 0 7.538-3.392 13.615-10.177 18.229-6.784 4.614-15.865 6.922-27.241 6.922h-14.323zm11.788 10.554v25.836c6.578-.091 11.616-1.347 15.111-3.769 3.495-2.421 5.242-5.756 5.242-10.005 0-3.701-1.576-6.659-4.728-8.875-3.153-2.216-7.379-3.324-12.679-3.324-1.142 0-2.124.046-2.946.137zm0 36.184v29.88h.959c10.28 0 17.293-1.645 21.039-4.934 3.746-3.29 5.619-6.648 5.619-10.074 0-4.523-2.101-8.133-6.304-10.828-4.204-2.696-9.96-4.044-17.27-4.044z"/><path d="m435.017 39.6h11.787v87.308h-11.787z"/><path d="m533.276 49.263-9.663 7.744c-2.558-2.65-4.877-4.626-6.956-5.928-2.078-1.302-5.082-1.953-9.011-1.953-4.295 0-7.779.971-10.451 2.913-2.673 1.942-4.009 4.443-4.009 7.504 0 2.65 1.165 4.991 3.495 7.024s6.304 4.249 11.924 6.648c5.619 2.398 9.994 4.637 13.124 6.716 3.129 2.079 5.699 4.374 7.709 6.887 2.011 2.513 3.507 5.163 4.489 7.95s1.473 5.733 1.473 8.84c0 7.264-2.638 13.455-7.915 18.572s-11.661 7.676-19.154 7.676c-7.31 0-13.763-1.999-19.36-5.997s-9.903-9.994-12.918-17.989l11.924-3.358c4.34 9.822 10.988 14.734 19.943 14.734 4.34 0 7.949-1.302 10.827-3.906 2.879-2.605 4.318-5.894 4.318-9.869 0-2.376-.754-4.763-2.262-7.161-1.507-2.399-3.38-4.375-5.619-5.928-2.239-1.554-5.814-3.324-10.725-5.311-4.912-1.988-8.681-3.815-11.308-5.483-2.627-1.667-4.9-3.655-6.819-5.962-1.918-2.307-3.323-4.603-4.214-6.887-.891-2.285-1.337-4.729-1.337-7.333 0-6.259 2.513-11.593 7.539-16.002 5.025-4.409 11.125-6.613 18.298-6.613 4.751 0 9.571 1.028 14.46 3.084 4.888 2.056 8.954 5.185 12.198 9.388z"/><path d="m558.139 118.891c0-2.513.902-4.683 2.707-6.511 1.805-1.827 3.986-2.741 6.545-2.741 2.512 0 4.683.914 6.51 2.741 1.828 1.828 2.741 3.998 2.741 6.511 0 2.558-.902 4.74-2.707 6.544-1.804 1.805-3.986 2.707-6.544 2.707-2.559 0-4.74-.891-6.545-2.672-1.805-1.782-2.707-3.975-2.707-6.579z"/><path d="m607.879 39.6h11.787v75.521h28.44v11.788h-40.227z"/><path d="m662.182 82.706c0-12.609 4.752-23.414 14.255-32.415 9.503-9 20.925-13.5 34.265-13.5 13.021 0 24.237 4.534 33.649 13.603 9.411 9.069 14.117 19.84 14.117 32.312 0 13.204-4.648 24.363-13.946 33.478-9.297 9.114-20.707 13.672-34.231 13.672-13.341 0-24.694-4.592-34.06-13.775s-14.049-20.308-14.049-33.375zm83.608.549c0-9.64-3.472-17.761-10.417-24.363-6.944-6.602-15.488-9.903-25.63-9.903-9.64 0-17.898 3.358-24.774 10.074s-10.314 14.78-10.314 24.192c0 9.548 3.529 17.623 10.588 24.225s15.705 9.903 25.939 9.903c9.412 0 17.532-3.37 24.363-10.108 6.83-6.739 10.245-14.746 10.245-24.02z"/><path d="m770.968 39.738h12.61l27.344 61.746 27.549-61.746h12.747l-40.433 90.118z"/><path d="m869.063 39.6h48.383v11.925h-36.595v21.793h36.595v11.787h-36.595v30.016h36.595v11.788h-48.383z"/></g></svg>