<svg viewBox="0 0 135 40" xmlns="http://www.w3.org/2000/svg" xmlns:serif="http://www.serif.com/" fill-rule="evenodd" clip-rule="evenodd" stroke-linejoin="round" stroke-miterlimit="1.414"><path d="M123.09 0H11.816c-.455 0-.905 0-1.357.002-.38.002-.756.008-1.14.013-.831.007-1.661.066-2.483.175a9.709 9.709 0 0 0-2.355.627 8.149 8.149 0 0 0-2.007 1.18 6.503 6.503 0 0 0-1.459 1.62A5.755 5.755 0 0 0 .24 5.52 10.6 10.6 0 0 0 .02 7.522c-.013.307-.013.615-.019.921V31.56c.006.31.007.61.019.921.01.671.084 1.34.223 2.002.136.663.396 1.306.773 1.905A6.477 6.477 0 0 0 2.475 38a7.942 7.942 0 0 0 2.005 1.179 9.769 9.769 0 0 0 2.356.63 20.59 20.59 0 0 0 2.484.177c.384.007.76.011 1.139.011.453.002.902.002 1.357.002H123.09c.446 0 .898 0 1.343-.002.378 0 .765-.004 1.143-.01.83-.009 1.659-.068 2.478-.178a9.883 9.883 0 0 0 2.365-.63A7.942 7.942 0 0 0 132.424 38a6.68 6.68 0 0 0 1.464-1.614c.374-.6.633-1.242.768-1.905.138-.662.214-1.331.23-2.002.004-.31.004-.61.004-.921.01-.364.01-.725.01-1.094V9.536c0-.366 0-.73-.01-1.092 0-.306 0-.614-.005-.92a10.938 10.938 0 0 0-.23-2.003 5.764 5.764 0 0 0-.767-1.903c-.765-1.203-1.978-2.182-3.47-2.8a9.832 9.832 0 0 0-2.364-.627 19.9 19.9 0 0 0-2.478-.176c-.378-.005-.765-.011-1.143-.013C123.987 0 123.536 0 123.09 0z" fill="#a6a6a6" fill-rule="nonzero"/><path d="M10.465 39.123c-.378 0-.746-.003-1.12-.01a19.25 19.25 0 0 1-2.317-.163 8.546 8.546 0 0 1-2.053-.549 6.858 6.858 0 0 1-1.731-1.016A5.563 5.563 0 0 1 1.98 35.99a4.999 4.999 0 0 1-.674-1.657 10.08 10.08 0 0 1-.206-1.876c-.009-.21-.019-.913-.019-.913v-23.1s.011-.691.019-.894c.009-.628.078-1.254.204-1.873a5.032 5.032 0 0 1 .675-1.662c.323-.518.747-.99 1.257-1.398a7.053 7.053 0 0 1 1.738-1.023 8.51 8.51 0 0 1 2.049-.544A19.373 19.373 0 0 1 9.347.886l1.118-.013h113.962l1.132.013a18.84 18.84 0 0 1 2.304.162c.72.1 1.417.284 2.07.548 1.286.535 2.333 1.381 2.994 2.42.322.52.546 1.077.663 1.65.128.623.2 1.254.215 1.886.004.284.004.588.004.89.01.376.01.732.01 1.092v20.93c0 .363 0 .718-.01 1.075 0 .324 0 .622-.005.93a10.4 10.4 0 0 1-.212 1.852 4.982 4.982 0 0 1-.67 1.67 5.74 5.74 0 0 1-1.258 1.386 6.818 6.818 0 0 1-1.735 1.023 8.548 8.548 0 0 1-2.066.55c-.766.1-1.54.154-2.318.162-.362.008-.742.011-1.111.011l-1.344.003-112.625-.002z" fill-rule="nonzero"/><g fill="#fff" fill-rule="nonzero"><path d="M36.938 24.008v1.664h-1.992v.752h1.968c-.064.984-.248 1.8-.536 2.448-.336.704-.976 1.288-1.92 1.744l.44.704c.96-.44 1.656-1.064 2.088-1.872.384-.776.616-1.784.688-3.024h1.584v3.832c0 .664.352 1 1.072 1h.384c.512 0 .816-.208.912-.624.056-.176.112-.64.168-1.408l-.712-.208c0 .4-.016.768-.04 1.12-.048.248-.16.376-.336.376h-.256c-.272 0-.408-.128-.408-.376v-4.464h-2.344v-1.664h-.76zM43.946 26.216v1.128h-.672c.2-.48.384-1.024.56-1.632h1.632v-.736h-1.44c.064-.28.128-.576.192-.88l-.72-.104c-.064.344-.136.672-.208.984h-.896v.736h.704a9.937 9.937 0 0 1-.592 1.64l.16.672h1.28v1.048c-.488.08-1.008.152-1.552.216l.096.744c.504-.064.992-.144 1.456-.224v1.56h.728v-1.704c.352-.08.696-.16 1.024-.24v-.72c-.32.08-.664.16-1.024.232v-.912h.832v-.68h-.832v-1.128h-.728zm1.84-1.24v.736h1.064c-.056.24-.112.488-.168.744h-1.128v.728h.944a31.76 31.76 0 0 1-.448 1.528h2.656c-.248.384-.584.76-1 1.128-.352-.2-.72-.384-1.104-.544l-.408.6c.864.368 1.704.872 2.528 1.512l.424-.656a12.385 12.385 0 0 0-.824-.56c.528-.512.912-1.016 1.168-1.528v-.624h-2.496c.08-.264.168-.552.256-.856h2.56v-.728h-2.376c.056-.24.112-.488.168-.744h2.008v-.736h-1.856c.048-.296.104-.6.16-.92l-.744-.072c-.056.336-.112.664-.176.992h-1.208zM51.978 26.4v.448h1.752v.968h-2.792v.704h2.792v1.96h-.768c-.192-.6-.4-1.112-.624-1.544l-.68.248c.224.408.416.84.568 1.296h-1.568v.72h6.888v-.72h-1.544c.208-.4.4-.848.576-1.352l-.688-.248a12.607 12.607 0 0 1-.656 1.6h-.752v-1.96h2.784v-.704h-2.784v-.968h1.752v-.416c.336.192.704.368 1.088.528l.432-.632c-1.488-.616-2.6-1.384-3.344-2.312h-.608c-.864.944-1.984 1.72-3.368 2.328l.44.632a11.98 11.98 0 0 0 1.104-.576zm3.816-.232h-3.44c.64-.416 1.224-.896 1.752-1.44a7.607 7.607 0 0 0 1.688 1.44zM58.53 27.504v.728h1.432c-.112 1.032-.448 1.904-1.016 2.624l.584.528c.688-.832 1.088-1.888 1.216-3.152h3.024v2.048c0 .216-.088.328-.264.328-.272 0-.576-.016-.904-.04l.2.736h.936c.544 0 .816-.256.816-.752v-2.32h1.112v-.728h-1.112v-3.232H60.01v3.232h-1.48zm5.24 0h-2.984v-2.536h2.984v2.536zm-1.808-2.208l-.616.384c.48.544.864 1.048 1.152 1.496l.6-.416a13.773 13.773 0 0 0-1.136-1.464zM68.578 25.392c.2 0 .36.056.472.176a.56.56 0 0 1 .168.432c0 .304-.248.592-.728.864-.008 0-.016.008-.016.008a3.964 3.964 0 0 1-.296-.368c-.16-.224-.232-.4-.232-.536 0-.184.048-.328.16-.424.096-.104.256-.152.472-.152zm-.8 1.872c-.384.216-.6.336-.632.368-.488.36-.728.8-.728 1.328 0 .568.2 1 .616 1.304.36.264.84.4 1.44.4.728 0 1.328-.24 1.8-.72l.568.608h1.096l-1.184-1.256c.32-.568.488-1.264.52-2.088h-.864a5.345 5.345 0 0 1-.28 1.424l-1.192-1.264.472-.28c.448-.32.672-.696.672-1.144 0-.392-.152-.696-.456-.92-.272-.2-.616-.296-1.024-.296-.432 0-.792.104-1.064.328-.304.224-.456.536-.456.936 0 .216.064.432.208.656.088.152.248.36.488.616zm.664 2.632c-.328 0-.6-.08-.808-.24a.81.81 0 0 1-.344-.68c0-.248.088-.472.264-.664.144-.176.344-.344.592-.496.032-.016.064-.04.096-.056l1.472 1.576c-.328.368-.752.56-1.272.56zM75.074 24.208v1.672h1.568v.416h-2.064v.624h1.536c-.36.272-.92.52-1.672.744l.376.616c.816-.328 1.424-.704 1.824-1.136v1.128h.736v-.688c.592.192 1.168.44 1.744.736l.392-.6a15.68 15.68 0 0 0-2.136-.64v-.16h2.064v-.624h-2.064v-.416h1.576v-1.672h-3.88zm3.192 1.072H75.77v-.472h2.496v.472zm-4.104 3.248a4.56 4.56 0 0 1-.928 1.024l.576.408c.368-.32.68-.696.952-1.144l-.6-.288zm4.08-.08a4.284 4.284 0 0 1-.904.992l.576.408c.36-.312.672-.68.936-1.104l-.608-.296zm-1.768-.16h-.736c-.008.36-.056.648-.136.856-.328.728-1.352 1.248-3.072 1.552l.296.68c1.656-.344 2.744-.888 3.264-1.624.496.752 1.568 1.296 3.232 1.616l.296-.68c-1.672-.272-2.744-.824-3.224-1.64.048-.224.08-.48.08-.76zm-3.104-1.936v1.976h.736v-2.816c.296-.4.544-.832.736-1.28l-.64-.296c-.4.88-1.008 1.656-1.824 2.328l.224.76c.272-.216.528-.44.768-.672zM81.074 24.072l-.544.528c.6.432 1.064.84 1.4 1.208l.552-.536c-.384-.4-.856-.8-1.408-1.2zm-.128 1.96l-.544.528c.56.416 1 .8 1.304 1.168l.544-.544a9.521 9.521 0 0 0-1.304-1.152zm.712 2.168a25.54 25.54 0 0 1-1.176 2.776l.76.336c.4-.888.768-1.832 1.104-2.832l-.688-.28zm2.4-.84c-.336.704-.888 1.28-1.664 1.728l.48.608a4.595 4.595 0 0 0 1.92-2.336h.736c-.2.8-.496 1.44-.896 1.92-.448.512-1.12.968-2 1.384l.48.616c.96-.488 1.688-1.04 2.184-1.656.416-.56.736-1.312.96-2.264h.504c-.048 1.688-.136 2.64-.256 2.848-.128.256-.344.392-.664.4-.288 0-.584-.016-.888-.032l.208.704c.256.016.512.024.784.024.688-.016 1.104-.296 1.256-.848.16-.552.264-1.808.32-3.776h-3.336a23.976 23.976 0 0 0 2.568-1.736v-.696H82.89v.736h2.68a27.39 27.39 0 0 1-2.744 1.656v.72h1.232zM89.074 24.072l-.544.528c.6.432 1.064.84 1.4 1.208l.552-.536c-.384-.4-.856-.8-1.408-1.2zm-.128 1.96l-.544.528c.56.416 1 .8 1.304 1.168l.544-.544a9.521 9.521 0 0 0-1.304-1.152zm.712 2.168a25.54 25.54 0 0 1-1.176 2.776l.76.336c.4-.888.768-1.832 1.104-2.832l-.688-.28zm2.4-.84c-.336.704-.888 1.28-1.664 1.728l.48.608a4.595 4.595 0 0 0 1.92-2.336h.736c-.2.8-.496 1.44-.896 1.92-.448.512-1.12.968-2 1.384l.48.616c.96-.488 1.688-1.04 2.184-1.656.416-.56.736-1.312.96-2.264h.504c-.048 1.688-.136 2.64-.256 2.848-.128.256-.344.392-.664.4-.288 0-.584-.016-.888-.032l.208.704c.256.016.512.024.784.024.688-.016 1.104-.296 1.256-.848.16-.552.264-1.808.32-3.776h-3.336a23.976 23.976 0 0 0 2.568-1.736v-.696H90.89v.736h2.68a27.39 27.39 0 0 1-2.744 1.656v.72h1.232zM97.122 24.656l-.632.2c.192.512.344 1.056.472 1.616l.584-.16a14.563 14.563 0 0 0-.424-1.656zm2.024-.088a7.463 7.463 0 0 1-.296 1.664l.56.184c.192-.512.32-1.104.368-1.768l-.632-.08zm-2.68 2.176v.736h1.304c-.304.672-.776 1.304-1.432 1.912l.312.792c.456-.52.848-1.12 1.184-1.8v2.968h.76v-3.016c.192.28.432.64.704 1.08l.456-.672a16.299 16.299 0 0 0-1.16-1.104v-.16h1.128v-.736h-1.128v-2.72h-.76v2.72h-1.368zm5.672-2.712V28.6l-2.32.352.104.752 2.216-.336v1.984h.744v-2.096l.904-.136-.128-.752-.776.12v-4.456h-.744zm-1.464.528l-.504.488c.544.424.976.816 1.28 1.184l.512-.52a10.49 10.49 0 0 0-1.288-1.152zm-.192 1.88l-.512.48c.544.432.96.84 1.264 1.216l.512-.52a9.593 9.593 0 0 0-1.264-1.176z"/></g><path d="M22.036 28.757a10.794 10.794 0 0 1-4.702 1.07c-5.986 0-10.845-4.859-10.845-10.845 0-5.986 4.86-10.845 10.845-10.845 5.986 0 10.846 4.86 10.846 10.845 0 .54-.04 1.07-.116 1.59a16.686 16.686 0 0 0-1.396-.508c-.548-.17-1.678-.446-2.773-.513-1.604-.096-2.926.198-4.008.904-.249.073.215-.642.663-1.145.343-.384.518-.505.631-.63.486-.43 1.21-1.173 1.539-2.022.978-2.695-.508-3.953-1.742-4.384-.599-.258-1.377-.295-2.025-.136-.93.228-1.567.839-1.959 1.838-.078.199-.684 1.187-1.959 2.17-1.01.779-2.967 2.139-3.827 4.55-.162.456-.344 1.55-.06 2.08-.187-.35.222-2.083 1.808-3.677a10.995 10.995 0 0 1 2.17-1.717c.498-.299.994-.5 1.386-.663.307-.128.55-.214.691-.272.226-.057.71-.174.876-.18.356-.014.646.092.723.24.108.21.023.444-.15.694.042-.062-.09.09-.09.09h.011a8.83 8.83 0 0 0-1.338 1.447c-.064.089-1.603 2.282-.783 4.701.586 1.73 2.257 2.509 2.23 2.44 0 0-.641-1.327-.513-2.741.1-1.1.817-2.034.934-2.05.036-.004-.235.48-.331.724-.54 1.382-.148 2.803.03 3.315.184.526.374.905.603 1.265a6.584 6.584 0 0 0 1.507 1.688c.32.248.695.47 1.124.677zm-4.168-14.48c-.048-.098-.015-.233.03-.3.055-.083.096-.14.271-.182.304-.073.44.152.452.242.019.134-.017.19-.06.24-.054.065-.175.137-.362.138-.053 0-.26.007-.331-.137z" fill="#fefbfb"/><g serif:id="tw cen" fill="#fff" fill-rule="nonzero"><path d="M34.48 8.495h1.553v11.129H34.48zM40.63 8.495h1.826c1.198 0 2.177.252 2.936.755.76.504 1.139 1.14 1.139 1.91 0 .937-.56 1.72-1.68 2.349 1.734.559 2.601 1.529 2.601 2.909 0 .96-.447 1.735-1.341 2.324-.895.588-2.092.882-3.592.882h-1.888V8.494zm1.555 1.345v3.293c.867-.011 1.531-.171 1.992-.48.46-.309.691-.734.691-1.275 0-.472-.208-.85-.623-1.132-.416-.282-.973-.423-1.672-.423-.15 0-.28.005-.388.017zm0 4.612v3.81h.126c1.356 0 2.28-.21 2.774-.63.494-.42.741-.847.741-1.284 0-.576-.277-1.037-.831-1.38-.554-.344-1.313-.516-2.277-.516h-.533zM51.49 8.495h1.553v11.129H51.49zM64.444 9.726l-1.274.988c-.337-.338-.643-.59-.917-.756-.274-.166-.67-.249-1.188-.249-.566 0-1.025.124-1.378.371-.352.248-.528.567-.528.957 0 .338.153.636.46.895.308.26.832.542 1.573.848.74.305 1.317.59 1.73.856.412.265.751.557 1.016.878.265.32.463.658.592 1.013.13.355.194.73.194 1.127 0 .926-.347 1.715-1.043 2.367-.696.652-1.538.979-2.526.979-.963 0-1.814-.255-2.552-.765s-1.306-1.274-1.703-2.293l1.572-.428c.572 1.252 1.449 1.878 2.63 1.878.571 0 1.047-.166 1.427-.498a1.6 1.6 0 0 0 .569-1.258c0-.303-.1-.607-.298-.913a2.612 2.612 0 0 0-.741-.755c-.295-.198-.767-.424-1.414-.677-.648-.254-1.145-.486-1.49-.699a3.791 3.791 0 0 1-.9-.76 3.2 3.2 0 0 1-.556-.878 2.475 2.475 0 0 1-.176-.935c0-.797.331-1.477.994-2.04.663-.561 1.467-.842 2.413-.842.626 0 1.261.13 1.906.393.645.262 1.18.66 1.608 1.196zM67.722 18.602c0-.32.12-.597.357-.83.238-.233.526-.35.863-.35.331 0 .618.117.858.35.241.233.362.51.362.83 0 .326-.12.604-.357.834-.238.23-.526.345-.863.345-.337 0-.625-.114-.863-.34a1.114 1.114 0 0 1-.357-.84zM74.28 8.495h1.554v9.626h3.75v1.503H74.28V8.494zM81.44 13.99c0-1.608.626-2.985 1.88-4.132 1.252-1.148 2.758-1.721 4.517-1.721 1.717 0 3.195.578 4.436 1.734 1.241 1.156 1.862 2.529 1.862 4.118 0 1.683-.613 3.106-1.84 4.268C91.07 19.419 89.566 20 87.784 20c-1.76 0-3.256-.586-4.49-1.756-1.236-1.17-1.853-2.589-1.853-4.255zm11.023.07c0-1.23-.458-2.265-1.373-3.106-.916-.842-2.042-1.262-3.38-1.262-1.27 0-2.36.428-3.266 1.284-.906.856-1.36 1.884-1.36 3.083 0 1.217.466 2.247 1.396 3.088.93.842 2.07 1.263 3.42 1.263 1.241 0 2.312-.43 3.212-1.289.9-.859 1.351-1.88 1.351-3.062zM95.783 8.512h1.662l3.605 7.871 3.632-7.87h1.681L101.033 20l-5.25-11.488zM108.716 8.495h6.379v1.52h-4.825v2.778h4.825v1.502h-4.825v3.826h4.825v1.503h-6.38V8.494z"/></g></svg>