<?xml version="1.0" encoding="UTF-8" standalone="no"?>
<!DOCTYPE svg PUBLIC "-//W3C//DTD SVG 1.1//EN" "http://www.w3.org/Graphics/SVG/1.1/DTD/svg11.dtd">
<svg width="100%" height="100%" viewBox="0 0 135 40" version="1.1" xmlns="http://www.w3.org/2000/svg" xmlns:xlink="http://www.w3.org/1999/xlink" xml:space="preserve" xmlns:serif="http://www.serif.com/" style="fill-rule:evenodd;clip-rule:evenodd;stroke-linejoin:round;stroke-miterlimit:1.41421;">
    <g transform="matrix(1.23931,0,0,1,-0.00123931,0)">
        <path d="M99.322,0L9.535,0C9.168,0 8.805,0 8.44,0.002C8.134,0.004 7.83,0.01 7.521,0.015C6.85,0.022 6.18,0.081 5.517,0.19C4.856,0.302 4.215,0.514 3.617,0.817C3.019,1.123 2.472,1.522 1.997,1.997C1.52,2.47 1.123,3.017 0.82,3.617C0.516,4.216 0.305,4.858 0.195,5.52C0.084,6.182 0.024,6.851 0.016,7.522C0.006,7.829 0.006,8.137 0.001,8.443L0.001,31.56C0.006,31.87 0.007,32.17 0.016,32.481C0.024,33.152 0.084,33.821 0.196,34.483C0.306,35.146 0.516,35.789 0.82,36.388C1.123,36.985 1.521,37.53 1.998,38C2.471,38.477 3.017,38.875 3.616,39.179C4.215,39.483 4.855,39.695 5.517,39.809C6.18,39.918 6.85,39.977 7.521,39.986C7.831,39.993 8.134,39.997 8.44,39.997C8.806,39.999 9.168,39.999 9.535,39.999L99.322,39.999C99.682,39.999 100.047,39.999 100.406,39.997C100.711,39.997 101.023,39.993 101.328,39.987C101.998,39.978 102.667,39.919 103.328,39.809C103.992,39.695 104.635,39.482 105.236,39.179C105.835,38.875 106.381,38.477 106.854,38C107.33,37.527 107.728,36.983 108.035,36.386C108.337,35.786 108.546,35.144 108.655,34.481C108.766,33.819 108.828,33.15 108.84,32.479C108.844,32.169 108.844,31.869 108.844,31.558C108.852,31.194 108.852,30.833 108.852,30.464L108.852,9.536C108.852,9.17 108.852,8.806 108.844,8.444C108.844,8.138 108.844,7.83 108.84,7.524C108.828,6.853 108.766,6.183 108.654,5.521C108.545,4.859 108.337,4.217 108.035,3.618C107.418,2.415 106.439,1.436 105.236,0.818C104.635,0.515 103.992,0.304 103.328,0.191C102.667,0.081 101.998,0.022 101.328,0.015C101.023,0.01 100.711,0.004 100.406,0.002C100.046,0 99.682,0 99.322,0Z" style="fill:rgb(166,166,166);fill-rule:nonzero;"/>
    </g>
    <g transform="matrix(1.23931,0,0,1,-0.00123931,0)">
        <path d="M8.445,39.125C8.14,39.125 7.843,39.121 7.541,39.115C6.914,39.107 6.289,39.052 5.671,38.951C5.095,38.852 4.537,38.667 4.015,38.403C3.498,38.141 3.026,37.798 2.618,37.387C2.204,36.98 1.86,36.508 1.598,35.99C1.333,35.469 1.15,34.91 1.054,34.333C0.951,33.713 0.896,33.086 0.888,32.458C0.881,32.248 0.873,31.545 0.873,31.545L0.873,8.445C0.873,8.445 0.882,7.753 0.888,7.55C0.895,6.923 0.951,6.297 1.053,5.678C1.149,5.1 1.332,4.539 1.597,4.016C1.858,3.498 2.2,3.026 2.612,2.618C3.023,2.206 3.496,1.861 4.014,1.595C4.535,1.332 5.092,1.149 5.667,1.051C6.287,0.95 6.914,0.895 7.543,0.887L8.445,0.875L100.401,0.875L101.314,0.888C101.937,0.895 102.558,0.949 103.173,1.05C103.754,1.149 104.317,1.334 104.843,1.598C105.881,2.133 106.726,2.979 107.259,4.018C107.519,4.538 107.7,5.094 107.794,5.667C107.898,6.291 107.956,6.922 107.968,7.554C107.971,7.837 107.971,8.142 107.971,8.444C107.979,8.819 107.979,9.176 107.979,9.536L107.979,30.465C107.979,30.828 107.979,31.183 107.971,31.54C107.971,31.865 107.971,32.163 107.967,32.47C107.955,33.091 107.898,33.71 107.796,34.323C107.703,34.904 107.521,35.467 107.256,35.993C106.992,36.506 106.649,36.973 106.24,37.379C105.831,37.793 105.359,38.138 104.84,38.401C104.315,38.667 103.753,38.852 103.173,38.951C102.555,39.052 101.93,39.106 101.303,39.114C101.011,39.121 100.704,39.125 100.406,39.125L99.322,39.127L8.445,39.125Z" style="fill-rule:nonzero;"/>
    </g>
    <g transform="matrix(1.85086,0,0,1.85086,-61.1335,-13.5106)">
        <path d="M74.951,24.16L74.951,20.4L75.726,20.4L75.726,21.024C75.954,20.772 76.16,20.588 76.346,20.471C76.531,20.354 76.738,20.295 76.965,20.295C77.306,20.295 77.597,20.408 77.838,20.633C78.08,20.857 78.2,21.128 78.2,21.444L78.2,24.16L77.407,24.16L77.407,21.676C77.407,21.473 77.341,21.304 77.209,21.17C77.077,21.037 76.909,20.97 76.706,20.97C76.441,20.97 76.213,21.081 76.022,21.305C75.831,21.528 75.735,21.798 75.735,22.114L75.735,24.16L74.951,24.16Z" style="fill:rgb(255,227,91);fill-rule:nonzero;"/>
        <path d="M82.94,22.433L79.732,22.433C79.802,22.819 79.96,23.1 80.208,23.278C80.456,23.456 80.725,23.545 81.017,23.545C81.466,23.545 81.843,23.358 82.147,22.984L82.726,23.422C82.291,23.984 81.71,24.265 80.98,24.265C80.421,24.265 79.953,24.073 79.577,23.69C79.2,23.308 79.012,22.832 79.012,22.264C79.012,21.732 79.202,21.271 79.584,20.881C79.965,20.49 80.43,20.295 80.98,20.295C81.521,20.295 81.985,20.494 82.37,20.89C82.756,21.286 82.946,21.801 82.94,22.433ZM79.814,21.799L82.111,21.799C81.855,21.283 81.479,21.024 80.98,21.024C80.437,21.024 80.048,21.283 79.814,21.799Z" style="fill:rgb(255,227,91);fill-rule:nonzero;"/>
        <path d="M86.235,20.241L87.288,22.733L88.4,20.4L89.092,20.4L87.242,24.265L86.235,21.872L85.228,24.233L83.387,20.4L84.079,20.4L85.191,22.706L86.235,20.241Z" style="fill:rgb(255,227,91);fill-rule:nonzero;"/>
        <path d="M89.889,19.183L90.545,19.183L90.545,22.929L89.889,22.929L89.889,19.183ZM89.81,23.808C89.81,23.694 89.852,23.594 89.935,23.509C90.019,23.425 90.118,23.383 90.232,23.383C90.35,23.383 90.45,23.425 90.533,23.509C90.616,23.594 90.658,23.694 90.658,23.808C90.658,23.925 90.616,24.025 90.533,24.107C90.45,24.189 90.35,24.23 90.232,24.23C90.115,24.23 90.016,24.189 89.934,24.107C89.851,24.025 89.81,23.925 89.81,23.808Z" style="fill:rgb(255,227,91);fill-rule:nonzero;"/>
    </g>
    <g id="简体" transform="matrix(1,0,0,1,-0.542202,3.64015)">
        <path d="M37.832,26C37.04,26.288 36.112,26.52 35.056,26.696L35.152,27.456C36.152,27.272 37.048,27.032 37.832,26.744L37.832,26ZM36.28,20.32C36.008,21.2 35.696,22.008 35.336,22.728C35.24,22.872 35.128,22.968 35.008,23.024L35.2,23.728C35.616,23.656 36.008,23.584 36.392,23.512C36.024,24.168 35.72,24.624 35.472,24.896C35.376,24.984 35.264,25.056 35.128,25.112L35.328,25.8C36.096,25.696 36.896,25.496 37.736,25.208L37.736,24.528C37.24,24.688 36.744,24.824 36.264,24.92C36.712,24.344 37.256,23.44 37.896,22.216L37.192,21.952C37.04,22.256 36.896,22.552 36.76,22.832C36.472,22.88 36.184,22.928 35.896,22.96C36.264,22.352 36.632,21.56 36.992,20.592L36.28,20.32ZM37.808,21.2L37.808,21.896L39.552,21.896L39.552,24.648L38.768,24.648L38.768,22.632L38.048,22.632L38.048,25.344L39.552,25.344L39.552,26.808C39.552,27.344 39.824,27.616 40.376,27.616L41.368,27.616C41.64,27.6 41.848,27.528 42.008,27.4C42.144,27.264 42.256,26.816 42.336,26.048L41.64,25.832C41.608,26.416 41.544,26.752 41.464,26.84C41.368,26.904 41.272,26.936 41.176,26.936L40.576,26.936C40.384,26.936 40.296,26.848 40.296,26.672L40.296,25.344L41.784,25.344L41.784,22.632L41.064,22.632L41.064,24.648L40.296,24.648L40.296,21.896L42.088,21.896L42.088,21.2L40.296,21.2L40.296,20.368L39.552,20.368L39.552,21.2L37.808,21.2Z" style="fill:white;fill-rule:nonzero;"/>
        <path d="M44.056,22.296L44.056,25.312L46.264,25.312L46.264,25.88L43.08,25.88L43.08,26.576L46.264,26.576L46.264,27.752L47,27.752L47,26.576L50.192,26.576L50.192,25.88L47,25.88L47,25.312L49.232,25.312L49.232,22.296L44.056,22.296ZM48.52,24.664L44.768,24.664L44.768,24.096L48.52,24.096L48.52,24.664ZM44.768,23.48L44.768,22.944L48.52,22.944L48.52,23.48L44.768,23.48ZM43.144,20.912L43.144,21.592L44.912,21.592L44.912,22.136L45.664,22.136L45.664,21.592L47.616,21.592L47.616,22.136L48.368,22.136L48.368,21.592L50.136,21.592L50.136,20.912L48.368,20.912L48.368,20.368L47.616,20.368L47.616,20.912L45.664,20.912L45.664,20.368L44.912,20.368L44.912,20.912L43.144,20.912Z" style="fill:white;fill-rule:nonzero;"/>
        <path d="M51.192,21.76L51.192,22.488L53.656,22.488C53.08,23.816 52.16,24.912 50.896,25.76L51.336,26.472C52.696,25.432 53.672,24.104 54.248,22.488L54.256,22.488L54.256,25.432L52.672,25.432L52.672,26.16L54.256,26.16L54.256,27.736L55.024,27.736L55.024,26.16L56.672,26.16L56.672,25.432L55.024,25.432L55.024,22.488L55.032,22.488C55.568,23.92 56.504,25.216 57.84,26.368L58.36,25.712C57.064,24.768 56.152,23.688 55.624,22.488L58.08,22.488L58.08,21.76L55.024,21.76L55.024,20.376L54.256,20.376L54.256,21.76L51.192,21.76Z" style="fill:white;fill-rule:nonzero;"/>
        <path d="M60.728,20.272C60.328,21.504 59.712,22.592 58.88,23.52L59.128,24.328C59.384,24.056 59.632,23.776 59.872,23.488L59.872,27.752L60.624,27.752L60.624,22.392C60.96,21.832 61.224,21.232 61.432,20.608L60.728,20.272ZM63.44,20.384L63.44,26.512L62.304,26.512L62.304,21.84L61.552,21.84L61.552,27.696L62.304,27.696L62.304,27.248L65.272,27.248L65.272,27.696L66.04,27.696L66.04,21.832L65.272,21.832L65.272,26.512L64.2,26.512L64.2,20.384L63.44,20.384Z" style="fill:white;fill-rule:nonzero;"/>
        <path d="M67.072,23.864L67.072,24.592L68.504,24.592C68.392,25.624 68.056,26.496 67.488,27.216L68.072,27.744C68.76,26.912 69.16,25.856 69.288,24.592L72.312,24.592L72.312,26.64C72.312,26.856 72.224,26.968 72.048,26.968C71.776,26.968 71.472,26.952 71.144,26.928L71.344,27.664L72.28,27.664C72.824,27.664 73.096,27.408 73.096,26.912L73.096,24.592L74.208,24.592L74.208,23.864L73.096,23.864L73.096,20.632L68.552,20.632L68.552,23.864L67.072,23.864ZM72.312,23.864L69.328,23.864L69.328,21.328L72.312,21.328L72.312,23.864ZM70.504,21.656L69.888,22.04C70.368,22.584 70.752,23.088 71.04,23.536L71.64,23.12C71.368,22.704 70.992,22.216 70.504,21.656Z" style="fill:white;fill-rule:nonzero;"/>
    </g>
    <g transform="matrix(0.0901946,0,0,0.0905929,5.80953,6.82215)">
        <path d="M179.906,242.127C164.133,249.701 146.449,253.947 127.777,253.947C61.411,253.947 7.53,200.303 7.53,134.229C7.53,68.154 61.411,14.51 127.777,14.51C194.144,14.51 248.025,68.154 248.025,134.229C248.025,140.188 247.586,146.046 246.74,151.773C240.514,149.222 235.179,147.372 231.256,146.166C225.189,144.301 212.662,141.241 200.517,140.511C182.728,139.441 168.077,142.689 156.079,150.49C153.318,151.287 158.465,143.399 163.43,137.849C167.229,133.603 169.169,132.272 170.427,130.885C175.812,126.144 183.842,117.939 187.486,108.576C198.331,78.82 181.859,64.936 168.18,60.179C161.535,57.328 152.906,56.925 145.721,58.679C135.404,61.197 128.354,67.936 124.004,78.97C123.141,81.159 116.421,92.071 102.286,102.921C91.085,111.519 69.387,126.531 59.853,153.151C58.052,158.18 56.044,170.245 59.184,176.104C57.112,172.239 61.649,153.112 79.232,135.521C85.797,128.952 93.486,122.407 103.288,116.56C108.812,113.265 114.319,111.037 118.658,109.241C122.069,107.83 124.768,106.879 126.324,106.246C128.83,105.619 134.199,104.324 136.032,104.252C139.976,104.097 143.199,105.27 144.051,106.913C145.249,109.225 144.3,111.808 142.38,114.564C142.853,113.885 141.378,115.562 141.378,115.562L141.511,115.569C138.842,117.857 132.223,123.856 126.677,131.529C125.967,132.51 108.898,156.716 117.99,183.423C124.49,202.519 143.018,211.115 142.714,210.367C142.714,210.367 135.611,195.708 137.034,180.096C138.142,167.951 146.094,157.645 147.392,157.476C147.786,157.424 144.776,162.779 143.717,165.459C137.726,180.721 142.075,196.409 144.051,202.051C146.085,207.857 148.196,212.043 150.733,216.022C156.135,224.494 162.132,230.569 167.439,234.651C171,237.389 175.148,239.85 179.906,242.127ZM133.693,82.297C133.164,81.211 133.526,79.722 134.027,78.97C134.634,78.062 135.092,77.44 137.034,76.974C140.406,76.167 141.911,78.646 142.046,79.636C142.249,81.125 141.852,81.735 141.378,82.297C140.774,83.011 139.437,83.803 137.369,83.814C136.78,83.817 134.471,83.892 133.693,82.297Z" style="fill:rgb(254,251,251);"/>
    </g>
    <g id="tw-cen" serif:id="tw cen" transform="matrix(0.131844,0,0,0.127468,-5.86494,3.44703)">
        <rect x="306" y="39.6" width="11.787" height="87.308" style="fill:white;fill-rule:nonzero;"/>
        <path d="M352.656,39.6L366.499,39.6C375.591,39.6 383.015,41.576 388.772,45.528C394.529,49.48 397.407,54.472 397.407,60.502C397.407,67.858 393.158,74.003 384.66,78.937C397.818,83.323 404.397,90.93 404.397,101.758C404.397,109.296 401.005,115.373 394.22,119.987C387.436,124.601 378.355,126.909 366.979,126.909L352.656,126.909L352.656,39.6ZM364.444,50.154L364.444,75.99C371.022,75.899 376.06,74.643 379.555,72.221C383.05,69.8 384.797,66.465 384.797,62.216C384.797,58.515 383.221,55.557 380.069,53.341C376.916,51.125 372.69,50.017 367.39,50.017C366.248,50.017 365.266,50.063 364.444,50.154ZM364.444,86.338L364.444,116.218L365.403,116.218C375.683,116.218 382.696,114.573 386.442,111.284C390.188,107.994 392.061,104.636 392.061,101.21C392.061,96.687 389.96,93.077 385.757,90.382C381.553,87.686 375.797,86.338 368.487,86.338L364.444,86.338Z" style="fill:white;fill-rule:nonzero;"/>
        <rect x="435.017" y="39.6" width="11.787" height="87.308" style="fill:white;fill-rule:nonzero;"/>
        <path d="M533.276,49.263L523.613,57.007C521.055,54.357 518.736,52.381 516.657,51.079C514.579,49.777 511.575,49.126 507.646,49.126C503.351,49.126 499.867,50.097 497.195,52.039C494.522,53.981 493.186,56.482 493.186,59.543C493.186,62.193 494.351,64.534 496.681,66.567C499.011,68.6 502.985,70.816 508.605,73.215C514.224,75.613 518.599,77.852 521.729,79.931C524.858,82.01 527.428,84.305 529.438,86.818C531.449,89.331 532.945,91.981 533.927,94.768C534.909,97.555 535.4,100.501 535.4,103.608C535.4,110.872 532.762,117.063 527.485,122.18C522.208,127.297 515.824,129.856 508.331,129.856C501.021,129.856 494.568,127.857 488.971,123.859C483.374,119.861 479.068,113.865 476.053,105.87L487.977,102.512C492.317,112.334 498.965,117.246 507.92,117.246C512.26,117.246 515.869,115.944 518.747,113.34C521.626,110.735 523.065,107.446 523.065,103.471C523.065,101.095 522.311,98.708 520.803,96.31C519.296,93.911 517.423,91.935 515.184,90.382C512.945,88.828 509.37,87.058 504.459,85.071C499.547,83.083 495.778,81.256 493.151,79.588C490.524,77.921 488.251,75.933 486.332,73.626C484.414,71.319 483.009,69.023 482.118,66.739C481.227,64.454 480.781,62.01 480.781,59.406C480.781,53.147 483.294,47.813 488.32,43.404C493.345,38.995 499.445,36.791 506.618,36.791C511.369,36.791 516.189,37.819 521.078,39.875C525.966,41.931 530.032,45.06 533.276,49.263Z" style="fill:white;fill-rule:nonzero;"/>
        <path d="M558.139,118.891C558.139,116.378 559.041,114.208 560.846,112.38C562.651,110.553 564.832,109.639 567.391,109.639C569.903,109.639 572.074,110.553 573.901,112.38C575.729,114.208 576.642,116.378 576.642,118.891C576.642,121.449 575.74,123.631 573.935,125.435C572.131,127.24 569.949,128.142 567.391,128.142C564.832,128.142 562.651,127.251 560.846,125.47C559.041,123.688 558.139,121.495 558.139,118.891Z" style="fill:white;fill-rule:nonzero;"/>
        <path d="M607.879,39.6L619.666,39.6L619.666,115.121L648.106,115.121L648.106,126.909L607.879,126.909L607.879,39.6Z" style="fill:white;fill-rule:nonzero;"/>
        <path d="M662.182,82.706C662.182,70.097 666.934,59.292 676.437,50.291C685.94,41.291 697.362,36.791 710.702,36.791C723.723,36.791 734.939,41.325 744.351,50.394C753.762,59.463 758.468,70.234 758.468,82.706C758.468,95.91 753.82,107.069 744.522,116.184C735.225,125.298 723.815,129.856 710.291,129.856C696.95,129.856 685.597,125.264 676.231,116.081C666.865,106.898 662.182,95.773 662.182,82.706ZM745.79,83.255C745.79,73.615 742.318,65.494 735.373,58.892C728.429,52.29 719.885,48.989 709.743,48.989C700.103,48.989 691.845,52.347 684.969,59.063C678.093,65.779 674.655,73.843 674.655,83.255C674.655,92.803 678.184,100.878 685.243,107.48C692.302,114.082 700.948,117.383 711.182,117.383C720.594,117.383 728.714,114.013 735.545,107.275C742.375,100.536 745.79,92.529 745.79,83.255Z" style="fill:white;fill-rule:nonzero;"/>
        <path d="M770.968,39.738L783.578,39.738L810.922,101.484L838.471,39.738L851.218,39.738L810.785,129.856L770.968,39.738Z" style="fill:white;fill-rule:nonzero;"/>
        <path d="M869.063,39.6L917.446,39.6L917.446,51.525L880.851,51.525L880.851,73.318L917.446,73.318L917.446,85.105L880.851,85.105L880.851,115.121L917.446,115.121L917.446,126.909L869.063,126.909L869.063,39.6Z" style="fill:white;fill-rule:nonzero;"/>
    </g>
</svg>
