<svg clip-rule="evenodd" fill-rule="evenodd" stroke-linejoin="round" stroke-miterlimit="2" viewBox="0 0 109 40" xmlns="http://www.w3.org/2000/svg"><g fill-rule="nonzero"><path d="m99.322 0h-89.787c-.367 0-.73 0-1.095.002-.306.002-.61.008-.919.013-.671.007-1.341.066-2.004.175-.661.112-1.302.324-1.9.627-.598.306-1.145.705-1.62 1.18-.477.473-.874 1.02-1.177 1.62-.304.599-.515 1.241-.625 1.903-.111.662-.171 1.331-.179 2.002-.01.307-.01.615-.015.921v23.117c.005.31.006.61.015.921.008.671.068 1.34.18 2.002.11.663.32 1.306.624 1.905.303.597.701 1.142 1.178 1.612.473.477 1.019.875 1.618 1.179s1.239.516 1.901.63c.663.109 1.333.168 2.004.177.31.007.613.011.919.011.366.002.728.002 1.095.002h89.787c.36 0 .725 0 1.084-.002.305 0 .617-.004.922-.01.67-.009 1.339-.068 2-.178.664-.114 1.307-.327 1.908-.63.599-.304 1.145-.702 1.618-1.179.476-.473.874-1.017 1.181-1.614.302-.6.511-1.242.62-1.905.111-.662.173-1.331.185-2.002.004-.31.004-.61.004-.921.008-.364.008-.725.008-1.094v-20.928c0-.366 0-.73-.008-1.092 0-.306 0-.614-.004-.92-.012-.671-.074-1.341-.186-2.003-.109-.662-.317-1.304-.619-1.903-.617-1.203-1.596-2.182-2.799-2.8-.601-.303-1.244-.514-1.908-.627-.661-.11-1.33-.169-2-.176-.305-.005-.617-.011-.922-.013-.36-.002-.724-.002-1.084-.002z" fill="#a6a6a6" transform="matrix(1.00045 0 0 1 -.001 0)"/><path d="m8.445 39.125c-.305 0-.602-.004-.904-.01-.627-.008-1.252-.063-1.87-.164-.576-.099-1.134-.284-1.656-.548-.517-.262-.989-.605-1.397-1.016-.414-.407-.758-.879-1.02-1.397-.265-.521-.448-1.08-.544-1.657-.103-.62-.158-1.247-.166-1.875-.007-.21-.015-.913-.015-.913v-23.1s.009-.692.015-.895c.007-.627.063-1.253.165-1.872.096-.578.279-1.139.544-1.662.261-.518.603-.99 1.015-1.398.411-.412.884-.757 1.402-1.023.521-.263 1.078-.446 1.653-.544.62-.101 1.247-.156 1.876-.164l.902-.012h91.956l.913.013c.623.007 1.244.061 1.859.162.581.099 1.144.284 1.67.548 1.038.535 1.883 1.381 2.416 2.42.26.52.441 1.076.535 1.649.104.624.162 1.255.174 1.887.003.283.003.588.003.89.008.375.008.732.008 1.092v20.929c0 .363 0 .718-.008 1.075 0 .325 0 .623-.004.93-.012.621-.069 1.24-.171 1.853-.093.581-.275 1.144-.54 1.67-.264.513-.607.98-1.016 1.386-.409.414-.881.759-1.4 1.022-.525.266-1.087.451-1.667.55-.618.101-1.243.155-1.87.163-.292.007-.599.011-.897.011l-1.084.002z" transform="matrix(1.00045 0 0 1 -.0005 -.0015)"/><path d="m.202-.061c.013.001.026.003.039.005s.025.005.034.008c.001.006.002.014.003.023s0 .018-.001.025h-.24c.002-.017.007-.032.014-.045.008-.003.018-.007.031-.011.012-.003.023-.006.033-.008v-.355h-.073c.001-.009.003-.018.006-.028.003-.009.007-.018.012-.025.011-.004.023-.007.038-.01s.03-.004.045-.004c.017 0 .033.002.047.006v.073h.01c.005-.009.011-.018.02-.028.009-.009.02-.018.034-.027.013-.009.029-.016.047-.022.017-.005.037-.008.06-.008.02 0 .039.002.057.006.018.005.034.013.048.026.013.013.024.031.032.054.008.024.012.055.012.094 0 .083-.002.166-.006.251.013.001.028.003.043.005s.028.005.038.008c.002.008.003.018.003.031v.009c0 .002 0 .005-.001.008h-.237c.002-.017.007-.032.014-.045.007-.003.017-.007.028-.011.011-.003.02-.006.029-.008v-.234c0-.039-.007-.069-.02-.092-.014-.023-.039-.034-.074-.034-.013 0-.025.002-.038.006s-.024.009-.035.015c-.011.007-.021.014-.03.021-.009.008-.017.015-.022.022z" fill="#fff" transform="matrix(8 0 0 8 34.097998 30.55205)"/><path d="m.042-.419c.001-.009.003-.018.006-.028.003-.009.007-.018.012-.025.011-.004.025-.007.041-.01s.032-.004.049-.004c.019 0 .037.002.052.006v.418c.013.001.026.003.041.005.015.003.027.006.038.009.002.008.003.018.003.031v.009c0 .002 0 .005-.001.008h-.246c.002-.017.007-.032.014-.045.008-.003.018-.007.031-.011.012-.003.023-.006.033-.008v-.355zm.119-.288c.017 0 .03.005.041.014.01.01.015.024.015.041 0 .019-.005.034-.015.044-.011.01-.024.015-.041.015-.038 0-.057-.02-.057-.059 0-.017.005-.03.016-.04s.024-.015.041-.015z" fill="#fff" transform="matrix(8 0 0 8 38.937998 30.55205)"/><path d="m.328-.059c-.013.025-.032.043-.057.056-.025.014-.053.02-.083.02-.018 0-.036-.003-.053-.008s-.033-.014-.045-.025c-.013-.011-.024-.024-.032-.041s-.012-.037-.012-.06c0-.026.005-.049.015-.068s.024-.036.041-.049.036-.022.059-.029.046-.01.071-.01c.016 0 .032.001.049.004s.031.008.044.013v-.054c0-.075-.032-.112-.095-.112-.011 0-.023.002-.036.004-.013.003-.027.007-.04.011-.013.005-.026.01-.038.016-.013.006-.023.012-.032.018-.002-.005-.003-.01-.004-.016-.001-.005-.001-.011-.001-.018 0-.009.001-.019.003-.028s.005-.017.008-.022c.008-.005.019-.009.032-.014.013-.004.027-.007.042-.011.015-.003.03-.005.046-.007.015-.002.03-.003.043-.003.055 0 .094.014.12.043.025.029.037.078.037.147v.194c0 .01.001.02.004.03.002.011.005.018.009.022.007 0 .018-.001.033-.004.015-.002.027-.005.036-.008.001.003.001.006.001.011 0 .017-.003.032-.01.045-.011.007-.028.014-.049.02-.022.006-.042.009-.059.009-.01-.006-.019-.016-.027-.031-.009-.014-.014-.029-.015-.045zm-.002-.153c-.009-.003-.021-.005-.034-.006-.014-.001-.026-.002-.036-.002-.039 0-.069.008-.09.024s-.032.037-.032.064c0 .028.009.048.028.061.018.013.039.019.063.019.019 0 .039-.004.058-.013s.033-.021.043-.036z" fill="#fff" transform="matrix(8 0 0 8 41.377998 30.55205)"/><path d="m.277-.492c.034 0 .065.005.093.016s.052.026.072.047c.019.021.034.047.046.078.011.031.016.066.016.106 0 .084-.02.149-.061.194-.042.045-.097.068-.166.068-.073 0-.13-.022-.169-.066s-.059-.109-.059-.196c0-.038.006-.072.018-.103.011-.031.027-.057.048-.078.02-.021.044-.038.072-.049.027-.011.057-.017.09-.017zm-.137.247c0 .061.012.11.037.147.024.037.057.055.1.055.046 0 .08-.018.103-.054.022-.036.033-.085.033-.148 0-.027-.003-.052-.009-.075-.007-.022-.016-.042-.028-.059s-.026-.03-.043-.04c-.017-.009-.035-.014-.056-.014-.045 0-.079.017-.102.051-.023.035-.035.08-.035.137z" fill="#fff" transform="matrix(8 0 0 8 45.433998 30.55205)"/><path d="m.168-.055c.012.004.025.007.039.009.014.003.029.004.044.004.055 0 .095-.018.121-.054s.039-.083.039-.141c0-.061-.012-.107-.036-.139s-.055-.048-.093-.048c-.029 0-.053.006-.071.018-.018.013-.032.027-.043.042zm-.086-.609h-.072c.001-.009.002-.018.006-.028.003-.009.007-.018.012-.025.012-.004.026-.007.042-.01.015-.003.031-.004.048-.004.019 0 .036.002.051.006v.193c0 .019 0 .039-.001.058-.001.02-.003.04-.004.059h.01c.008-.021.024-.04.047-.055s.055-.022.095-.022c.022 0 .044.004.066.012s.042.021.06.04c.017.019.032.044.043.075s.017.069.017.114c0 .04-.006.076-.017.109-.012.033-.029.062-.05.085-.021.024-.047.042-.076.055-.03.013-.063.019-.099.019-.03 0-.06-.003-.091-.01s-.06-.017-.087-.03z" fill="#fff" transform="matrix(8 0 0 8 49.857998 30.55205)"/><path d="m.042-.419c.001-.009.003-.018.006-.028.003-.009.007-.018.012-.025.011-.004.025-.007.041-.01s.032-.004.049-.004c.019 0 .037.002.052.006v.418c.013.001.026.003.041.005.015.003.027.006.038.009.002.008.003.018.003.031v.009c0 .002 0 .005-.001.008h-.246c.002-.017.007-.032.014-.045.008-.003.018-.007.031-.011.012-.003.023-.006.033-.008v-.355zm.119-.288c.017 0 .03.005.041.014.01.01.015.024.015.041 0 .019-.005.034-.015.044-.011.01-.024.015-.041.015-.038 0-.057-.02-.057-.059 0-.017.005-.03.016-.04s.024-.015.041-.015z" fill="#fff" transform="matrix(8 0 0 8 54.265998 30.55205)"/><path d="m.129-.115c.018 0 .033.005.045.016.011.011.017.026.017.045 0 .021-.006.038-.017.049-.012.011-.027.017-.045.017-.043 0-.064-.022-.064-.066 0-.018.006-.033.018-.044s.027-.017.046-.017z" fill="#fff" transform="matrix(8 0 0 8 56.705998 30.55205)"/><path d="m.277-.492c.034 0 .065.005.093.016s.052.026.072.047c.019.021.034.047.046.078.011.031.016.066.016.106 0 .084-.02.149-.061.194-.042.045-.097.068-.166.068-.073 0-.13-.022-.169-.066s-.059-.109-.059-.196c0-.038.006-.072.018-.103.011-.031.027-.057.048-.078.02-.021.044-.038.072-.049.027-.011.057-.017.09-.017zm-.137.247c0 .061.012.11.037.147.024.037.057.055.1.055.046 0 .08-.018.103-.054.022-.036.033-.085.033-.148 0-.027-.003-.052-.009-.075-.007-.022-.016-.042-.028-.059s-.026-.03-.043-.04c-.017-.009-.035-.014-.056-.014-.045 0-.079.017-.102.051-.023.035-.035.08-.035.137z" fill="#fff" transform="matrix(8 0 0 8 59.505998 30.55205)"/><path d="m.2-.385c.007-.031.023-.056.046-.077.023-.02.051-.03.084-.03.006 0 .013.001.023.002.009.001.016.003.022.006.003.006.006.014.009.025s.004.022.004.035c0 .01-.001.019-.003.027-.009-.005-.02-.01-.032-.013s-.024-.004-.036-.004c-.023 0-.045.006-.065.019-.021.013-.037.034-.05.063v.268c.007.001.015.001.024.002s.019.003.028.004c.009.002.017.004.026.006.008.002.015.004.021.006.001.006.002.013.003.022s0 .017-.001.024h-.266c.002-.017.007-.032.014-.045.008-.003.018-.007.031-.011.012-.003.023-.006.033-.008v-.355h-.073c.001-.009.003-.018.006-.028.003-.009.007-.018.012-.025.011-.004.024-.007.039-.01s.029-.004.044-.004c.017 0 .033.002.047.006v.095z" fill="#fff" transform="matrix(8 0 0 8 63.929998 30.55205)"/><path d="m.124-.01c-.013-.004-.025-.012-.034-.025s-.014-.028-.014-.046c0-.017.005-.034.016-.049s.024-.027.039-.036v-.005c-.021-.013-.036-.031-.047-.055s-.017-.053-.017-.087c0-.028.005-.053.015-.075.009-.022.023-.041.04-.056s.038-.027.061-.036c.023-.008.049-.012.076-.012.023 0 .044.002.063.007s.035.012.05.021c.009-.005.023-.01.042-.014.018-.003.036-.005.055-.005.017 0 .031.002.043.006.002.007.004.017.006.029.001.012.002.022.002.031h-.099c.009.013.017.029.022.046s.007.037.007.058c0 .056-.017.1-.05.131-.034.031-.081.047-.141.047-.014 0-.028-.001-.042-.003-.015-.001-.028-.004-.039-.008-.005.005-.008.011-.011.018-.003.008-.004.016-.004.023 0 .019.013.032.038.037.025.006.061.009.107.009.029 0 .056.002.081.005.024.004.046.011.065.021s.033.023.044.041c.01.017.015.038.015.065 0 .03-.007.056-.02.079-.013.022-.031.041-.054.056s-.05.026-.08.033c-.031.007-.063.011-.097.011-.029 0-.058-.003-.085-.009s-.051-.015-.072-.028-.037-.028-.049-.047c-.013-.019-.019-.041-.019-.066 0-.014.003-.027.008-.039s.012-.023.021-.032c.008-.009.017-.017.028-.023.01-.006.02-.01.03-.013zm.05.017c-.019.009-.032.02-.04.035-.009.015-.013.031-.013.048s.005.033.014.046.021.024.036.033.031.015.05.02c.018.004.036.006.055.006.02 0 .039-.002.058-.006.018-.005.034-.011.048-.02s.025-.019.034-.032.013-.028.013-.045c0-.025-.01-.044-.031-.056-.021-.013-.058-.019-.11-.019-.018 0-.037-.001-.057-.002s-.039-.004-.057-.008zm-.019-.32c0 .038.009.068.028.091.018.023.043.034.076.034.035 0 .06-.011.077-.034s.025-.053.025-.091c0-.037-.009-.067-.027-.09s-.043-.035-.075-.035c-.036 0-.062.011-.079.032-.017.022-.025.053-.025.093z" fill="#fff" transform="matrix(8 0 0 8 67.137998 30.55205)"/><path d="m.379-.824c.055.01.087.019.098.027-.003.003-.006.007-.008.012-.016.018-.029.04-.039.066h.203c.083 0 .139-.001.168-.004-.005.029-.008.075-.008.137v.047c.003.055.005.096.008.125h-.117c-.019 0-.036-.001-.051-.004h-.399v.055h.571c.065 0 .114-.002.148-.004v.07c-.029-.002-.078-.005-.148-.008h-.571v.055h.481c.06 0 .12-.003.18-.008-.003.011-.006.026-.008.047-.008.073-.016.142-.024.207-.002.073-.066.112-.191.117-.008-.041-.02-.074-.035-.097.101.015.152 0 .152-.047.008-.094.012-.147.012-.16h-.461c-.044.002-.085.005-.121.007h-.063v-.054c0-.032.002-.069.004-.114v-.222c-.002-.016-.004-.031-.004-.047v-.102c.021.003.068.004.141.004h.058c.011-.036.019-.071.024-.105zm-.145.164v.066h.481v-.066zm.481.121h-.481v.062h.481zm-.063.367c.029.047.054.096.075.149l-.071.023c-.023-.06-.047-.109-.07-.148zm-.515.016c.054.015.083.024.086.027-.003.005-.007.011-.012.016-.01.01-.018.023-.023.039-.021.054-.043.107-.067.156-.036-.018-.065-.027-.086-.027.037-.042.07-.112.102-.211zm.355 0c.026.052.046.1.059.144l-.074.016c-.008-.037-.025-.083-.051-.141zm-.16.008c.018.046.034.1.047.16l-.078.011c-.008-.059-.02-.113-.035-.16z" fill="#fff" transform="matrix(12.67344 0 0 12.67344 33.354412036 18.662993742)"/><path d="m.648-.82c.066.015.098.026.098.031-.003.005-.006.009-.012.012-.01.01-.018.022-.023.035-.008.018-.017.04-.027.066h.164c.044 0 .073-.002.086-.008v.075c-.011 0-.039-.002-.086-.004-.021.07-.046.131-.075.183.05.037.112.06.188.071-.023.02-.044.049-.063.086-.072-.034-.13-.069-.171-.106-.05.047-.098.081-.145.102-.018-.029-.036-.051-.055-.067.047-.008.098-.034.153-.078-.021-.029-.043-.07-.067-.125-.005.008-.013.021-.023.039-.011.018-.017.03-.02.035l-.062-.035c.073-.083.12-.187.14-.312zm-.195.023c.005.005.011.009.016.012.039.018.057.028.054.031-.002.003-.006.005-.011.008-.011.003-.02.009-.028.019-.007.008-.022.025-.043.051-.013.016-.019.024-.019.024l-.063-.032c.039-.031.071-.069.094-.113zm-.312.012c.039.036.07.069.093.097l-.058.04c-.016-.021-.047-.053-.094-.094zm.64.168h-.121c.005.052.026.1.063.144.02-.036.04-.084.058-.144zm-.515.039h-.118v.164c.016-.016.036-.057.059-.125.018.005.038.01.059.016zm.277.301c0 .005-.003.009-.008.011-.005.011-.006.021-.004.032h.164s.002.001.004.004c.063 0 .104-.003.125-.008-.002.018-.005.054-.008.109v.09c.019.047-.028.074-.14.082-.011-.031-.025-.06-.043-.086.086.018.122.009.109-.027v-.106h-.215v.156c0 .055.003.098.008.129h-.086c0-.028.003-.071.008-.129v-.156h-.211v.098c0 .052.003.091.008.117h-.09c.003-.026.005-.065.008-.117v-.051c-.003-.055-.005-.091-.008-.109.018.002.063.004.133.004h.16c-.003-.024-.005-.043-.008-.059.008.003.016.004.024.004.047.003.07.006.07.012zm-.039-.137c0 .031.003.064.008.098h-.078c.002-.034.005-.067.007-.098v-.164h-.113v.058l.035-.019c.026.039.051.078.075.117l-.047.027c-.006-.007-.02-.031-.043-.07-.008-.01-.015-.021-.02-.031v.09c0 .049.001.086.004.109h-.074c0-.023.002-.06.008-.109v-.102c-.003.005-.007.009-.012.012-.008.008-.013.017-.016.027-.015.037-.03.067-.043.09-.018-.008-.034-.013-.047-.016 0 .04.003.069.008.09h-.078c.003-.021.005-.058.008-.113v-.133c-.003-.044-.005-.074-.008-.09.011 0 .039.002.086.004h.102v-.109c0-.013-.002-.025-.004-.035v-.028c.057-.002.087 0 .09.008 0 .005-.003.009-.008.012-.013.013-.018.027-.016.043v.109h.082c.047 0 .081-.001.102-.004-.003.021-.005.051-.008.09z" fill="#fff" transform="matrix(12.67344 0 0 12.67344 46.027852036 18.662993742)"/><path d="m.457-.801c.034.003.061.005.082.008.018.003.029.005.031.008 0 .005-.004.013-.011.023-.006.008-.008.016-.008.024-.003.021-.004.05-.004.09h.305c.033-.003.058-.006.074-.008v.09c-.06-.003-.117-.006-.172-.008h-.207v.14h.094c.075.003.127.002.156-.004.002.003.004.004.004.004-.047.123-.127.235-.238.336.117.065.242.091.375.078-.027.024-.051.059-.075.106-.159-.029-.282-.074-.371-.137-.101.06-.229.107-.383.141-.015-.029-.039-.06-.07-.094.143 0 .275-.031.395-.094-.06-.052-.123-.127-.188-.226l.051-.031c-.034.002-.074.005-.121.007v-.09c.018 0 .052.002.101.004h.184v-.14h-.199c-.068.002-.125.005-.172.008v-.09c.026.002.057.005.094.008h.277c0-.042-.001-.072-.004-.09zm-.125.446c.06.104.115.174.164.21.065-.049.125-.119.18-.21z" fill="#fff" transform="matrix(12.67344 0 0 12.67344 58.701292036 18.662993742)"/><path d="m.27-.813c.078.027.117.043.117.051 0 .003-.005.008-.016.016-.01.008-.018.014-.023.019-.011.016-.029.049-.055.098-.005.013-.009.022-.012.027v.52c0 .094.002.148.004.164.003.008.004.013.004.016h-.101v-.02c.002-.015.005-.069.007-.16v-.379c-.031.068-.061.121-.09.16l-.078-.062c.11-.11.19-.259.243-.45zm.433.024c.063.003.099.008.11.016 0 .002-.002.007-.004.015-.011.018-.015.038-.012.059v.125h.008c.075 0 .118-.002.129-.004.005-.003.009-.004.011-.004v.094h-.007c-.032-.003-.076-.005-.133-.008h-.008v.496c.023.052-.043.083-.199.094-.006-.031-.016-.063-.032-.094-.002-.005-.003-.009-.003-.012.106.013.156-.002.148-.047v-.437h-.231c-.046.003-.091.005-.132.008h-.008v-.094s.005.001.015.004c.021.002.063.004.125.004h.231v-.125c0-.029-.003-.056-.008-.082zm-.211.383c.037.039.077.104.121.195l-.082.047c-.036-.081-.077-.149-.121-.203z" fill="#fff" transform="matrix(12.67344 0 0 12.67344 71.374732036 18.662993742)"/></g><g transform="matrix(.0271141 0 0 .0271141 6.56245 8.13668)"><path d="m221.843 91.423c36.023-53.734 103.625-91.423 178.157-91.423s142.134 37.689 178.157 91.423c64.546 4.33 130.987 44.031 168.253 108.577s38.427 141.937 9.904 200c28.523 58.063 27.362 135.454-9.904 200s-103.707 104.247-168.253 108.577c-36.023 53.734-103.625 91.423-178.157 91.423s-142.134-37.689-178.157-91.423c-64.546-4.33-130.987-44.031-168.253-108.577s-38.427-141.937-9.904-200c-28.523-58.063-27.362-135.454 9.904-200s103.707-104.247 168.253-108.577z" fill="#fff"/><g fill="#2d5fc3" transform="matrix(.995106 .0843259 -.0843259 .995106 38.9507 2.7997)"><path d="m632.129 376.465c-20.594-1.311-35.286-8.739-50.286-22.434 42.172-.588 40.853-12.502 40.853-12.502s1.456-5.461-10.376-9.789c-5.232-1.913-10.467-4.902-15.013-7.3 4.14.196 63.86.17 68.701-23.569-34.723-1.761-74.01-3.05-103.153-13.191-10.756-3.742-24.964-7.855-32.995-17.079 9.251-.09 24.958-.887 38.143-5.412 14.58-5.004 28.612-11.623 35.657-25.395 4.028-7.875 3.446-15.844 3.446-15.844s-9.452 6.207-19.701 9.732c-23.112 7.951-48.08 7.691-57.737 7.483-10.407-.225-45.803-1.33-45.383-9.41.38-7.317 31.278-7.404 37.436-7.369 8.409.048 16.819.387 25.228.235-19.462-10.192-41.866-15.176-63.213-19.166-32.502-6.075-66.826-5.146-97.828 6.7-13.342 5.098-32.142 16.15-40.708 34.292-19.162 40.581 13.421 84.942 43.021 110.27 35.106 30.04 65.115 42.612 93.256 51.792 28.141 9.179 85.83 20.746 125.654-2.531 26.571-15.531 24.998-29.513 24.998-29.513z"/><path d="m567.142 533.516c-2.921-3.182-5.827.218-10.59 1.145-.697.135 2.16-3.475 1.235-6.528-1.214-4.006-4.224-4.57-7.74-4.181-6.635.733-17.051 7.842-24.203 7.857-9.765.02-29.405-6.591-32.809-8.983-3.535-2.484 5.689-.181 21.638-14.14 4.87-4.262 14.587-14.14 14.587-14.14s3.868 11.751 23.79 14.937 31.964-25.208 13.506-39.628c-8.364-6.535-20.969-5.216-19.898-6.434 3.254-3.699 4.988-20.681 4.461-20.856-2.016-.67-14.855.934-44.979-4.631-39.368-7.272-77.587-24.825-109.746-48.318-27.912-20.391-51.689-53.332-61.164-74.052-3.373-7.375-5.518-19.846-6.188-28.237-1.147-14.359 5.733-39.466 25.12-54.787 2.153-1.701-24.568-6.738-44.217-6.746-41.209-.017-60.708 13.304-62.311 11.913-27.571-23.932-42.242-69.521-50.702-66.085-8.962 3.639 1.337 105.138-.051 107.179-1.387 2.041-7.747 9.652-10.821 14.994-7.316 12.718-17.57 30.913-17.73 66.524-.162 36.09 12.559 108.988 146.46 156.123 52.892 18.619 96.721 19.674 96.721 19.674s20.4 6.471 31.77 8.914c11.856 2.547 35.864 11.261 35.864 11.261s26.837 14.647 40.209 9.064c5.062-2.113 1.163-6.547-3.88-7.625-2.455-.525 5.185-2.152 5.079-6.681-.131-5.602-11.176-.538-11.176-.538s1.026-7.634 3.443-6.88c16.78 5.233 26.64 11.545 46.69 12.704 3.199.185 9.06-.701 9.229-6.614.101-3.535-5.51-5.132-5.51-5.132-.193.324 9.011-5.519 3.913-11.073z"/><path d="m455.446 533.939c-3.472-.864 4.781-.929 8.659-1.899 1.654-.414 14.343 5.149 35.056 8.272 3.893.587-11.171 2.356-11.587 2.278-17.543-3.291-25.313-6.957-32.128-8.651z"/></g></g></svg>