<?xml version="1.0" encoding="UTF-8" standalone="no"?>
<!DOCTYPE svg PUBLIC "-//W3C//DTD SVG 1.1//EN" "http://www.w3.org/Graphics/SVG/1.1/DTD/svg11.dtd">
<svg width="100%" height="100%" viewBox="0 0 109 40" version="1.1" xmlns="http://www.w3.org/2000/svg" xmlns:xlink="http://www.w3.org/1999/xlink" xml:space="preserve" xmlns:serif="http://www.serif.com/" style="fill-rule:evenodd;clip-rule:evenodd;stroke-linejoin:round;stroke-miterlimit:1.41421;">
    <g>
        <path d="M99.322,0L9.535,0C9.168,0 8.805,0 8.44,0.002C8.134,0.004 7.83,0.01 7.521,0.015C6.85,0.022 6.18,0.081 5.517,0.19C4.856,0.302 4.215,0.514 3.617,0.817C3.019,1.123 2.472,1.522 1.997,1.997C1.52,2.47 1.123,3.017 0.82,3.617C0.516,4.216 0.305,4.858 0.195,5.52C0.084,6.182 0.024,6.851 0.016,7.522C0.006,7.829 0.006,8.137 0.001,8.443L0.001,31.56C0.006,31.87 0.007,32.17 0.016,32.481C0.024,33.152 0.084,33.821 0.196,34.483C0.306,35.146 0.516,35.789 0.82,36.388C1.123,36.985 1.521,37.53 1.998,38C2.471,38.477 3.017,38.875 3.616,39.179C4.215,39.483 4.855,39.695 5.517,39.809C6.18,39.918 6.85,39.977 7.521,39.986C7.831,39.993 8.134,39.997 8.44,39.997C8.806,39.999 9.168,39.999 9.535,39.999L99.322,39.999C99.682,39.999 100.047,39.999 100.406,39.997C100.711,39.997 101.023,39.993 101.328,39.987C101.998,39.978 102.667,39.919 103.328,39.809C103.992,39.695 104.635,39.482 105.236,39.179C105.835,38.875 106.381,38.477 106.854,38C107.33,37.527 107.728,36.983 108.035,36.386C108.337,35.786 108.546,35.144 108.655,34.481C108.766,33.819 108.828,33.15 108.84,32.479C108.844,32.169 108.844,31.869 108.844,31.558C108.852,31.194 108.852,30.833 108.852,30.464L108.852,9.536C108.852,9.17 108.852,8.806 108.844,8.444C108.844,8.138 108.844,7.83 108.84,7.524C108.828,6.853 108.766,6.183 108.654,5.521C108.545,4.859 108.337,4.217 108.035,3.618C107.418,2.415 106.439,1.436 105.236,0.818C104.635,0.515 103.992,0.304 103.328,0.191C102.667,0.081 101.998,0.022 101.328,0.015C101.023,0.01 100.711,0.004 100.406,0.002C100.046,0 99.682,0 99.322,0Z" style="fill:rgb(166,166,166);fill-rule:nonzero;"/>
        <g transform="matrix(1,0,0,1,7.10543e-15,-0.001)">
            <path d="M8.445,39.125C8.14,39.125 7.843,39.121 7.541,39.115C6.914,39.107 6.289,39.052 5.671,38.951C5.095,38.852 4.537,38.667 4.015,38.403C3.498,38.141 3.026,37.798 2.618,37.387C2.204,36.98 1.86,36.508 1.598,35.99C1.333,35.469 1.15,34.91 1.054,34.333C0.951,33.713 0.896,33.086 0.888,32.458C0.881,32.248 0.873,31.545 0.873,31.545L0.873,8.445C0.873,8.445 0.882,7.753 0.888,7.55C0.895,6.923 0.951,6.297 1.053,5.678C1.149,5.1 1.332,4.539 1.597,4.016C1.858,3.498 2.2,3.026 2.612,2.618C3.023,2.206 3.496,1.861 4.014,1.595C4.535,1.332 5.092,1.149 5.667,1.051C6.287,0.95 6.914,0.895 7.543,0.887L8.445,0.875L100.401,0.875L101.314,0.888C101.937,0.895 102.558,0.949 103.173,1.05C103.754,1.149 104.317,1.334 104.843,1.598C105.881,2.133 106.726,2.979 107.259,4.018C107.519,4.538 107.7,5.094 107.794,5.667C107.898,6.291 107.956,6.922 107.968,7.554C107.971,7.837 107.971,8.142 107.971,8.444C107.979,8.819 107.979,9.176 107.979,9.536L107.979,30.465C107.979,30.828 107.979,31.183 107.971,31.54C107.971,31.865 107.971,32.163 107.967,32.47C107.955,33.091 107.898,33.71 107.796,34.323C107.703,34.904 107.521,35.467 107.256,35.993C106.992,36.506 106.649,36.973 106.24,37.379C105.831,37.793 105.359,38.138 104.84,38.401C104.315,38.667 103.753,38.852 103.173,38.951C102.555,39.052 101.93,39.106 101.303,39.114C101.011,39.121 100.704,39.125 100.406,39.125L99.322,39.127L8.445,39.125Z" style="fill-rule:nonzero;"/>
        </g>
        <g id="简体" transform="matrix(1.08022,0,0,1.08022,-4.3502,5.33241)">
            <path d="M43.999,3.682C43.874,4.151 43.592,5.12 43.155,6.589L44.795,6.542C44.389,8.511 43.842,10.057 43.155,11.182C43.874,11.776 44.639,12.167 45.452,12.354C45.108,12.636 44.827,12.964 44.608,13.339C43.889,12.932 43.202,12.448 42.545,11.886C41.764,12.511 40.983,13.057 40.202,13.526C39.92,13.182 39.577,12.917 39.17,12.729C40.202,12.479 41.139,11.979 41.983,11.229C41.452,10.386 41.014,9.276 40.67,7.901C40.545,9.932 39.78,11.682 38.374,13.151C38.03,12.839 37.686,12.62 37.342,12.495C38.342,11.807 38.999,10.901 39.311,9.776C39.686,8.651 39.858,6.901 39.827,4.526C39.483,4.526 39.17,4.542 38.889,4.573C38.764,4.604 38.686,4.604 38.655,4.573L38.655,3.636C39.342,3.667 39.92,3.682 40.389,3.682L41.655,3.682C42.155,3.682 42.905,3.651 43.905,3.589C43.967,3.62 43.999,3.651 43.999,3.682ZM42.733,4.526L40.811,4.526C40.78,4.62 40.749,5.245 40.717,6.401C40.686,7.057 40.67,7.495 40.67,7.714L41.702,7.573C41.733,7.636 41.733,7.714 41.702,7.807C41.67,7.995 41.686,8.167 41.749,8.323C41.905,9.073 42.17,9.807 42.545,10.526C42.889,9.964 43.264,8.901 43.67,7.339L41.936,7.386C42.217,6.542 42.483,5.589 42.733,4.526ZM36.217,2.932C36.967,2.995 37.389,3.073 37.483,3.167C37.483,3.229 37.452,3.323 37.389,3.448C37.327,3.667 37.295,3.87 37.295,4.057L37.295,5.37C37.795,5.37 38.233,5.339 38.608,5.276L38.608,6.261L38.327,6.261C38.17,6.261 37.811,6.245 37.249,6.214L37.249,7.995L37.952,7.62C38.295,7.995 38.655,8.495 39.03,9.12L38.233,9.636C37.889,9.011 37.561,8.526 37.249,8.182L37.249,11.557C37.217,12.151 37.249,12.776 37.342,13.432L36.17,13.432C36.202,12.776 36.233,12.151 36.264,11.557L36.264,7.761C35.983,8.729 35.53,9.761 34.905,10.854L34.202,10.011C34.952,9.229 35.624,7.964 36.217,6.214C35.842,6.245 35.53,6.261 35.28,6.261L34.67,6.261L34.67,5.323C34.827,5.354 35.061,5.37 35.374,5.37L36.311,5.37L36.311,4.245C36.28,3.901 36.249,3.464 36.217,2.932Z" style="fill:white;fill-rule:nonzero;stroke:white;stroke-width:0.23px;"/>
            <path d="M53.233,2.698C53.952,2.854 54.358,2.979 54.452,3.073C54.452,3.136 54.405,3.198 54.311,3.261C54.092,3.417 53.905,3.651 53.749,3.964L55.53,3.964C56.467,3.964 56.983,3.948 57.077,3.917C57.108,3.886 57.139,3.87 57.17,3.87L57.17,4.807L57.077,4.807C56.702,4.745 56.17,4.714 55.483,4.714L55.061,4.714C55.155,4.964 55.249,5.214 55.342,5.464C55.405,5.651 55.467,5.776 55.53,5.839L54.499,5.979C54.342,5.323 54.217,4.901 54.124,4.714L53.374,4.714C52.999,5.307 52.67,5.761 52.389,6.073L51.405,5.792C52.186,5.229 52.795,4.198 53.233,2.698ZM48.639,2.745C49.358,2.964 49.733,3.12 49.764,3.214C49.764,3.276 49.717,3.339 49.624,3.401C49.374,3.557 49.17,3.745 49.014,3.964L50.374,3.964C51.217,3.964 51.702,3.948 51.827,3.917C51.889,3.886 51.936,3.87 51.967,3.87L51.967,4.807L51.827,4.807C51.483,4.745 51.03,4.714 50.467,4.714L50.28,4.714C50.405,5.026 50.545,5.401 50.702,5.839L49.717,5.886C49.655,5.479 49.53,5.089 49.342,4.714L48.545,4.714C48.483,4.807 48.436,4.87 48.405,4.901C48.124,5.307 47.842,5.651 47.561,5.932C47.467,6.026 47.358,6.136 47.233,6.261L46.249,5.792C47.311,5.042 48.108,4.026 48.639,2.745ZM49.202,6.026C49.545,6.526 49.842,7.026 50.092,7.526L49.202,7.901C48.983,7.432 48.686,6.917 48.311,6.354L49.202,6.026ZM56.42,6.307C56.327,6.557 56.295,6.979 56.327,7.573L56.327,12.448C56.545,13.229 55.842,13.636 54.217,13.667C54.124,13.136 53.983,12.729 53.795,12.448C54.858,12.729 55.358,12.589 55.295,12.026L55.295,7.151L52.108,7.151C51.483,7.151 50.952,7.182 50.514,7.245L50.42,7.245L50.42,6.214C50.42,6.214 50.467,6.229 50.561,6.261C50.686,6.292 51.202,6.307 52.108,6.307L56.092,6.307C56.186,6.276 56.249,6.261 56.28,6.261C56.374,6.229 56.42,6.245 56.42,6.307ZM47.42,7.386C48.139,7.417 48.545,7.495 48.639,7.62C48.639,7.651 48.608,7.714 48.545,7.807C48.42,8.026 48.374,8.307 48.405,8.651L48.405,11.792C48.405,12.823 48.42,13.386 48.452,13.479C48.483,13.511 48.499,13.542 48.499,13.573L47.374,13.573C47.405,13.292 47.436,12.714 47.467,11.839L47.467,8.604C47.467,8.292 47.452,8.026 47.42,7.807L47.42,7.386ZM53.889,9.12L53.889,10.761C53.889,11.417 53.92,11.87 53.983,12.12C53.858,12.089 53.452,12.057 52.764,12.026L50.842,12.026C50.186,12.057 49.795,12.089 49.67,12.12C49.702,11.87 49.733,11.495 49.764,10.995L49.764,9.214C49.764,8.62 49.733,8.198 49.67,7.948C49.889,8.042 50.311,8.073 50.936,8.042L52.764,8.042C53.483,8.073 53.889,8.057 53.983,7.995C53.92,8.151 53.889,8.526 53.889,9.12ZM50.655,8.745L50.655,9.729L52.952,9.729L52.952,8.745L50.655,8.745ZM50.702,10.339L50.702,11.323L52.952,11.323L52.952,10.339L50.702,10.339Z" style="fill:white;fill-rule:nonzero;stroke:white;stroke-width:0.23px;"/>
            <path d="M64.249,2.839C64.436,3.214 64.639,3.667 64.858,4.198L63.639,4.573C63.452,4.011 63.249,3.573 63.03,3.261L64.249,2.839ZM68.795,4.573L68.795,5.651L68.655,5.651C68.561,5.62 67.889,5.589 66.639,5.557L60.874,5.557C59.967,5.62 59.389,5.667 59.139,5.698L58.952,5.698L58.952,4.573C58.952,4.573 58.999,4.589 59.092,4.62C59.342,4.651 59.92,4.667 60.827,4.667L66.592,4.667C67.811,4.667 68.483,4.651 68.608,4.62C68.702,4.62 68.764,4.604 68.795,4.573ZM65.749,5.886C66.53,6.386 67.467,7.057 68.561,7.901L67.624,8.839C66.655,7.87 65.749,7.136 64.905,6.636L65.749,5.886ZM62.139,5.932C62.733,6.214 63.092,6.417 63.217,6.542C63.217,6.573 63.17,6.62 63.077,6.682C62.983,6.745 62.889,6.823 62.795,6.917C62.639,7.042 62.42,7.245 62.139,7.526C61.389,8.182 60.749,8.714 60.217,9.12C59.999,8.901 59.67,8.651 59.233,8.37C60.452,7.87 61.42,7.057 62.139,5.932ZM65.327,8.042C66.077,8.354 66.483,8.589 66.545,8.745C66.514,8.776 66.467,8.807 66.405,8.839C66.28,8.87 66.202,8.932 66.17,9.026C65.577,10.151 65.061,10.932 64.624,11.37C65.405,11.932 66.889,12.198 69.077,12.167C68.67,12.448 68.374,12.854 68.186,13.386C66.249,13.073 64.827,12.604 63.92,11.979C63.17,12.448 61.702,12.948 59.514,13.479C59.264,13.011 58.983,12.667 58.67,12.448C60.233,12.417 61.733,12.042 63.17,11.323C62.67,10.823 62.124,9.886 61.53,8.511L62.608,8.136C62.764,9.167 63.202,10.057 63.92,10.807C64.577,10.089 65.045,9.167 65.327,8.042Z" style="fill:white;fill-rule:nonzero;stroke:white;stroke-width:0.23px;"/>
            <path d="M73.295,4.057L73.295,4.901L78.499,4.901L78.499,4.057L73.295,4.057ZM78.499,5.745L73.295,5.745L73.295,6.589L78.499,6.589L78.499,5.745ZM79.624,3.073C79.53,3.354 79.499,4.089 79.53,5.276C79.53,6.214 79.561,6.948 79.624,7.479C79.624,7.479 79.139,7.464 78.17,7.432L75.077,7.432C74.827,7.745 74.545,8.057 74.233,8.37L78.686,8.37C79.499,8.401 80.124,8.354 80.561,8.229C80.467,8.636 80.389,9.323 80.327,10.292C80.202,11.761 80.045,12.573 79.858,12.729C79.545,13.042 78.795,13.292 77.608,13.479C77.545,12.948 77.342,12.557 76.999,12.307C78.092,12.432 78.764,12.307 79.014,11.932C79.233,11.464 79.358,10.542 79.389,9.167L78.17,9.167C77.358,11.354 75.499,12.886 72.592,13.761C72.499,13.636 72.405,13.511 72.311,13.386C72.124,13.136 71.936,12.948 71.749,12.823C74.436,12.417 76.264,11.198 77.233,9.167L75.92,9.167C74.92,10.448 73.483,11.464 71.608,12.214C71.42,11.901 71.17,11.604 70.858,11.323C72.483,11.073 73.811,10.354 74.842,9.167L73.249,9.167C72.436,9.761 71.764,10.167 71.233,10.386C70.983,10.011 70.702,9.745 70.389,9.589C71.733,9.276 72.936,8.573 73.999,7.479L73.108,7.479C72.764,7.511 72.467,7.526 72.217,7.526C72.249,7.307 72.28,7.011 72.311,6.636C72.311,6.261 72.327,5.87 72.358,5.464C72.327,4.964 72.311,4.511 72.311,4.104C72.28,3.667 72.249,3.339 72.217,3.12C72.749,3.151 73.311,3.167 73.905,3.167L77.983,3.167C78.67,3.229 79.217,3.198 79.624,3.073Z" style="fill:white;fill-rule:nonzero;stroke:white;stroke-width:0.23px;"/>
            <path d="M90.733,2.698C91.295,2.917 91.702,3.104 91.952,3.261C91.952,3.292 91.905,3.339 91.811,3.401C91.655,3.495 91.545,3.589 91.483,3.682C91.108,4.214 90.733,4.776 90.358,5.37L92.655,5.37C92.811,5.339 92.92,5.323 92.983,5.323C92.92,5.448 92.905,5.823 92.936,6.448L92.936,7.339C92.967,7.464 92.983,7.542 92.983,7.573L91.905,7.573L91.905,7.198C91.936,7.073 91.952,6.745 91.952,6.214L83.842,6.214C83.811,7.182 83.827,7.667 83.889,7.667L82.764,7.667C82.733,7.667 82.733,7.62 82.764,7.526C82.827,7.182 82.858,6.823 82.858,6.448C82.858,5.854 82.842,5.464 82.811,5.276C82.999,5.307 83.405,5.339 84.03,5.37L89.374,5.37C89.936,4.651 90.389,3.761 90.733,2.698ZM88.014,2.745C88.139,2.964 88.358,3.557 88.67,4.526L87.592,4.714C87.467,4.245 87.264,3.636 86.983,2.886L88.014,2.745ZM84.967,3.167C85.249,3.448 85.639,3.964 86.139,4.714L85.155,5.136C84.78,4.511 84.405,4.011 84.03,3.636L84.967,3.167ZM84.592,7.339C84.592,7.339 84.655,7.354 84.78,7.386C85.03,7.417 85.561,7.432 86.374,7.432L90.17,7.432C90.795,7.464 91.155,7.448 91.249,7.386L91.249,8.511C90.561,8.636 89.686,8.932 88.624,9.401L88.624,9.823L91.202,9.823C92.108,9.823 92.686,9.807 92.936,9.776C93.061,9.745 93.139,9.729 93.17,9.729L93.17,10.854L92.936,10.854C92.655,10.823 92.108,10.792 91.295,10.761L88.577,10.761L88.577,12.542C88.702,13.261 88.061,13.62 86.655,13.62C86.561,13.12 86.389,12.745 86.139,12.495C87.17,12.62 87.655,12.542 87.592,12.261L87.592,10.761L84.358,10.761C83.733,10.792 83.233,10.823 82.858,10.854L82.624,10.854L82.624,9.729C82.624,9.729 82.717,9.745 82.905,9.776C83.311,9.807 83.795,9.823 84.358,9.823L87.592,9.823L87.592,8.979C88.155,8.792 88.811,8.557 89.561,8.276L86.374,8.276C85.842,8.276 85.295,8.307 84.733,8.37L84.592,8.37L84.592,7.339Z" style="fill:white;fill-rule:nonzero;stroke:white;stroke-width:0.23px;"/>
        </g>
        <g transform="matrix(1,0,0,1,-0.541202,3.64015)">
            <g transform="matrix(8,0,0,8,34.6402,26.9119)">
                <path d="M0.346,-0.414C0.387,-0.414 0.419,-0.42 0.441,-0.431C0.477,-0.449 0.495,-0.481 0.495,-0.528C0.495,-0.575 0.476,-0.606 0.438,-0.623C0.417,-0.632 0.385,-0.636 0.342,-0.636L0.169,-0.636L0.169,-0.414L0.346,-0.414ZM0.378,-0.083C0.438,-0.083 0.48,-0.1 0.506,-0.135C0.522,-0.157 0.53,-0.183 0.53,-0.214C0.53,-0.266 0.507,-0.301 0.46,-0.32C0.435,-0.33 0.403,-0.335 0.362,-0.335L0.169,-0.335L0.169,-0.083L0.378,-0.083ZM0.074,-0.717L0.382,-0.717C0.466,-0.717 0.526,-0.692 0.561,-0.642C0.582,-0.612 0.592,-0.578 0.592,-0.54C0.592,-0.494 0.579,-0.457 0.554,-0.428C0.54,-0.413 0.521,-0.399 0.496,-0.386C0.533,-0.372 0.56,-0.356 0.579,-0.339C0.611,-0.308 0.627,-0.264 0.627,-0.209C0.627,-0.163 0.612,-0.121 0.583,-0.084C0.54,-0.028 0.471,-0 0.377,-0L0.074,-0L0.074,-0.717Z" style="fill:white;fill-rule:nonzero;"/>
            </g>
            <g transform="matrix(8,0,0,8,39.9761,26.9119)">
                <path d="M0.152,-0.523L0.152,-0.176C0.152,-0.149 0.157,-0.127 0.165,-0.11C0.181,-0.079 0.21,-0.063 0.252,-0.063C0.314,-0.063 0.355,-0.091 0.377,-0.146C0.389,-0.175 0.396,-0.215 0.396,-0.266L0.396,-0.523L0.483,-0.523L0.483,-0L0.4,-0L0.401,-0.077C0.39,-0.057 0.376,-0.041 0.359,-0.027C0.325,0 0.285,0.014 0.237,0.014C0.162,0.014 0.111,-0.011 0.084,-0.061C0.07,-0.087 0.063,-0.123 0.063,-0.167L0.063,-0.523L0.152,-0.523Z" style="fill:white;fill-rule:nonzero;"/>
            </g>
            <g transform="matrix(8,0,0,8,44.4254,26.9119)">
                <path d="M0.117,-0.164C0.119,-0.135 0.127,-0.112 0.139,-0.097C0.161,-0.068 0.199,-0.054 0.254,-0.054C0.286,-0.054 0.315,-0.061 0.34,-0.075C0.365,-0.09 0.377,-0.111 0.377,-0.141C0.377,-0.164 0.367,-0.181 0.347,-0.192C0.334,-0.2 0.309,-0.208 0.272,-0.217L0.202,-0.235C0.158,-0.246 0.125,-0.258 0.104,-0.272C0.066,-0.296 0.047,-0.329 0.047,-0.371C0.047,-0.42 0.065,-0.46 0.1,-0.491C0.136,-0.521 0.184,-0.537 0.244,-0.537C0.323,-0.537 0.38,-0.514 0.415,-0.467C0.436,-0.438 0.447,-0.406 0.446,-0.373L0.363,-0.373C0.362,-0.392 0.355,-0.41 0.342,-0.427C0.322,-0.45 0.287,-0.461 0.237,-0.461C0.204,-0.461 0.179,-0.455 0.162,-0.442C0.145,-0.43 0.136,-0.413 0.136,-0.392C0.136,-0.369 0.147,-0.351 0.17,-0.337C0.183,-0.329 0.202,-0.322 0.228,-0.316L0.286,-0.302C0.349,-0.286 0.391,-0.272 0.413,-0.257C0.447,-0.235 0.464,-0.2 0.464,-0.151C0.464,-0.105 0.446,-0.065 0.411,-0.031C0.376,0.003 0.322,0.02 0.25,0.02C0.172,0.02 0.117,0.002 0.084,-0.033C0.052,-0.068 0.035,-0.112 0.032,-0.164L0.117,-0.164Z" style="fill:white;fill-rule:nonzero;"/>
            </g>
            <g transform="matrix(8,0,0,8,48.4254,26.9119)">
                <path d="M0.064,-0.521L0.154,-0.521L0.154,-0L0.064,-0L0.064,-0.521ZM0.064,-0.717L0.154,-0.717L0.154,-0.618L0.064,-0.618L0.064,-0.717Z" style="fill:white;fill-rule:nonzero;"/>
            </g>
            <g transform="matrix(8,0,0,8,50.2027,26.9119)">
                <path d="M0.064,-0.523L0.148,-0.523L0.148,-0.449C0.173,-0.479 0.199,-0.501 0.227,-0.515C0.254,-0.528 0.285,-0.535 0.319,-0.535C0.393,-0.535 0.443,-0.509 0.469,-0.457C0.484,-0.429 0.491,-0.388 0.491,-0.335L0.491,-0L0.401,-0L0.401,-0.33C0.401,-0.361 0.397,-0.387 0.387,-0.407C0.372,-0.439 0.343,-0.456 0.302,-0.456C0.281,-0.456 0.264,-0.453 0.251,-0.449C0.227,-0.442 0.206,-0.428 0.188,-0.406C0.173,-0.389 0.163,-0.371 0.159,-0.353C0.155,-0.334 0.152,-0.308 0.152,-0.274L0.152,-0L0.064,-0L0.064,-0.523Z" style="fill:white;fill-rule:nonzero;"/>
            </g>
            <g transform="matrix(8,0,0,8,54.6519,26.9119)">
                <path d="M0.282,-0.535C0.319,-0.535 0.355,-0.526 0.39,-0.509C0.425,-0.491 0.451,-0.469 0.47,-0.441C0.487,-0.415 0.499,-0.384 0.505,-0.349C0.51,-0.325 0.513,-0.286 0.513,-0.233L0.129,-0.233C0.131,-0.18 0.144,-0.138 0.167,-0.106C0.19,-0.074 0.227,-0.058 0.276,-0.058C0.322,-0.058 0.358,-0.073 0.386,-0.103C0.401,-0.121 0.412,-0.141 0.419,-0.164L0.505,-0.164C0.503,-0.145 0.496,-0.123 0.483,-0.1C0.47,-0.076 0.455,-0.057 0.439,-0.042C0.413,-0.016 0.38,0.002 0.34,0.011C0.319,0.016 0.295,0.019 0.269,0.019C0.203,0.019 0.148,-0.005 0.103,-0.052C0.058,-0.1 0.035,-0.166 0.035,-0.251C0.035,-0.335 0.058,-0.404 0.104,-0.456C0.149,-0.508 0.209,-0.535 0.282,-0.535ZM0.422,-0.303C0.419,-0.341 0.41,-0.372 0.397,-0.395C0.373,-0.437 0.333,-0.458 0.277,-0.458C0.236,-0.458 0.203,-0.443 0.175,-0.414C0.148,-0.385 0.133,-0.348 0.132,-0.303L0.422,-0.303Z" style="fill:white;fill-rule:nonzero;"/>
            </g>
            <g transform="matrix(8,0,0,8,59.1011,26.9119)">
                <path d="M0.117,-0.164C0.119,-0.135 0.127,-0.112 0.139,-0.097C0.161,-0.068 0.199,-0.054 0.254,-0.054C0.286,-0.054 0.315,-0.061 0.34,-0.075C0.365,-0.09 0.377,-0.111 0.377,-0.141C0.377,-0.164 0.367,-0.181 0.347,-0.192C0.334,-0.2 0.309,-0.208 0.272,-0.217L0.202,-0.235C0.158,-0.246 0.125,-0.258 0.104,-0.272C0.066,-0.296 0.047,-0.329 0.047,-0.371C0.047,-0.42 0.065,-0.46 0.1,-0.491C0.136,-0.521 0.184,-0.537 0.244,-0.537C0.323,-0.537 0.38,-0.514 0.415,-0.467C0.436,-0.438 0.447,-0.406 0.446,-0.373L0.363,-0.373C0.362,-0.392 0.355,-0.41 0.342,-0.427C0.322,-0.45 0.287,-0.461 0.237,-0.461C0.204,-0.461 0.179,-0.455 0.162,-0.442C0.145,-0.43 0.136,-0.413 0.136,-0.392C0.136,-0.369 0.147,-0.351 0.17,-0.337C0.183,-0.329 0.202,-0.322 0.228,-0.316L0.286,-0.302C0.349,-0.286 0.391,-0.272 0.413,-0.257C0.447,-0.235 0.464,-0.2 0.464,-0.151C0.464,-0.105 0.446,-0.065 0.411,-0.031C0.376,0.003 0.322,0.02 0.25,0.02C0.172,0.02 0.117,0.002 0.084,-0.033C0.052,-0.068 0.035,-0.112 0.032,-0.164L0.117,-0.164Z" style="fill:white;fill-rule:nonzero;"/>
            </g>
            <g transform="matrix(8,0,0,8,63.1011,26.9119)">
                <path d="M0.117,-0.164C0.119,-0.135 0.127,-0.112 0.139,-0.097C0.161,-0.068 0.199,-0.054 0.254,-0.054C0.286,-0.054 0.315,-0.061 0.34,-0.075C0.365,-0.09 0.377,-0.111 0.377,-0.141C0.377,-0.164 0.367,-0.181 0.347,-0.192C0.334,-0.2 0.309,-0.208 0.272,-0.217L0.202,-0.235C0.158,-0.246 0.125,-0.258 0.104,-0.272C0.066,-0.296 0.047,-0.329 0.047,-0.371C0.047,-0.42 0.065,-0.46 0.1,-0.491C0.136,-0.521 0.184,-0.537 0.244,-0.537C0.323,-0.537 0.38,-0.514 0.415,-0.467C0.436,-0.438 0.447,-0.406 0.446,-0.373L0.363,-0.373C0.362,-0.392 0.355,-0.41 0.342,-0.427C0.322,-0.45 0.287,-0.461 0.237,-0.461C0.204,-0.461 0.179,-0.455 0.162,-0.442C0.145,-0.43 0.136,-0.413 0.136,-0.392C0.136,-0.369 0.147,-0.351 0.17,-0.337C0.183,-0.329 0.202,-0.322 0.228,-0.316L0.286,-0.302C0.349,-0.286 0.391,-0.272 0.413,-0.257C0.447,-0.235 0.464,-0.2 0.464,-0.151C0.464,-0.105 0.446,-0.065 0.411,-0.031C0.376,0.003 0.322,0.02 0.25,0.02C0.172,0.02 0.117,0.002 0.084,-0.033C0.052,-0.068 0.035,-0.112 0.032,-0.164L0.117,-0.164Z" style="fill:white;fill-rule:nonzero;"/>
            </g>
            <g transform="matrix(8,0,0,8,69.3238,26.9119)">
                <path d="M0.386,-0.736C0.454,-0.736 0.512,-0.723 0.561,-0.697C0.632,-0.659 0.676,-0.594 0.692,-0.5L0.596,-0.5C0.584,-0.552 0.56,-0.591 0.523,-0.615C0.486,-0.638 0.44,-0.65 0.384,-0.65C0.317,-0.65 0.261,-0.625 0.216,-0.576C0.171,-0.526 0.148,-0.452 0.148,-0.353C0.148,-0.268 0.167,-0.198 0.204,-0.145C0.242,-0.091 0.303,-0.064 0.387,-0.064C0.452,-0.064 0.506,-0.083 0.548,-0.121C0.591,-0.158 0.612,-0.219 0.613,-0.303L0.389,-0.303L0.389,-0.384L0.704,-0.384L0.704,-0L0.641,-0L0.618,-0.092C0.585,-0.056 0.556,-0.031 0.53,-0.017C0.488,0.007 0.433,0.019 0.368,0.019C0.283,0.019 0.21,-0.008 0.148,-0.063C0.082,-0.132 0.048,-0.227 0.048,-0.348C0.048,-0.468 0.081,-0.563 0.146,-0.634C0.208,-0.702 0.288,-0.736 0.386,-0.736Z" style="fill:white;fill-rule:nonzero;"/>
            </g>
            <g transform="matrix(8,0,0,8,75.5465,26.9119)">
                <path d="M0.152,-0.523L0.152,-0.176C0.152,-0.149 0.157,-0.127 0.165,-0.11C0.181,-0.079 0.21,-0.063 0.252,-0.063C0.314,-0.063 0.355,-0.091 0.377,-0.146C0.389,-0.175 0.396,-0.215 0.396,-0.266L0.396,-0.523L0.483,-0.523L0.483,-0L0.4,-0L0.401,-0.077C0.39,-0.057 0.376,-0.041 0.359,-0.027C0.325,0 0.285,0.014 0.237,0.014C0.162,0.014 0.111,-0.011 0.084,-0.061C0.07,-0.087 0.063,-0.123 0.063,-0.167L0.063,-0.523L0.152,-0.523Z" style="fill:white;fill-rule:nonzero;"/>
            </g>
            <g transform="matrix(8,0,0,8,79.9957,26.9119)">
                <path d="M0.064,-0.521L0.154,-0.521L0.154,-0L0.064,-0L0.064,-0.521ZM0.064,-0.717L0.154,-0.717L0.154,-0.618L0.064,-0.618L0.064,-0.717Z" style="fill:white;fill-rule:nonzero;"/>
            </g>
            <g transform="matrix(8,0,0,8,81.773,26.9119)">
                <path d="M0.12,-0.255C0.12,-0.199 0.132,-0.153 0.156,-0.115C0.18,-0.077 0.218,-0.058 0.27,-0.058C0.311,-0.058 0.344,-0.076 0.37,-0.111C0.397,-0.146 0.41,-0.196 0.41,-0.261C0.41,-0.327 0.396,-0.376 0.369,-0.408C0.342,-0.44 0.309,-0.456 0.269,-0.456C0.225,-0.456 0.189,-0.439 0.161,-0.405C0.134,-0.371 0.12,-0.321 0.12,-0.255ZM0.252,-0.532C0.292,-0.532 0.326,-0.524 0.353,-0.507C0.369,-0.497 0.386,-0.48 0.406,-0.456L0.406,-0.72L0.491,-0.72L0.491,-0L0.412,-0L0.412,-0.073C0.391,-0.041 0.367,-0.017 0.339,-0.003C0.311,0.011 0.279,0.019 0.243,0.019C0.184,0.019 0.134,-0.006 0.091,-0.055C0.049,-0.104 0.027,-0.169 0.027,-0.25C0.027,-0.327 0.047,-0.393 0.086,-0.448C0.125,-0.504 0.18,-0.532 0.252,-0.532Z" style="fill:white;fill-rule:nonzero;"/>
            </g>
            <g transform="matrix(8,0,0,8,86.2222,26.9119)">
                <path d="M0.282,-0.535C0.319,-0.535 0.355,-0.526 0.39,-0.509C0.425,-0.491 0.451,-0.469 0.47,-0.441C0.487,-0.415 0.499,-0.384 0.505,-0.349C0.51,-0.325 0.513,-0.286 0.513,-0.233L0.129,-0.233C0.131,-0.18 0.144,-0.138 0.167,-0.106C0.19,-0.074 0.227,-0.058 0.276,-0.058C0.322,-0.058 0.358,-0.073 0.386,-0.103C0.401,-0.121 0.412,-0.141 0.419,-0.164L0.505,-0.164C0.503,-0.145 0.496,-0.123 0.483,-0.1C0.47,-0.076 0.455,-0.057 0.439,-0.042C0.413,-0.016 0.38,0.002 0.34,0.011C0.319,0.016 0.295,0.019 0.269,0.019C0.203,0.019 0.148,-0.005 0.103,-0.052C0.058,-0.1 0.035,-0.166 0.035,-0.251C0.035,-0.335 0.058,-0.404 0.104,-0.456C0.149,-0.508 0.209,-0.535 0.282,-0.535ZM0.422,-0.303C0.419,-0.341 0.41,-0.372 0.397,-0.395C0.373,-0.437 0.333,-0.458 0.277,-0.458C0.236,-0.458 0.203,-0.443 0.175,-0.414C0.148,-0.385 0.133,-0.348 0.132,-0.303L0.422,-0.303Z" style="fill:white;fill-rule:nonzero;"/>
            </g>
        </g>
    </g>
    <g transform="matrix(-0.273775,0,0,0.273775,28.1006,8.89065)">
        <path d="M74.75,30.31C67.28,22.42 54.07,25.56 50.97,35.97L27.62,35.97C27.34,35.04 26.97,34.14 26.51,33.29L32.58,27.22C36.89,29.55 42.1,29.48 46.35,27.03C55.76,21.6 55.76,8.02 46.36,2.58C36.94,-2.85 25.18,3.94 25.18,14.8C25.18,17.15 25.76,19.45 26.88,21.52L20.81,27.59C17.76,25.94 14.21,25.47 10.83,26.28C0.25,28.79 -3.63,41.81 3.84,49.7C11.3,57.59 24.52,54.45 27.62,44.04L50.97,44.04C51.25,44.97 51.62,45.87 52.08,46.72L46,52.8C39.41,49.24 31.19,51.44 27.27,57.82C21.58,67.07 28.04,79.02 38.9,79.33C49.76,79.63 56.88,68.07 51.71,58.51L57.78,52.44C60.83,54.09 64.38,54.56 67.76,53.75C78.33,51.22 82.21,38.21 74.75,30.31ZM39.29,8.76C41.45,8.76 43.45,9.91 44.53,11.79C46.86,15.82 43.95,20.86 39.29,20.86C37.13,20.86 35.13,19.71 34.05,17.84C31.73,13.8 34.64,8.76 39.29,8.76ZM14.09,46.06C11.93,46.06 9.93,44.91 8.85,43.04C6.52,39.01 9.43,33.97 14.09,33.97C16.25,33.97 18.25,35.12 19.33,36.99C21.66,41.02 18.75,46.06 14.09,46.06ZM36.27,70.45C34.4,69.37 33.25,67.37 33.25,65.21C33.25,60.55 38.29,57.64 42.32,59.97C44.19,61.05 45.34,63.05 45.34,65.21C45.34,69.87 40.3,72.78 36.27,70.45ZM61.47,45.25C59.6,44.17 58.44,42.17 58.45,40.01C58.45,35.35 63.49,32.44 67.52,34.77C69.39,35.85 70.54,37.85 70.54,40.01C70.54,44.67 65.5,47.58 61.47,45.25Z" style="fill:url(#_Linear1);fill-rule:nonzero;"/>
    </g>
    <defs>
        <linearGradient id="_Linear1" x1="0" y1="0" x2="1" y2="0" gradientUnits="userSpaceOnUse" gradientTransform="matrix(39.324,0,0,39.3332,39.2916,40.0025)"><stop offset="0" style="stop-color:rgb(251,146,55);stop-opacity:1"/><stop offset="0.56" style="stop-color:rgb(238,95,72);stop-opacity:1"/><stop offset="1" style="stop-color:rgb(233,73,79);stop-opacity:1"/></linearGradient>
    </defs>
</svg>
