<?xml version="1.0" encoding="UTF-8" standalone="no"?>
<!DOCTYPE svg PUBLIC "-//W3C//DTD SVG 1.1//EN" "http://www.w3.org/Graphics/SVG/1.1/DTD/svg11.dtd">
<svg width="100%" height="100%" viewBox="0 0 109 40" version="1.1" xmlns="http://www.w3.org/2000/svg" xmlns:xlink="http://www.w3.org/1999/xlink" xml:space="preserve" xmlns:serif="http://www.serif.com/" style="fill-rule:evenodd;clip-rule:evenodd;stroke-linejoin:round;stroke-miterlimit:1.41421;">
    <path d="M99.322,0L9.535,0C9.168,0 8.805,0 8.44,0.002C8.134,0.004 7.83,0.01 7.521,0.015C6.85,0.022 6.18,0.081 5.517,0.19C4.856,0.302 4.215,0.514 3.617,0.817C3.019,1.123 2.472,1.522 1.997,1.997C1.52,2.47 1.123,3.017 0.82,3.617C0.516,4.216 0.305,4.858 0.195,5.52C0.084,6.182 0.024,6.851 0.016,7.522C0.006,7.829 0.006,8.137 0.001,8.443L0.001,31.56C0.006,31.87 0.007,32.17 0.016,32.481C0.024,33.152 0.084,33.821 0.196,34.483C0.306,35.146 0.516,35.789 0.82,36.388C1.123,36.985 1.521,37.53 1.998,38C2.471,38.477 3.017,38.875 3.616,39.179C4.215,39.483 4.855,39.695 5.517,39.809C6.18,39.918 6.85,39.977 7.521,39.986C7.831,39.993 8.134,39.997 8.44,39.997C8.806,39.999 9.168,39.999 9.535,39.999L99.322,39.999C99.682,39.999 100.047,39.999 100.406,39.997C100.711,39.997 101.023,39.993 101.328,39.987C101.998,39.978 102.667,39.919 103.328,39.809C103.992,39.695 104.635,39.482 105.236,39.179C105.835,38.875 106.381,38.477 106.854,38C107.33,37.527 107.728,36.983 108.035,36.386C108.337,35.786 108.546,35.144 108.655,34.481C108.766,33.819 108.828,33.15 108.84,32.479C108.844,32.169 108.844,31.869 108.844,31.558C108.852,31.194 108.852,30.833 108.852,30.464L108.852,9.536C108.852,9.17 108.852,8.806 108.844,8.444C108.844,8.138 108.844,7.83 108.84,7.524C108.828,6.853 108.766,6.183 108.654,5.521C108.545,4.859 108.337,4.217 108.035,3.618C107.418,2.415 106.439,1.436 105.236,0.818C104.635,0.515 103.992,0.304 103.328,0.191C102.667,0.081 101.998,0.022 101.328,0.015C101.023,0.01 100.711,0.004 100.406,0.002C100.046,0 99.682,0 99.322,0Z" style="fill:rgb(166,166,166);fill-rule:nonzero;"/>
    <g transform="matrix(1,0,0,1,7.10543e-15,-0.001)">
        <path d="M8.445,39.125C8.14,39.125 7.843,39.121 7.541,39.115C6.914,39.107 6.289,39.052 5.671,38.951C5.095,38.852 4.537,38.667 4.015,38.403C3.498,38.141 3.026,37.798 2.618,37.387C2.204,36.98 1.86,36.508 1.598,35.99C1.333,35.469 1.15,34.91 1.054,34.333C0.951,33.713 0.896,33.086 0.888,32.458C0.881,32.248 0.873,31.545 0.873,31.545L0.873,8.445C0.873,8.445 0.882,7.753 0.888,7.55C0.895,6.923 0.951,6.297 1.053,5.678C1.149,5.1 1.332,4.539 1.597,4.016C1.858,3.498 2.2,3.026 2.612,2.618C3.023,2.206 3.496,1.861 4.014,1.595C4.535,1.332 5.092,1.149 5.667,1.051C6.287,0.95 6.914,0.895 7.543,0.887L8.445,0.875L100.401,0.875L101.314,0.888C101.937,0.895 102.558,0.949 103.173,1.05C103.754,1.149 104.317,1.334 104.843,1.598C105.881,2.133 106.726,2.979 107.259,4.018C107.519,4.538 107.7,5.094 107.794,5.667C107.898,6.291 107.956,6.922 107.968,7.554C107.971,7.837 107.971,8.142 107.971,8.444C107.979,8.819 107.979,9.176 107.979,9.536L107.979,30.465C107.979,30.828 107.979,31.183 107.971,31.54C107.971,31.865 107.971,32.163 107.967,32.47C107.955,33.091 107.898,33.71 107.796,34.323C107.703,34.904 107.521,35.467 107.256,35.993C106.992,36.506 106.649,36.973 106.24,37.379C105.831,37.793 105.359,38.138 104.84,38.401C104.315,38.667 103.753,38.852 103.173,38.951C102.555,39.052 101.93,39.106 101.303,39.114C101.011,39.121 100.704,39.125 100.406,39.125L99.322,39.127L8.445,39.125Z" style="fill-rule:nonzero;"/>
    </g>
    <g transform="matrix(1.08022,0,0,1.08022,-4.3502,5.33241)">
        <g id="简体">
            <g>
                <path d="M43.811,2.792C43.842,2.886 43.889,2.964 43.952,3.026C44.389,3.62 44.592,3.932 44.561,3.964C44.53,4.026 44.42,4.042 44.233,4.011C43.92,3.948 43.67,3.932 43.483,3.964C42.452,4.12 39.827,4.276 35.608,4.432L35.092,3.354C36.436,3.511 37.92,3.542 39.545,3.448C41.452,3.292 42.874,3.073 43.811,2.792ZM42.499,4.245C42.655,4.339 42.811,4.417 42.967,4.479C43.436,4.636 43.655,4.729 43.624,4.761C43.624,4.823 43.577,4.87 43.483,4.901C43.327,4.995 43.217,5.089 43.155,5.182C42.905,5.401 42.717,5.62 42.592,5.839L44.045,5.839C44.327,5.839 44.639,5.807 44.983,5.745C44.92,5.839 44.905,6.136 44.936,6.636L44.936,7.057C44.936,7.495 44.967,7.745 45.03,7.807L43.905,7.807L43.905,7.432C43.905,7.339 43.92,7.229 43.952,7.104L43.952,6.636L35.795,6.636L35.795,7.011C35.795,7.292 35.811,7.557 35.842,7.807L34.764,7.807C34.733,7.839 34.717,7.854 34.717,7.854C34.78,7.854 34.827,7.573 34.858,7.011L34.858,6.636C34.858,6.417 34.842,6.182 34.811,5.932L34.811,5.745C35.061,5.807 35.358,5.839 35.702,5.839L41.514,5.839C41.889,5.339 42.217,4.807 42.499,4.245ZM40.061,4.479C40.249,4.761 40.42,5.089 40.577,5.464L39.592,5.698C39.374,5.323 39.186,4.995 39.03,4.714L40.061,4.479ZM38.936,6.823C39.686,6.979 40.077,7.089 40.108,7.151C40.108,7.214 40.061,7.261 39.967,7.292C39.78,7.417 39.624,7.589 39.499,7.807L42.405,7.807C43.092,7.807 43.561,7.792 43.811,7.761L43.811,8.651C43.811,8.651 43.358,8.636 42.452,8.604L39.124,8.604C39.03,8.698 38.905,8.854 38.749,9.073C38.592,9.323 38.483,9.479 38.42,9.542L42.124,9.542C42.717,9.542 43.155,9.526 43.436,9.495C43.624,9.464 43.717,9.448 43.717,9.448C42.936,10.604 42.077,11.464 41.139,12.026C42.17,12.307 43.499,12.417 45.124,12.354C44.811,12.667 44.608,13.042 44.514,13.479C42.827,13.323 41.42,12.995 40.295,12.495C39.327,12.87 38.014,13.229 36.358,13.573C36.202,13.229 35.952,12.901 35.608,12.589C36.952,12.495 38.249,12.292 39.499,11.979C38.811,11.479 38.264,10.886 37.858,10.198C37.108,10.979 36.233,11.62 35.233,12.12C35.014,11.776 34.733,11.526 34.389,11.37C35.983,10.807 37.217,9.886 38.092,8.604L37.202,8.604C36.358,8.636 35.936,8.651 35.936,8.651L35.936,7.761C36.217,7.792 36.639,7.807 37.202,7.807L38.514,7.807C38.608,7.682 38.749,7.354 38.936,6.823ZM38.842,10.245C38.874,10.307 38.936,10.386 39.03,10.479C39.561,11.104 39.999,11.479 40.342,11.604C40.811,11.354 41.358,10.901 41.983,10.245L38.842,10.245ZM36.499,4.807L37.53,4.526C37.717,4.807 37.889,5.136 38.045,5.511L37.061,5.792C36.999,5.667 36.842,5.417 36.592,5.042C36.561,4.948 36.53,4.87 36.499,4.807Z" style="fill:white;fill-rule:nonzero;stroke:white;stroke-width:0.23px;"/>
                <path d="M53.28,2.698C54.092,2.948 54.514,3.12 54.545,3.214C54.545,3.245 54.514,3.276 54.452,3.307C54.327,3.401 54.249,3.495 54.217,3.589C53.936,4.089 53.717,4.573 53.561,5.042L55.295,5.042C55.952,5.042 56.483,5.026 56.889,4.995C56.639,9.12 56.483,11.526 56.42,12.214C56.295,13.089 55.436,13.557 53.842,13.62C53.749,13.151 53.561,12.745 53.28,12.401C54.092,12.526 54.733,12.511 55.202,12.354C55.389,12.198 55.545,10.823 55.67,8.229C55.702,7.511 55.749,6.698 55.811,5.792L53.233,5.792C52.889,6.386 52.514,7.073 52.108,7.854C51.827,7.667 51.545,7.542 51.264,7.479L51.264,11.698C51.233,12.479 51.249,12.979 51.311,13.198L50.233,13.198L50.233,12.682C50.233,12.526 50.249,12.323 50.28,12.073L47.983,12.073C47.983,12.511 47.999,12.917 48.03,13.292L46.952,13.292L46.952,12.682C46.952,12.432 46.967,12.12 46.999,11.745L46.999,6.729C46.999,6.604 46.983,6.323 46.952,5.886L46.952,5.089C47.42,5.12 47.764,5.136 47.983,5.136L48.311,5.136C48.405,4.636 48.483,3.87 48.545,2.839C49.42,2.964 49.827,3.073 49.764,3.167C49.764,3.229 49.717,3.307 49.624,3.401C49.561,3.464 49.53,3.526 49.53,3.589C49.436,3.839 49.342,4.151 49.249,4.526C49.186,4.776 49.139,4.979 49.108,5.136L49.905,5.136C50.124,5.136 50.592,5.12 51.311,5.089C51.249,5.339 51.233,5.839 51.264,6.589L51.264,7.245C52.202,6.182 52.874,4.667 53.28,2.698ZM47.983,5.886L47.983,8.323L50.28,8.323L50.28,5.886L47.983,5.886ZM53.28,7.807C53.467,8.089 53.795,8.667 54.264,9.542C54.327,9.729 54.405,9.87 54.499,9.964L53.608,10.432C53.514,10.089 53.139,9.37 52.483,8.276L53.28,7.807ZM47.983,9.026L47.983,11.323L50.28,11.323L50.28,9.026L47.983,9.026Z" style="fill:white;fill-rule:nonzero;stroke:white;stroke-width:0.23px;"/>
                <path d="M62.233,3.073C62.67,3.729 62.858,4.057 62.795,4.057C62.764,4.12 62.639,4.136 62.42,4.104L62.045,4.104C61.92,4.136 61.624,4.198 61.155,4.292L61.155,6.026C61.78,6.057 62.233,6.042 62.514,5.979L62.514,6.87C62.295,6.839 61.842,6.823 61.155,6.823L61.155,8.136L61.67,7.807C62.045,8.214 62.374,8.62 62.655,9.026C62.717,8.62 62.764,8.167 62.795,7.667C62.827,7.229 62.842,6.901 62.842,6.682L63.92,6.776C63.795,8.214 63.608,9.386 63.358,10.292C63.014,10.198 62.67,10.167 62.327,10.198C62.483,9.854 62.592,9.495 62.655,9.12L61.858,9.542C61.608,9.011 61.374,8.604 61.155,8.323L61.155,13.526L60.217,13.526C60.249,13.276 60.264,12.729 60.264,11.886L60.264,8.511C59.952,9.417 59.53,10.307 58.999,11.182C58.905,10.776 58.717,10.448 58.436,10.198C59.311,9.042 59.92,7.917 60.264,6.823L59.842,6.823C59.217,6.823 58.827,6.839 58.67,6.87L58.67,6.026C58.858,6.089 59.249,6.104 59.842,6.073L60.264,6.073L60.264,4.432C59.983,4.526 59.545,4.604 58.952,4.667L58.577,3.776C60.108,3.651 61.327,3.417 62.233,3.073ZM66.92,3.073C67.045,3.104 67.155,3.136 67.249,3.167C67.874,3.292 68.17,3.37 68.139,3.401C68.139,3.495 68.092,3.589 67.999,3.682C67.936,3.714 67.905,3.745 67.905,3.776C67.842,3.901 67.764,4.307 67.67,4.995C67.514,5.964 67.405,6.557 67.342,6.776C66.999,8.839 66.28,10.401 65.186,11.464C65.186,11.495 65.17,11.526 65.139,11.557C65.139,11.964 65.249,12.182 65.467,12.214C66.03,12.276 66.499,12.245 66.874,12.12C67.124,12.026 67.28,11.542 67.342,10.667C67.749,11.011 68.108,11.214 68.42,11.276C68.139,12.276 67.842,12.823 67.53,12.917C66.655,13.104 65.827,13.12 65.045,12.964C64.545,12.776 64.311,12.464 64.342,12.026C63.811,12.401 63.28,12.745 62.749,13.057C62.499,12.651 62.217,12.417 61.905,12.354C62.78,12.042 63.577,11.62 64.295,11.089L64.295,5.557C64.983,5.62 65.358,5.698 65.42,5.792C65.42,5.854 65.389,5.917 65.327,5.979C65.264,6.136 65.233,6.276 65.233,6.401C65.17,6.62 65.139,7.104 65.139,7.854C65.108,8.729 65.092,9.573 65.092,10.386C66.092,9.042 66.702,6.604 66.92,3.073ZM64.67,3.167C65.264,3.604 65.827,4.104 66.358,4.667L65.608,5.417C65.014,4.698 64.452,4.167 63.92,3.823L64.67,3.167ZM68.374,6.589C68.655,7.276 68.999,8.245 69.405,9.495L68.327,9.776C68.108,8.62 67.811,7.636 67.436,6.823L68.374,6.589Z" style="fill:white;fill-rule:nonzero;stroke:white;stroke-width:0.23px;"/>
                <path d="M75.03,5.182C75.342,5.37 75.764,5.651 76.295,6.026C76.358,6.089 76.436,6.136 76.53,6.167L75.78,6.87C75.405,6.464 74.967,6.12 74.467,5.839L75.03,5.182ZM77.842,5.37C78.436,5.807 78.749,6.089 78.78,6.214C78.749,6.245 78.702,6.276 78.639,6.307C78.483,6.37 78.374,6.432 78.311,6.495C78.249,6.526 78.186,6.589 78.124,6.682C76.936,7.807 75.795,8.604 74.702,9.073C75.108,9.136 75.592,9.151 76.155,9.12C76.717,9.12 77.108,9.073 77.327,8.979C77.608,8.886 77.827,8.495 77.983,7.807C78.295,8.12 78.624,8.323 78.967,8.417C78.686,9.042 78.389,9.479 78.077,9.729C77.92,9.854 77.514,9.932 76.858,9.964C76.045,9.995 75.295,9.964 74.608,9.87C74.045,9.807 73.764,9.667 73.764,9.448C72.577,9.948 71.655,10.276 70.999,10.432C70.811,10.12 70.608,9.807 70.389,9.495C71.264,9.464 72.358,9.182 73.67,8.651L73.67,7.057C73.67,6.776 73.655,6.573 73.624,6.448C74.217,6.479 74.592,6.511 74.749,6.542C74.749,6.604 74.717,6.667 74.655,6.729C74.592,6.886 74.561,7.026 74.561,7.151C74.53,7.307 74.514,7.511 74.514,7.761L74.514,8.276C76.014,7.495 77.124,6.526 77.842,5.37ZM71.983,6.495L73.061,6.729C72.999,6.854 72.936,6.995 72.874,7.151C72.592,7.839 72.374,8.339 72.217,8.651C71.905,8.495 71.577,8.401 71.233,8.37C71.577,7.839 71.827,7.214 71.983,6.495ZM79.342,6.542C79.999,7.042 80.592,7.557 81.124,8.089L80.233,8.839C79.733,8.151 79.17,7.589 78.545,7.151L79.342,6.542ZM75.311,10.104C76.03,10.167 76.389,10.229 76.389,10.292C76.389,10.354 76.374,10.432 76.342,10.526C76.28,10.62 76.249,10.714 76.249,10.807L76.249,12.214L78.733,12.12C78.733,11.432 78.702,10.901 78.639,10.526C79.327,10.557 79.733,10.62 79.858,10.714C79.858,10.776 79.827,10.839 79.764,10.901C79.733,10.995 79.717,11.073 79.717,11.136L79.717,12.964C79.749,13.214 79.764,13.417 79.764,13.573L78.686,13.573L78.686,13.104C78.686,12.979 78.702,12.87 78.733,12.776C78.702,12.776 77.17,12.886 74.139,13.104C73.42,13.136 72.733,13.182 72.077,13.245C72.139,12.526 72.155,11.604 72.124,10.479C72.874,10.542 73.249,10.604 73.249,10.667C73.249,10.729 73.217,10.792 73.155,10.854C73.092,10.979 73.061,11.089 73.061,11.182L73.061,12.354L75.358,12.261C75.358,11.604 75.342,11.136 75.311,10.854L75.311,10.104ZM76.249,2.745C76.342,3.151 76.483,3.604 76.67,4.104L79.952,4.104C80.389,4.136 80.78,4.12 81.124,4.057C81.092,4.057 81.077,4.339 81.077,4.901L81.077,5.229C81.045,5.761 81.061,6.104 81.124,6.261L79.905,6.261C79.936,6.167 79.952,5.823 79.952,5.229L79.952,4.995L71.749,4.995L71.749,5.182C71.717,5.776 71.733,6.104 71.795,6.167L70.717,6.167L70.717,6.026C70.749,5.682 70.764,5.401 70.764,5.182L70.764,4.995C70.764,4.776 70.749,4.604 70.717,4.479L70.717,4.057C70.874,4.12 71.233,4.136 71.795,4.104L75.592,4.104C75.374,3.573 75.202,3.182 75.077,2.932L76.249,2.745Z" style="fill:white;fill-rule:nonzero;stroke:white;stroke-width:0.23px;"/>
            </g>
        </g>
    </g>
    <g transform="matrix(0.00777126,0,0,0.00777126,4.67686,11.5495)">
        <g id="Stroke-2" transform="matrix(1,0,0,1,232.794,-376.424)">
            <path d="M0.48,1364.48C0.48,2117.8 611.163,2728.48 1364.48,2728.48C2117.8,2728.48 2728.48,2117.8 2728.48,1364.48C2728.48,611.159 2117.8,0.48 1364.48,0.48C611.163,0.48 0.48,611.159 0.48,1364.48Z" style="fill:rgb(255,243,103);"/>
        </g>
        <g id="Stroke-8" transform="matrix(1,0,0,1,235.294,-378.924)">
            <path d="M519.48,1366.98C519.48,1831.96 896.996,2209.48 1361.98,2209.48C1826.96,2209.48 2204.48,1831.96 2204.48,1366.98C2204.48,901.996 1826.96,524.48 1361.98,524.48C896.996,524.48 519.48,901.996 519.48,1366.98Z" style="fill:rgb(255,170,82);"/>
        </g>
        <g id="Stroke-81" serif:id="Stroke-8" transform="matrix(1,0,0,1,232.294,-376.924)">
            <path d="M843.48,1364.98C843.48,1652.8 1077.16,1886.48 1364.98,1886.48C1652.8,1886.48 1886.48,1652.8 1886.48,1364.98C1886.48,1077.16 1652.8,843.48 1364.98,843.48C1077.16,843.48 843.48,1077.16 843.48,1364.98Z" style="fill:rgb(255,116,119);"/>
        </g>
        <g id="Stroke-82" serif:id="Stroke-8" transform="matrix(1,0,0,1,233.794,-377.424)">
            <path d="M1041.48,1365.48C1041.48,1543.19 1185.77,1687.48 1363.48,1687.48C1541.19,1687.48 1685.48,1543.19 1685.48,1365.48C1685.48,1187.77 1541.19,1043.48 1363.48,1043.48C1185.77,1043.48 1041.48,1187.77 1041.48,1365.48Z" style="fill:rgb(255,72,176);"/>
        </g>
        <g id="Stroke-83" serif:id="Stroke-8" transform="matrix(1,0,0,1,231.294,-377.924)">
            <path d="M1166.48,1365.98C1166.48,1476.09 1255.87,1565.48 1365.98,1565.48C1476.09,1565.48 1565.48,1476.09 1565.48,1365.98C1565.48,1255.87 1476.09,1166.48 1365.98,1166.48C1255.87,1166.48 1166.48,1255.87 1166.48,1365.98Z" style="fill:rgb(232,56,191);"/>
        </g>
        <g id="Stroke-84" serif:id="Stroke-8" transform="matrix(1,0,0,1,233.794,-377.424)">
            <path d="M1239.48,1365.48C1239.48,1433.92 1295.04,1489.48 1363.48,1489.48C1431.92,1489.48 1487.48,1433.92 1487.48,1365.48C1487.48,1297.04 1431.92,1241.48 1363.48,1241.48C1295.04,1241.48 1239.48,1297.04 1239.48,1365.48Z" style="fill:rgb(0,171,218);"/>
        </g>
        <g id="Stroke-85" serif:id="Stroke-8" transform="matrix(1,0,0,1,231.794,-377.424)">
            <path d="M1289.48,1365.48C1289.48,1407.43 1323.53,1441.48 1365.48,1441.48C1407.43,1441.48 1441.48,1407.43 1441.48,1365.48C1441.48,1323.53 1407.43,1289.48 1365.48,1289.48C1323.53,1289.48 1289.48,1323.53 1289.48,1365.48Z" style="fill:rgb(135,232,120);"/>
        </g>
    </g>
    <g transform="matrix(1,0,0,1,-0.541202,3.64015)">
        <g transform="matrix(8,0,0,8,34.6402,26.9119)">
            <path d="M0.336,0.254L0.336,0.013C0.329,0.014 0.324,0.014 0.322,0.013C0.239,0.014 0.172,-0.012 0.123,-0.064C0.074,-0.116 0.049,-0.184 0.049,-0.269C0.049,-0.38 0.085,-0.47 0.157,-0.54L0.268,-0.54C0.186,-0.465 0.146,-0.374 0.146,-0.268C0.146,-0.207 0.161,-0.158 0.193,-0.122C0.224,-0.085 0.267,-0.067 0.321,-0.067L0.336,-0.067L0.336,-0.403C0.336,-0.503 0.387,-0.553 0.487,-0.553C0.557,-0.553 0.613,-0.526 0.653,-0.471C0.692,-0.417 0.712,-0.348 0.712,-0.264C0.712,-0.183 0.687,-0.116 0.637,-0.064C0.587,-0.012 0.521,0.014 0.44,0.013C0.438,0.014 0.433,0.014 0.423,0.013L0.423,0.254L0.336,0.254ZM0.423,-0.067L0.44,-0.067C0.494,-0.067 0.536,-0.086 0.568,-0.123C0.6,-0.161 0.616,-0.209 0.616,-0.269C0.616,-0.325 0.605,-0.373 0.582,-0.413C0.56,-0.453 0.529,-0.473 0.489,-0.473C0.445,-0.473 0.423,-0.451 0.423,-0.405L0.423,-0.067Z" style="fill:white;fill-rule:nonzero;"/>
        </g>
        <g transform="matrix(8,0,0,8,43.1011,26.9119)">
            <path d="M0.621,-0.39L0.123,-0.39L0.123,-0.464L0.621,-0.464L0.621,-0.39ZM0.621,-0.165L0.123,-0.165L0.123,-0.238L0.621,-0.238L0.621,-0.165Z" style="fill:white;fill-rule:nonzero;"/>
        </g>
        <g transform="matrix(8,0,0,8,51.4019,26.9119)">
            <path d="M0.336,0.254L0.336,0.013C0.329,0.014 0.324,0.014 0.322,0.013C0.239,0.014 0.172,-0.012 0.123,-0.064C0.074,-0.116 0.049,-0.184 0.049,-0.269C0.049,-0.38 0.085,-0.47 0.157,-0.54L0.268,-0.54C0.186,-0.465 0.146,-0.374 0.146,-0.268C0.146,-0.207 0.161,-0.158 0.193,-0.122C0.224,-0.085 0.267,-0.067 0.321,-0.067L0.336,-0.067L0.336,-0.403C0.336,-0.503 0.387,-0.553 0.487,-0.553C0.557,-0.553 0.613,-0.526 0.653,-0.471C0.692,-0.417 0.712,-0.348 0.712,-0.264C0.712,-0.183 0.687,-0.116 0.637,-0.064C0.587,-0.012 0.521,0.014 0.44,0.013C0.438,0.014 0.433,0.014 0.423,0.013L0.423,0.254L0.336,0.254ZM0.423,-0.067L0.44,-0.067C0.494,-0.067 0.536,-0.086 0.568,-0.123C0.6,-0.161 0.616,-0.209 0.616,-0.269C0.616,-0.325 0.605,-0.373 0.582,-0.413C0.56,-0.453 0.529,-0.473 0.489,-0.473C0.445,-0.473 0.423,-0.451 0.423,-0.405L0.423,-0.067Z" style="fill:white;fill-rule:nonzero;"/>
        </g>
        <g transform="matrix(8,0,0,8,59.8629,26.9119)">
            <path d="M0.441,-0.252C0.383,-0.157 0.315,-0.109 0.239,-0.109C0.182,-0.109 0.135,-0.128 0.098,-0.166C0.061,-0.204 0.043,-0.253 0.043,-0.313C0.043,-0.369 0.062,-0.418 0.101,-0.459C0.139,-0.5 0.185,-0.52 0.239,-0.52C0.323,-0.52 0.39,-0.472 0.442,-0.377C0.5,-0.472 0.567,-0.52 0.643,-0.52C0.702,-0.52 0.75,-0.5 0.786,-0.462C0.823,-0.424 0.841,-0.375 0.841,-0.315C0.841,-0.259 0.822,-0.21 0.783,-0.169C0.744,-0.128 0.697,-0.108 0.643,-0.108C0.563,-0.108 0.496,-0.156 0.441,-0.252ZM0.405,-0.315C0.36,-0.405 0.305,-0.449 0.241,-0.449C0.204,-0.449 0.175,-0.437 0.152,-0.411C0.129,-0.386 0.118,-0.353 0.118,-0.313C0.118,-0.275 0.129,-0.243 0.153,-0.219C0.177,-0.194 0.206,-0.181 0.241,-0.181C0.302,-0.181 0.356,-0.226 0.405,-0.315ZM0.478,-0.314C0.523,-0.225 0.578,-0.18 0.642,-0.18C0.678,-0.18 0.708,-0.193 0.731,-0.218C0.753,-0.243 0.765,-0.275 0.765,-0.315C0.765,-0.353 0.753,-0.385 0.729,-0.41C0.706,-0.436 0.677,-0.449 0.642,-0.449C0.582,-0.449 0.527,-0.404 0.478,-0.314Z" style="fill:white;fill-rule:nonzero;"/>
        </g>
    </g>
</svg>
