<?xml version="1.0" encoding="UTF-8" standalone="no"?>
<!DOCTYPE svg PUBLIC "-//W3C//DTD SVG 1.1//EN" "http://www.w3.org/Graphics/SVG/1.1/DTD/svg11.dtd">
<svg width="100%" height="100%" viewBox="0 0 109 40" version="1.1" xmlns="http://www.w3.org/2000/svg" xmlns:xlink="http://www.w3.org/1999/xlink" xml:space="preserve" xmlns:serif="http://www.serif.com/" style="fill-rule:evenodd;clip-rule:evenodd;stroke-linejoin:round;stroke-miterlimit:1.41421;">
    <g>
        <path d="M99.322,0L9.535,0C9.168,0 8.805,0 8.44,0.002C8.134,0.004 7.83,0.01 7.521,0.015C6.85,0.022 6.18,0.081 5.517,0.19C4.856,0.302 4.215,0.514 3.617,0.817C3.019,1.123 2.472,1.522 1.997,1.997C1.52,2.47 1.123,3.017 0.82,3.617C0.516,4.216 0.305,4.858 0.195,5.52C0.084,6.182 0.024,6.851 0.016,7.522C0.006,7.829 0.006,8.137 0.001,8.443L0.001,31.56C0.006,31.87 0.007,32.17 0.016,32.481C0.024,33.152 0.084,33.821 0.196,34.483C0.306,35.146 0.516,35.789 0.82,36.388C1.123,36.985 1.521,37.53 1.998,38C2.471,38.477 3.017,38.875 3.616,39.179C4.215,39.483 4.855,39.695 5.517,39.809C6.18,39.918 6.85,39.977 7.521,39.986C7.831,39.993 8.134,39.997 8.44,39.997C8.806,39.999 9.168,39.999 9.535,39.999L99.322,39.999C99.682,39.999 100.047,39.999 100.406,39.997C100.711,39.997 101.023,39.993 101.328,39.987C101.998,39.978 102.667,39.919 103.328,39.809C103.992,39.695 104.635,39.482 105.236,39.179C105.835,38.875 106.381,38.477 106.854,38C107.33,37.527 107.728,36.983 108.035,36.386C108.337,35.786 108.546,35.144 108.655,34.481C108.766,33.819 108.828,33.15 108.84,32.479C108.844,32.169 108.844,31.869 108.844,31.558C108.852,31.194 108.852,30.833 108.852,30.464L108.852,9.536C108.852,9.17 108.852,8.806 108.844,8.444C108.844,8.138 108.844,7.83 108.84,7.524C108.828,6.853 108.766,6.183 108.654,5.521C108.545,4.859 108.337,4.217 108.035,3.618C107.418,2.415 106.439,1.436 105.236,0.818C104.635,0.515 103.992,0.304 103.328,0.191C102.667,0.081 101.998,0.022 101.328,0.015C101.023,0.01 100.711,0.004 100.406,0.002C100.046,0 99.682,0 99.322,0Z" style="fill:rgb(166,166,166);fill-rule:nonzero;"/>
        <g transform="matrix(1,0,0,1,7.10543e-15,-0.001)">
            <path d="M8.445,39.125C8.14,39.125 7.843,39.121 7.541,39.115C6.914,39.107 6.289,39.052 5.671,38.951C5.095,38.852 4.537,38.667 4.015,38.403C3.498,38.141 3.026,37.798 2.618,37.387C2.204,36.98 1.86,36.508 1.598,35.99C1.333,35.469 1.15,34.91 1.054,34.333C0.951,33.713 0.896,33.086 0.888,32.458C0.881,32.248 0.873,31.545 0.873,31.545L0.873,8.445C0.873,8.445 0.882,7.753 0.888,7.55C0.895,6.923 0.951,6.297 1.053,5.678C1.149,5.1 1.332,4.539 1.597,4.016C1.858,3.498 2.2,3.026 2.612,2.618C3.023,2.206 3.496,1.861 4.014,1.595C4.535,1.332 5.092,1.149 5.667,1.051C6.287,0.95 6.914,0.895 7.543,0.887L8.445,0.875L100.401,0.875L101.314,0.888C101.937,0.895 102.558,0.949 103.173,1.05C103.754,1.149 104.317,1.334 104.843,1.598C105.881,2.133 106.726,2.979 107.259,4.018C107.519,4.538 107.7,5.094 107.794,5.667C107.898,6.291 107.956,6.922 107.968,7.554C107.971,7.837 107.971,8.142 107.971,8.444C107.979,8.819 107.979,9.176 107.979,9.536L107.979,30.465C107.979,30.828 107.979,31.183 107.971,31.54C107.971,31.865 107.971,32.163 107.967,32.47C107.955,33.091 107.898,33.71 107.796,34.323C107.703,34.904 107.521,35.467 107.256,35.993C106.992,36.506 106.649,36.973 106.24,37.379C105.831,37.793 105.359,38.138 104.84,38.401C104.315,38.667 103.753,38.852 103.173,38.951C102.555,39.052 101.93,39.106 101.303,39.114C101.011,39.121 100.704,39.125 100.406,39.125L99.322,39.127L8.445,39.125Z" style="fill-rule:nonzero;"/>
        </g>
        <g transform="matrix(1.08022,0,0,1.08022,-4.3502,5.33241)">
            <g id="简体">
                <g>
                    <path d="M37.108,2.792L37.952,3.542C36.983,4.667 35.983,5.682 34.952,6.589C34.764,6.276 34.545,6.011 34.295,5.792C35.577,4.698 36.514,3.698 37.108,2.792ZM44.467,3.589L44.467,4.62L43.436,4.62C42.967,4.589 42.702,4.573 42.639,4.573L41.374,4.573C40.467,4.573 39.811,4.589 39.405,4.62L39.405,3.589C39.655,3.62 39.983,3.651 40.389,3.682L43.67,3.682C44.014,3.651 44.28,3.62 44.467,3.589ZM37.577,5.323C37.67,5.417 37.78,5.495 37.905,5.557C38.405,5.901 38.639,6.089 38.608,6.12C37.764,6.839 37.264,7.354 37.108,7.667L37.108,12.964C37.139,13.214 37.155,13.401 37.155,13.526L36.077,13.526C36.108,12.964 36.139,12.323 36.17,11.604L36.17,8.651C35.577,9.339 35.17,9.807 34.952,10.057C34.795,9.745 34.561,9.464 34.249,9.214C35.467,8.12 36.577,6.823 37.577,5.323ZM45.264,6.682L45.264,7.761C44.827,7.729 44.186,7.698 43.342,7.667L42.967,7.667L42.967,12.589C43.061,13.151 42.514,13.479 41.327,13.573C41.233,13.167 41.061,12.792 40.811,12.448C41.592,12.479 41.983,12.386 41.983,12.167L41.983,7.667L40.811,7.667C39.842,7.667 39.17,7.698 38.795,7.761L38.795,6.682C39.077,6.714 39.436,6.745 39.874,6.776L43.295,6.776C44.077,6.776 44.733,6.745 45.264,6.682Z" style="fill:white;fill-rule:nonzero;stroke:white;stroke-width:0.23px;"/>
                    <path d="M53.139,2.745C54.014,2.839 54.514,2.932 54.639,3.026C54.639,3.089 54.608,3.167 54.545,3.261C54.452,3.386 54.405,3.495 54.405,3.589C54.311,3.964 54.249,4.479 54.217,5.136L54.217,5.464L56.561,5.464C56.686,5.432 56.78,5.417 56.842,5.417C56.874,5.417 56.92,5.432 56.983,5.464C56.639,10.339 56.374,12.682 56.186,12.495C55.967,12.839 55.311,13.073 54.217,13.198C54.249,12.854 54.124,12.479 53.842,12.073C54.655,12.198 55.155,12.104 55.342,11.792C55.53,11.604 55.702,9.792 55.858,6.354L54.17,6.354C54.077,10.229 52.92,12.636 50.702,13.573C50.514,13.292 50.124,13.011 49.53,12.729C51.905,12.229 53.124,10.104 53.186,6.354L52.624,6.354C52.249,6.354 51.92,6.401 51.639,6.495L51.592,6.495L51.592,7.432L51.452,7.432C51.077,7.37 50.608,7.339 50.045,7.339L49.717,7.339C49.155,8.995 48.639,10.167 48.17,10.854L50.514,10.198C50.264,9.792 50.061,9.401 49.905,9.026L50.749,8.651C51.186,9.401 51.577,10.214 51.92,11.089L50.983,11.604C50.952,11.448 50.889,11.276 50.795,11.089L50.795,10.995C49.452,11.37 48.327,11.714 47.42,12.026C47.233,12.089 47.139,12.12 47.139,12.12L46.624,11.089C46.624,11.089 46.655,11.073 46.717,11.042C47.311,10.854 47.952,9.636 48.639,7.386L48.17,7.386C47.639,7.386 47.139,7.417 46.67,7.479L46.577,7.479L46.577,6.401C46.577,6.401 46.608,6.417 46.67,6.448C46.889,6.479 47.389,6.495 48.17,6.495L49.952,6.495C50.608,6.495 50.983,6.479 51.077,6.448C51.139,6.417 51.186,6.401 51.217,6.401L51.217,5.417C51.217,5.417 51.28,5.432 51.405,5.464C51.655,5.495 52.061,5.511 52.624,5.511L53.233,5.511C53.233,4.698 53.217,4.104 53.186,3.729C53.186,3.292 53.17,2.964 53.139,2.745ZM47.092,3.87C47.092,3.87 47.124,3.886 47.186,3.917C47.374,3.948 47.889,3.964 48.733,3.964L49.67,3.964C50.514,3.964 51.03,3.948 51.217,3.917C51.28,3.886 51.327,3.87 51.358,3.87L51.358,4.948L51.217,4.948C50.874,4.886 50.374,4.854 49.717,4.854L48.686,4.854C48.155,4.886 47.67,4.917 47.233,4.948L47.092,4.948L47.092,3.87Z" style="fill:white;fill-rule:nonzero;stroke:white;stroke-width:0.23px;"/>
                    <path d="M60.03,2.932C60.624,3.807 61.014,4.417 61.202,4.761L60.264,5.276C59.889,4.464 59.483,3.839 59.045,3.401L60.03,2.932ZM68.702,3.214C68.639,3.62 68.608,3.979 68.608,4.292L68.608,12.448C68.577,13.104 67.936,13.432 66.686,13.432C66.655,13.026 66.499,12.651 66.217,12.307C67.217,12.495 67.717,12.417 67.717,12.073L67.717,4.198L65.749,4.198L65.749,5.323L66.358,5.323C66.733,5.292 66.983,5.276 67.108,5.276L67.108,6.073C66.858,6.042 66.483,6.026 65.983,6.026L65.749,6.026L65.749,7.151L66.639,7.151C66.889,7.12 67.092,7.089 67.249,7.057L67.249,7.901C67.061,7.87 66.655,7.854 66.03,7.854L64.717,7.854C64.249,7.854 63.874,7.87 63.592,7.901L63.592,7.057C64.061,7.151 64.42,7.182 64.67,7.151L64.905,7.151L64.905,6.026L64.764,6.026C64.452,6.026 64.139,6.042 63.827,6.073L63.827,5.276C63.92,5.276 64.077,5.292 64.295,5.323C64.514,5.354 64.686,5.354 64.811,5.323L64.905,5.323L64.905,4.198L63.124,4.198L63.124,8.511C63.092,10.479 62.608,12.12 61.67,13.432C61.389,13.214 61.03,13.042 60.592,12.917C61.624,11.854 62.17,10.307 62.233,8.276L62.233,7.714C62.233,5.495 62.186,4.011 62.092,3.261C62.655,3.323 63.186,3.354 63.686,3.354L67.952,3.354C68.327,3.323 68.577,3.276 68.702,3.214ZM58.342,6.214C58.53,6.307 58.889,6.354 59.42,6.354C59.952,6.354 60.389,6.307 60.733,6.214C60.764,6.214 60.78,6.229 60.78,6.261C60.78,6.323 60.749,6.698 60.686,7.386L60.499,10.714C60.686,10.495 60.952,10.136 61.295,9.636L61.764,10.573C61.139,11.136 60.577,11.776 60.077,12.495L59.327,11.698C59.514,11.479 59.608,11.198 59.608,10.854L59.749,7.198C59.061,7.261 58.592,7.292 58.342,7.292L58.342,6.214ZM65.983,9.354L64.624,9.354L64.624,10.761L65.983,10.761L65.983,9.354ZM66.92,8.604C66.827,8.823 66.78,9.073 66.78,9.354L66.78,10.761C66.78,11.136 66.827,11.401 66.92,11.557C66.67,11.495 66.374,11.464 66.03,11.464L64.67,11.464C64.295,11.464 63.983,11.495 63.733,11.557C63.764,11.37 63.795,11.12 63.827,10.807L63.827,9.354C63.795,9.104 63.764,8.854 63.733,8.604C63.983,8.667 64.28,8.698 64.624,8.698L65.983,8.698C66.358,8.698 66.67,8.667 66.92,8.604Z" style="fill:white;fill-rule:nonzero;stroke:white;stroke-width:0.23px;"/>
                    <path d="M72.967,2.792C73.186,2.823 73.405,2.839 73.624,2.839C74.03,2.87 74.233,2.886 74.233,2.886C74.233,2.917 74.202,2.964 74.139,3.026C73.983,3.307 73.92,3.714 73.952,4.245L74.327,4.245C74.577,4.245 74.842,4.229 75.124,4.198L75.124,5.089L74.983,5.089C74.795,5.089 74.577,5.073 74.327,5.042L73.952,5.042L73.952,6.214L74.233,6.214C75.077,5.464 75.608,4.589 75.827,3.589C76.577,3.932 76.952,4.136 76.952,4.198C76.952,4.261 76.905,4.307 76.811,4.339C76.624,4.464 76.467,4.636 76.342,4.854C76.155,5.136 75.827,5.542 75.358,6.073C75.295,6.136 75.249,6.182 75.217,6.214C75.749,6.214 76.124,6.198 76.342,6.167L76.342,7.057L75.874,7.057C75.655,7.057 75.436,7.042 75.217,7.011L74.561,7.011C74.436,7.136 74.233,7.323 73.952,7.573C73.67,7.823 73.483,7.995 73.389,8.089L75.686,8.089C75.749,8.057 75.795,8.042 75.827,8.042L75.827,8.792L74.233,9.776L74.233,10.198C75.452,10.011 76.155,9.839 76.342,9.682L76.249,10.62C75.905,10.682 75.233,10.823 74.233,11.042L74.233,12.636C74.202,13.198 73.624,13.495 72.499,13.526C72.405,13.057 72.264,12.682 72.077,12.401C72.92,12.495 73.342,12.417 73.342,12.167L73.342,11.136C71.905,11.354 71.077,11.542 70.858,11.698L70.483,10.526C70.764,10.589 71.717,10.526 73.342,10.339L73.342,9.495L74.514,8.839L72.405,8.839C72.249,8.964 72.014,9.151 71.702,9.401C71.389,9.651 71.124,9.839 70.905,9.964C70.686,9.651 70.42,9.417 70.108,9.261C70.545,9.073 70.952,8.87 71.327,8.651C71.483,8.557 71.608,8.479 71.702,8.417L71.702,7.995C71.827,8.057 72.014,8.073 72.264,8.042C72.327,8.011 72.483,7.886 72.733,7.667C72.92,7.511 73.186,7.292 73.53,7.011L71.795,7.011C71.514,7.042 71.264,7.057 71.045,7.057L70.483,7.057L70.483,6.167C70.827,6.198 71.249,6.214 71.749,6.214L73.061,6.214L73.061,5.042L72.358,5.042C72.202,5.073 72.014,5.089 71.795,5.089L71.233,5.089L71.233,4.198C71.545,4.229 71.905,4.245 72.311,4.245L73.061,4.245C73.03,3.495 72.999,3.011 72.967,2.792ZM79.155,6.167L77.936,6.167C77.717,6.636 77.42,7.167 77.045,7.761L77.749,7.62C77.905,8.839 78.124,9.667 78.405,10.104C78.811,9.136 79.061,7.823 79.155,6.167ZM75.92,7.948C76.858,6.886 77.514,5.198 77.889,2.886C78.764,3.011 79.233,3.12 79.295,3.214C79.295,3.245 79.264,3.292 79.202,3.354C79.045,3.573 78.92,3.807 78.827,4.057C78.764,4.214 78.608,4.636 78.358,5.323L80.139,5.323C80.545,5.323 80.967,5.307 81.405,5.276L81.405,6.214C81.405,6.214 80.983,6.198 80.139,6.167C80.045,8.104 79.67,9.698 79.014,10.948C79.639,11.698 80.483,12.198 81.545,12.448C81.077,12.604 80.717,12.917 80.467,13.386C79.592,12.823 78.905,12.261 78.405,11.698C77.842,12.261 76.967,12.886 75.78,13.573C75.436,13.198 75.045,12.932 74.608,12.776C76.045,12.464 77.139,11.87 77.889,10.995C77.514,10.276 77.186,9.292 76.905,8.042L76.436,8.745C76.28,8.464 76.108,8.198 75.92,7.948Z" style="fill:white;fill-rule:nonzero;stroke:white;stroke-width:0.23px;"/>
                </g>
            </g>
        </g>
        <g id="feature-performance.svg" transform="matrix(0.453704,0,0,0.453704,17.3435,17.6526)">
            <g transform="matrix(1,0,0,1,-32,-32)">
                <path d="M15.037,18.037C19.535,13.54 25.639,11.007 32,11C32.012,11 32.024,11 32.036,11C45.183,11 56,21.818 56,34.964C56,38.536 55.202,42.063 53.663,45.287C53.167,46.332 52.109,47.001 50.952,47.001C49.306,47.001 47.952,45.646 47.952,44C47.952,43.555 48.051,43.115 48.242,42.713C49.399,40.29 50,37.639 50,34.954C50,25.08 41.874,16.954 32,16.954C22.125,16.954 14,25.08 14,34.954C14,34.97 14,34.985 14,35C13.996,37.668 14.591,40.303 15.74,42.71C15.996,43.162 16.131,43.672 16.131,44.191C16.131,45.797 14.843,47.133 13.238,47.191C11.97,47.235 10.805,46.471 10.34,45.29C8.798,42.079 7.998,38.562 8,35C8.007,28.639 10.539,22.535 15.037,18.037ZM42.177,29.035C42.565,28.949 42.972,29.021 43.307,29.234C43.997,29.679 44.2,30.613 43.757,31.304L36.367,42.917C38.315,44.924 38.568,48.06 36.967,50.354C36.535,50.993 35.986,51.542 35.347,51.974C34.355,52.645 33.184,53.004 31.986,53.004C28.694,53.004 25.986,50.295 25.986,47.004C25.986,43.712 28.694,41.004 31.986,41.004C32.618,41.004 33.246,41.104 33.847,41.3L41.237,29.693C41.451,29.358 41.789,29.121 42.177,29.035Z" style="fill:url(#_Radial1);"/>
            </g>
        </g>
        <g transform="matrix(1,0,0,1,-0.541202,3.64015)">
            <g transform="matrix(8,0,0,8,34.6402,26.9119)">
                <path d="M0.692,-0L0.584,-0L0.507,-0.207L0.192,-0.207L0.119,-0L0.011,-0L0.299,-0.756L0.404,-0.756L0.692,-0ZM0.477,-0.292L0.362,-0.607C0.359,-0.617 0.355,-0.635 0.351,-0.66L0.348,-0.66C0.345,-0.637 0.34,-0.619 0.336,-0.607L0.223,-0.292L0.477,-0.292Z" style="fill:white;fill-rule:nonzero;"/>
            </g>
            <g transform="matrix(8,0,0,8,40.1558,26.9119)">
                <path d="M0.615,-0.031C0.56,-0.002 0.49,0.013 0.406,0.013C0.297,0.013 0.211,-0.022 0.146,-0.091C0.081,-0.159 0.049,-0.25 0.049,-0.364C0.049,-0.486 0.085,-0.583 0.158,-0.658C0.231,-0.732 0.324,-0.769 0.436,-0.769C0.508,-0.769 0.568,-0.759 0.615,-0.738L0.615,-0.636C0.561,-0.666 0.502,-0.681 0.437,-0.681C0.353,-0.681 0.284,-0.653 0.231,-0.597C0.178,-0.541 0.151,-0.465 0.151,-0.37C0.151,-0.279 0.176,-0.207 0.226,-0.154C0.275,-0.101 0.34,-0.074 0.42,-0.074C0.495,-0.074 0.56,-0.091 0.615,-0.125L0.615,-0.031Z" style="fill:white;fill-rule:nonzero;"/>
            </g>
            <g transform="matrix(8,0,0,8,45.5074,26.9119)">
                <path d="M0.555,-0.669L0.336,-0.669L0.336,-0L0.238,-0L0.238,-0.669L0.021,-0.669L0.021,-0.756L0.555,-0.756L0.555,-0.669Z" style="fill:white;fill-rule:nonzero;"/>
            </g>
            <g transform="matrix(8,0,0,8,52.4605,26.9119)">
                <path d="M0.669,-0.052C0.594,-0.009 0.509,0.013 0.414,0.013C0.304,0.013 0.216,-0.022 0.149,-0.091C0.082,-0.16 0.049,-0.253 0.049,-0.368C0.049,-0.485 0.086,-0.581 0.16,-0.656C0.234,-0.731 0.328,-0.769 0.444,-0.769C0.526,-0.769 0.595,-0.756 0.651,-0.73L0.651,-0.625C0.591,-0.663 0.519,-0.682 0.435,-0.682C0.353,-0.682 0.285,-0.653 0.231,-0.597C0.178,-0.541 0.151,-0.467 0.151,-0.375C0.151,-0.28 0.176,-0.206 0.225,-0.153C0.274,-0.101 0.341,-0.074 0.424,-0.074C0.482,-0.074 0.531,-0.085 0.571,-0.107L0.571,-0.312L0.407,-0.312L0.407,-0.398L0.669,-0.398L0.669,-0.052Z" style="fill:white;fill-rule:nonzero;"/>
            </g>
            <g transform="matrix(8,0,0,8,58.4097,26.9119)">
                <path d="M0.531,-0L0.435,-0L0.435,-0.085L0.433,-0.085C0.397,-0.02 0.341,0.013 0.267,0.013C0.139,0.013 0.075,-0.064 0.075,-0.217L0.075,-0.54L0.169,-0.54L0.169,-0.231C0.169,-0.121 0.211,-0.066 0.295,-0.066C0.337,-0.066 0.371,-0.082 0.396,-0.113C0.422,-0.143 0.435,-0.182 0.435,-0.229L0.435,-0.54L0.531,-0.54L0.531,-0Z" style="fill:white;fill-rule:nonzero;"/>
            </g>
            <g transform="matrix(8,0,0,8,63.3394,26.9119)">
                <path d="M0.074,-0.73C0.074,-0.747 0.08,-0.762 0.091,-0.773C0.103,-0.785 0.117,-0.791 0.134,-0.791C0.151,-0.791 0.166,-0.785 0.177,-0.773C0.189,-0.762 0.195,-0.748 0.195,-0.73C0.195,-0.714 0.189,-0.699 0.177,-0.688C0.166,-0.677 0.151,-0.671 0.134,-0.671C0.117,-0.671 0.102,-0.677 0.091,-0.688C0.079,-0.699 0.074,-0.714 0.074,-0.73ZM0.085,-0L0.085,-0.54L0.181,-0.54L0.181,-0L0.085,-0Z" style="fill:white;fill-rule:nonzero;"/>
            </g>
            <g transform="matrix(8,0,0,8,65.4683,26.9119)">
                <path d="M0.554,-0L0.458,-0L0.458,-0.09L0.457,-0.09C0.417,-0.021 0.356,0.013 0.273,0.013C0.205,0.013 0.15,-0.012 0.11,-0.06C0.069,-0.109 0.049,-0.175 0.049,-0.257C0.049,-0.347 0.072,-0.418 0.118,-0.472C0.163,-0.526 0.223,-0.553 0.296,-0.553C0.37,-0.553 0.423,-0.524 0.457,-0.467L0.458,-0.467L0.458,-0.799L0.554,-0.799L0.554,-0ZM0.459,-0.321C0.459,-0.365 0.445,-0.401 0.416,-0.43C0.388,-0.459 0.353,-0.474 0.311,-0.474C0.26,-0.474 0.22,-0.455 0.191,-0.417C0.162,-0.379 0.147,-0.327 0.147,-0.262C0.147,-0.201 0.161,-0.154 0.189,-0.119C0.217,-0.084 0.255,-0.066 0.302,-0.066C0.348,-0.066 0.386,-0.084 0.415,-0.118C0.444,-0.152 0.459,-0.195 0.459,-0.246L0.459,-0.321Z" style="fill:white;fill-rule:nonzero;"/>
            </g>
            <g transform="matrix(8,0,0,8,70.5855,26.9119)">
                <path d="M0.525,-0.246L0.147,-0.246C0.149,-0.188 0.165,-0.143 0.195,-0.112C0.225,-0.081 0.267,-0.065 0.32,-0.065C0.381,-0.065 0.436,-0.084 0.487,-0.123L0.487,-0.038C0.439,-0.004 0.376,0.013 0.298,0.013C0.22,0.013 0.159,-0.012 0.115,-0.062C0.071,-0.111 0.049,-0.18 0.049,-0.268C0.049,-0.35 0.073,-0.418 0.121,-0.472C0.169,-0.526 0.229,-0.553 0.3,-0.553C0.371,-0.553 0.426,-0.53 0.466,-0.485C0.506,-0.439 0.525,-0.376 0.525,-0.294L0.525,-0.246ZM0.43,-0.322C0.429,-0.371 0.418,-0.409 0.395,-0.436C0.372,-0.462 0.34,-0.476 0.299,-0.476C0.261,-0.476 0.228,-0.461 0.2,-0.433C0.172,-0.405 0.155,-0.368 0.147,-0.322L0.43,-0.322Z" style="fill:white;fill-rule:nonzero;"/>
            </g>
        </g>
    </g>
    <defs>
        <radialGradient id="_Radial1" cx="0" cy="0" r="1" gradientUnits="userSpaceOnUse" gradientTransform="matrix(-48.0003,42.0033,-41.6321,-47.5761,56,11)"><stop offset="0" style="stop-color:rgb(226,40,80);stop-opacity:1"/><stop offset="1" style="stop-color:rgb(255,164,54);stop-opacity:1"/></radialGradient>
    </defs>
</svg>
