<?xml version="1.0" encoding="UTF-8" standalone="no"?>
<!DOCTYPE svg PUBLIC "-//W3C//DTD SVG 1.1//EN" "http://www.w3.org/Graphics/SVG/1.1/DTD/svg11.dtd">
<svg width="100%" height="100%" viewBox="0 0 109 40" version="1.1" xmlns="http://www.w3.org/2000/svg" xmlns:xlink="http://www.w3.org/1999/xlink" xml:space="preserve" xmlns:serif="http://www.serif.com/" style="fill-rule:evenodd;clip-rule:evenodd;stroke-linejoin:round;stroke-miterlimit:1.41421;">
    <g>
        <path d="M99.322,0L9.535,0C9.168,0 8.805,0 8.44,0.002C8.134,0.004 7.83,0.01 7.521,0.015C6.85,0.022 6.18,0.081 5.517,0.19C4.856,0.302 4.215,0.514 3.617,0.817C3.019,1.123 2.472,1.522 1.997,1.997C1.52,2.47 1.123,3.017 0.82,3.617C0.516,4.216 0.305,4.858 0.195,5.52C0.084,6.182 0.024,6.851 0.016,7.522C0.006,7.829 0.006,8.137 0.001,8.443L0.001,31.56C0.006,31.87 0.007,32.17 0.016,32.481C0.024,33.152 0.084,33.821 0.196,34.483C0.306,35.146 0.516,35.789 0.82,36.388C1.123,36.985 1.521,37.53 1.998,38C2.471,38.477 3.017,38.875 3.616,39.179C4.215,39.483 4.855,39.695 5.517,39.809C6.18,39.918 6.85,39.977 7.521,39.986C7.831,39.993 8.134,39.997 8.44,39.997C8.806,39.999 9.168,39.999 9.535,39.999L99.322,39.999C99.682,39.999 100.047,39.999 100.406,39.997C100.711,39.997 101.023,39.993 101.328,39.987C101.998,39.978 102.667,39.919 103.328,39.809C103.992,39.695 104.635,39.482 105.236,39.179C105.835,38.875 106.381,38.477 106.854,38C107.33,37.527 107.728,36.983 108.035,36.386C108.337,35.786 108.546,35.144 108.655,34.481C108.766,33.819 108.828,33.15 108.84,32.479C108.844,32.169 108.844,31.869 108.844,31.558C108.852,31.194 108.852,30.833 108.852,30.464L108.852,9.536C108.852,9.17 108.852,8.806 108.844,8.444C108.844,8.138 108.844,7.83 108.84,7.524C108.828,6.853 108.766,6.183 108.654,5.521C108.545,4.859 108.337,4.217 108.035,3.618C107.418,2.415 106.439,1.436 105.236,0.818C104.635,0.515 103.992,0.304 103.328,0.191C102.667,0.081 101.998,0.022 101.328,0.015C101.023,0.01 100.711,0.004 100.406,0.002C100.046,0 99.682,0 99.322,0Z" style="fill:rgb(166,166,166);fill-rule:nonzero;"/>
        <g transform="matrix(1,0,0,1,7.10543e-15,-0.001)">
            <path d="M8.445,39.125C8.14,39.125 7.843,39.121 7.541,39.115C6.914,39.107 6.289,39.052 5.671,38.951C5.095,38.852 4.537,38.667 4.015,38.403C3.498,38.141 3.026,37.798 2.618,37.387C2.204,36.98 1.86,36.508 1.598,35.99C1.333,35.469 1.15,34.91 1.054,34.333C0.951,33.713 0.896,33.086 0.888,32.458C0.881,32.248 0.873,31.545 0.873,31.545L0.873,8.445C0.873,8.445 0.882,7.753 0.888,7.55C0.895,6.923 0.951,6.297 1.053,5.678C1.149,5.1 1.332,4.539 1.597,4.016C1.858,3.498 2.2,3.026 2.612,2.618C3.023,2.206 3.496,1.861 4.014,1.595C4.535,1.332 5.092,1.149 5.667,1.051C6.287,0.95 6.914,0.895 7.543,0.887L8.445,0.875L100.401,0.875L101.314,0.888C101.937,0.895 102.558,0.949 103.173,1.05C103.754,1.149 104.317,1.334 104.843,1.598C105.881,2.133 106.726,2.979 107.259,4.018C107.519,4.538 107.7,5.094 107.794,5.667C107.898,6.291 107.956,6.922 107.968,7.554C107.971,7.837 107.971,8.142 107.971,8.444C107.979,8.819 107.979,9.176 107.979,9.536L107.979,30.465C107.979,30.828 107.979,31.183 107.971,31.54C107.971,31.865 107.971,32.163 107.967,32.47C107.955,33.091 107.898,33.71 107.796,34.323C107.703,34.904 107.521,35.467 107.256,35.993C106.992,36.506 106.649,36.973 106.24,37.379C105.831,37.793 105.359,38.138 104.84,38.401C104.315,38.667 103.753,38.852 103.173,38.951C102.555,39.052 101.93,39.106 101.303,39.114C101.011,39.121 100.704,39.125 100.406,39.125L99.322,39.127L8.445,39.125Z" style="fill-rule:nonzero;"/>
        </g>
        <g transform="matrix(1.08022,0,0,1.08022,-4.3502,5.33241)">
            <path d="M43.999,3.682C43.874,4.151 43.592,5.12 43.155,6.589L44.795,6.542C44.389,8.511 43.842,10.057 43.155,11.182C43.874,11.776 44.639,12.167 45.452,12.354C45.108,12.636 44.827,12.964 44.608,13.339C43.889,12.932 43.202,12.448 42.545,11.886C41.764,12.511 40.983,13.057 40.202,13.526C39.92,13.182 39.577,12.917 39.17,12.729C40.202,12.479 41.139,11.979 41.983,11.229C41.452,10.386 41.014,9.276 40.67,7.901C40.545,9.932 39.78,11.682 38.374,13.151C38.03,12.839 37.686,12.62 37.342,12.495C38.342,11.807 38.999,10.901 39.311,9.776C39.686,8.651 39.858,6.901 39.827,4.526C39.483,4.526 39.17,4.542 38.889,4.573C38.764,4.604 38.686,4.604 38.655,4.573L38.655,3.636C39.342,3.667 39.92,3.682 40.389,3.682L41.655,3.682C42.155,3.682 42.905,3.651 43.905,3.589C43.967,3.62 43.999,3.651 43.999,3.682ZM42.733,4.526L40.811,4.526C40.78,4.62 40.749,5.245 40.717,6.401C40.686,7.057 40.67,7.495 40.67,7.714L41.702,7.573C41.733,7.636 41.733,7.714 41.702,7.807C41.67,7.995 41.686,8.167 41.749,8.323C41.905,9.073 42.17,9.807 42.545,10.526C42.889,9.964 43.264,8.901 43.67,7.339L41.936,7.386C42.217,6.542 42.483,5.589 42.733,4.526ZM36.217,2.932C36.967,2.995 37.389,3.073 37.483,3.167C37.483,3.229 37.452,3.323 37.389,3.448C37.327,3.667 37.295,3.87 37.295,4.057L37.295,5.37C37.795,5.37 38.233,5.339 38.608,5.276L38.608,6.261L38.327,6.261C38.17,6.261 37.811,6.245 37.249,6.214L37.249,7.995L37.952,7.62C38.295,7.995 38.655,8.495 39.03,9.12L38.233,9.636C37.889,9.011 37.561,8.526 37.249,8.182L37.249,11.557C37.217,12.151 37.249,12.776 37.342,13.432L36.17,13.432C36.202,12.776 36.233,12.151 36.264,11.557L36.264,7.761C35.983,8.729 35.53,9.761 34.905,10.854L34.202,10.011C34.952,9.229 35.624,7.964 36.217,6.214C35.842,6.245 35.53,6.261 35.28,6.261L34.67,6.261L34.67,5.323C34.827,5.354 35.061,5.37 35.374,5.37L36.311,5.37L36.311,4.245C36.28,3.901 36.249,3.464 36.217,2.932Z" style="fill:white;fill-rule:nonzero;stroke:white;stroke-width:0.23px;"/>
            <path d="M53.233,2.698C53.952,2.854 54.358,2.979 54.452,3.073C54.452,3.136 54.405,3.198 54.311,3.261C54.092,3.417 53.905,3.651 53.749,3.964L55.53,3.964C56.467,3.964 56.983,3.948 57.077,3.917C57.108,3.886 57.139,3.87 57.17,3.87L57.17,4.807L57.077,4.807C56.702,4.745 56.17,4.714 55.483,4.714L55.061,4.714C55.155,4.964 55.249,5.214 55.342,5.464C55.405,5.651 55.467,5.776 55.53,5.839L54.499,5.979C54.342,5.323 54.217,4.901 54.124,4.714L53.374,4.714C52.999,5.307 52.67,5.761 52.389,6.073L51.405,5.792C52.186,5.229 52.795,4.198 53.233,2.698ZM48.639,2.745C49.358,2.964 49.733,3.12 49.764,3.214C49.764,3.276 49.717,3.339 49.624,3.401C49.374,3.557 49.17,3.745 49.014,3.964L50.374,3.964C51.217,3.964 51.702,3.948 51.827,3.917C51.889,3.886 51.936,3.87 51.967,3.87L51.967,4.807L51.827,4.807C51.483,4.745 51.03,4.714 50.467,4.714L50.28,4.714C50.405,5.026 50.545,5.401 50.702,5.839L49.717,5.886C49.655,5.479 49.53,5.089 49.342,4.714L48.545,4.714C48.483,4.807 48.436,4.87 48.405,4.901C48.124,5.307 47.842,5.651 47.561,5.932C47.467,6.026 47.358,6.136 47.233,6.261L46.249,5.792C47.311,5.042 48.108,4.026 48.639,2.745ZM49.202,6.026C49.545,6.526 49.842,7.026 50.092,7.526L49.202,7.901C48.983,7.432 48.686,6.917 48.311,6.354L49.202,6.026ZM56.42,6.307C56.327,6.557 56.295,6.979 56.327,7.573L56.327,12.448C56.545,13.229 55.842,13.636 54.217,13.667C54.124,13.136 53.983,12.729 53.795,12.448C54.858,12.729 55.358,12.589 55.295,12.026L55.295,7.151L52.108,7.151C51.483,7.151 50.952,7.182 50.514,7.245L50.42,7.245L50.42,6.214C50.42,6.214 50.467,6.229 50.561,6.261C50.686,6.292 51.202,6.307 52.108,6.307L56.092,6.307C56.186,6.276 56.249,6.261 56.28,6.261C56.374,6.229 56.42,6.245 56.42,6.307ZM47.42,7.386C48.139,7.417 48.545,7.495 48.639,7.62C48.639,7.651 48.608,7.714 48.545,7.807C48.42,8.026 48.374,8.307 48.405,8.651L48.405,11.792C48.405,12.823 48.42,13.386 48.452,13.479C48.483,13.511 48.499,13.542 48.499,13.573L47.374,13.573C47.405,13.292 47.436,12.714 47.467,11.839L47.467,8.604C47.467,8.292 47.452,8.026 47.42,7.807L47.42,7.386ZM53.889,9.12L53.889,10.761C53.889,11.417 53.92,11.87 53.983,12.12C53.858,12.089 53.452,12.057 52.764,12.026L50.842,12.026C50.186,12.057 49.795,12.089 49.67,12.12C49.702,11.87 49.733,11.495 49.764,10.995L49.764,9.214C49.764,8.62 49.733,8.198 49.67,7.948C49.889,8.042 50.311,8.073 50.936,8.042L52.764,8.042C53.483,8.073 53.889,8.057 53.983,7.995C53.92,8.151 53.889,8.526 53.889,9.12ZM50.655,8.745L50.655,9.729L52.952,9.729L52.952,8.745L50.655,8.745ZM50.702,10.339L50.702,11.323L52.952,11.323L52.952,10.339L50.702,10.339Z" style="fill:white;fill-rule:nonzero;stroke:white;stroke-width:0.23px;"/>
            <path d="M63.733,2.792C64.389,2.823 64.827,2.87 65.045,2.932C65.045,2.995 65.014,3.057 64.952,3.12C64.889,3.276 64.858,3.417 64.858,3.542C64.858,3.823 64.874,4.276 64.905,4.901L67.061,4.901C67.874,4.901 68.389,4.886 68.608,4.854C68.639,4.823 68.67,4.807 68.702,4.807L68.702,5.886L68.561,5.886C68.186,5.823 67.702,5.792 67.108,5.792L64.999,5.792C65.03,7.104 65.28,8.417 65.749,9.729C66.374,8.292 66.702,7.245 66.733,6.589C67.295,6.776 67.717,6.964 67.999,7.151C67.999,7.182 67.967,7.229 67.905,7.292C67.811,7.354 67.749,7.417 67.717,7.479C67.28,8.729 66.78,9.807 66.217,10.714C66.874,11.776 67.374,12.292 67.717,12.261C67.905,12.261 68.03,11.87 68.092,11.089C68.092,11.089 68.186,11.151 68.374,11.276C68.592,11.432 68.858,11.589 69.17,11.745C68.889,12.839 68.53,13.448 68.092,13.573C67.311,13.479 66.483,12.807 65.608,11.557C64.702,12.401 63.874,13.011 63.124,13.386C62.967,13.136 62.67,12.886 62.233,12.636C63.389,12.261 64.342,11.604 65.092,10.667C64.53,9.417 64.17,7.792 64.014,5.792L60.639,5.839L60.639,7.432L62.702,7.432C62.952,7.401 63.17,7.354 63.358,7.292C63.295,9.417 63.217,10.667 63.124,11.042C63.092,11.479 62.452,11.745 61.202,11.839C61.077,11.339 60.936,10.917 60.78,10.573C61.342,10.729 61.733,10.761 61.952,10.667C62.17,10.854 62.295,10.042 62.327,8.229L60.639,8.229C60.608,10.229 60.108,11.917 59.139,13.292C58.889,13.042 58.545,12.87 58.108,12.776C59.389,11.682 59.874,9.011 59.561,4.761C59.561,4.792 59.577,4.807 59.608,4.807C59.983,4.901 60.389,4.932 60.827,4.901L63.967,4.901C63.874,4.245 63.795,3.542 63.733,2.792ZM66.92,2.932C67.202,3.307 67.483,3.729 67.764,4.198L66.78,4.667C66.561,4.198 66.295,3.761 65.983,3.354L66.92,2.932Z" style="fill:white;fill-rule:nonzero;stroke:white;stroke-width:0.23px;"/>
            <path d="M76.905,2.745C77.28,2.776 77.608,2.792 77.889,2.792C78.139,2.823 78.28,2.854 78.311,2.886C78.311,2.917 78.28,2.979 78.217,3.073C78.155,3.198 78.124,3.292 78.124,3.354C78.092,3.698 78.045,4.136 77.983,4.667L77.983,5.604C79.452,5.573 80.405,5.495 80.842,5.37C80.78,5.964 80.733,6.526 80.702,7.057C80.514,10.62 80.327,12.464 80.139,12.589C79.92,13.057 79.186,13.354 77.936,13.479C77.905,12.979 77.764,12.557 77.514,12.214C78.327,12.37 78.889,12.292 79.202,11.979C79.358,11.823 79.514,9.995 79.67,6.495L77.983,6.542C78.045,10.011 76.936,12.401 74.655,13.714C74.311,13.339 73.936,13.073 73.53,12.917C75.842,12.136 76.983,10.026 76.952,6.589C76.233,6.62 75.686,6.667 75.311,6.729L75.217,6.729L75.217,5.557C75.28,5.651 75.858,5.682 76.952,5.651C76.92,5.37 76.905,5.073 76.905,4.761L76.905,2.745ZM75.03,4.479L75.03,5.557L74.936,5.557C74.592,5.495 74.124,5.464 73.53,5.464L73.483,5.464L73.483,10.198L75.311,9.589L75.358,10.714L70.811,12.167L70.436,10.995L72.499,10.432L72.499,5.464L72.358,5.464C71.733,5.495 71.295,5.526 71.045,5.557L70.858,5.557L70.858,4.479C70.858,4.479 70.889,4.495 70.952,4.526C71.108,4.557 71.592,4.573 72.405,4.573L73.53,4.573C74.311,4.573 74.764,4.557 74.889,4.526C74.952,4.495 74.999,4.479 75.03,4.479Z" style="fill:white;fill-rule:nonzero;stroke:white;stroke-width:0.23px;"/>
            <path d="M90.733,2.698C91.295,2.917 91.702,3.104 91.952,3.261C91.952,3.292 91.905,3.339 91.811,3.401C91.655,3.495 91.545,3.589 91.483,3.682C91.108,4.214 90.733,4.776 90.358,5.37L92.655,5.37C92.811,5.339 92.92,5.323 92.983,5.323C92.92,5.448 92.905,5.823 92.936,6.448L92.936,7.339C92.967,7.464 92.983,7.542 92.983,7.573L91.905,7.573L91.905,7.198C91.936,7.073 91.952,6.745 91.952,6.214L83.842,6.214C83.811,7.182 83.827,7.667 83.889,7.667L82.764,7.667C82.733,7.667 82.733,7.62 82.764,7.526C82.827,7.182 82.858,6.823 82.858,6.448C82.858,5.854 82.842,5.464 82.811,5.276C82.999,5.307 83.405,5.339 84.03,5.37L89.374,5.37C89.936,4.651 90.389,3.761 90.733,2.698ZM88.014,2.745C88.139,2.964 88.358,3.557 88.67,4.526L87.592,4.714C87.467,4.245 87.264,3.636 86.983,2.886L88.014,2.745ZM84.967,3.167C85.249,3.448 85.639,3.964 86.139,4.714L85.155,5.136C84.78,4.511 84.405,4.011 84.03,3.636L84.967,3.167ZM84.592,7.339C84.592,7.339 84.655,7.354 84.78,7.386C85.03,7.417 85.561,7.432 86.374,7.432L90.17,7.432C90.795,7.464 91.155,7.448 91.249,7.386L91.249,8.511C90.561,8.636 89.686,8.932 88.624,9.401L88.624,9.823L91.202,9.823C92.108,9.823 92.686,9.807 92.936,9.776C93.061,9.745 93.139,9.729 93.17,9.729L93.17,10.854L92.936,10.854C92.655,10.823 92.108,10.792 91.295,10.761L88.577,10.761L88.577,12.542C88.702,13.261 88.061,13.62 86.655,13.62C86.561,13.12 86.389,12.745 86.139,12.495C87.17,12.62 87.655,12.542 87.592,12.261L87.592,10.761L84.358,10.761C83.733,10.792 83.233,10.823 82.858,10.854L82.624,10.854L82.624,9.729C82.624,9.729 82.717,9.745 82.905,9.776C83.311,9.807 83.795,9.823 84.358,9.823L87.592,9.823L87.592,8.979C88.155,8.792 88.811,8.557 89.561,8.276L86.374,8.276C85.842,8.276 85.295,8.307 84.733,8.37L84.592,8.37L84.592,7.339Z" style="fill:white;fill-rule:nonzero;stroke:white;stroke-width:0.23px;"/>
        </g>
        <g id="feature-performance.svg" transform="matrix(0.453704,0,0,0.453704,17.3435,17.6526)">
            <g transform="matrix(1,0,0,1,-32,-32)">
                <path d="M15.037,18.037C19.535,13.54 25.639,11.007 32,11C32.012,11 32.024,11 32.036,11C45.183,11 56,21.818 56,34.964C56,38.536 55.202,42.063 53.663,45.287C53.167,46.332 52.109,47.001 50.952,47.001C49.306,47.001 47.952,45.646 47.952,44C47.952,43.555 48.051,43.115 48.242,42.713C49.399,40.29 50,37.639 50,34.954C50,25.08 41.874,16.954 32,16.954C22.125,16.954 14,25.08 14,34.954C14,34.97 14,34.985 14,35C13.996,37.668 14.591,40.303 15.74,42.71C15.996,43.162 16.131,43.672 16.131,44.191C16.131,45.797 14.843,47.133 13.238,47.191C11.97,47.235 10.805,46.471 10.34,45.29C8.798,42.079 7.998,38.562 8,35C8.007,28.639 10.539,22.535 15.037,18.037ZM42.177,29.035C42.565,28.949 42.972,29.021 43.307,29.234C43.997,29.679 44.2,30.613 43.757,31.304L36.367,42.917C38.315,44.924 38.568,48.06 36.967,50.354C36.535,50.993 35.986,51.542 35.347,51.974C34.355,52.645 33.184,53.004 31.986,53.004C28.694,53.004 25.986,50.295 25.986,47.004C25.986,43.712 28.694,41.004 31.986,41.004C32.618,41.004 33.246,41.104 33.847,41.3L41.237,29.693C41.451,29.358 41.789,29.121 42.177,29.035Z" style="fill:url(#_Radial1);"/>
            </g>
        </g>
        <g transform="matrix(1,0,0,1,-0.541202,3.64015)">
            <g transform="matrix(8,0,0,8,34.6402,26.9119)">
                <path d="M0.444,-0.294L0.335,-0.611L0.22,-0.294L0.444,-0.294ZM0.285,-0.717L0.395,-0.717L0.655,-0L0.548,-0L0.476,-0.215L0.192,-0.215L0.114,-0L0.015,-0L0.285,-0.717Z" style="fill:white;fill-rule:nonzero;"/>
            </g>
            <g transform="matrix(8,0,0,8,39.9761,26.9119)">
                <path d="M0.378,-0.737C0.469,-0.737 0.54,-0.713 0.59,-0.665C0.64,-0.617 0.668,-0.563 0.673,-0.502L0.579,-0.502C0.568,-0.548 0.546,-0.585 0.514,-0.612C0.482,-0.639 0.437,-0.652 0.379,-0.652C0.309,-0.652 0.252,-0.628 0.208,-0.578C0.165,-0.528 0.143,-0.452 0.143,-0.35C0.143,-0.266 0.163,-0.198 0.202,-0.145C0.241,-0.093 0.3,-0.067 0.377,-0.067C0.449,-0.067 0.504,-0.094 0.541,-0.149C0.561,-0.178 0.576,-0.216 0.585,-0.264L0.68,-0.264C0.672,-0.188 0.644,-0.125 0.596,-0.074C0.539,-0.012 0.462,0.019 0.366,0.019C0.282,0.019 0.212,-0.007 0.156,-0.057C0.081,-0.124 0.044,-0.227 0.044,-0.366C0.044,-0.472 0.072,-0.559 0.128,-0.626C0.188,-0.7 0.272,-0.737 0.378,-0.737Z" style="fill:white;fill-rule:nonzero;"/>
            </g>
            <g transform="matrix(8,0,0,8,45.7535,26.9119)">
                <path d="M0.598,-0.717L0.598,-0.632L0.356,-0.632L0.356,-0L0.258,-0L0.258,-0.632L0.016,-0.632L0.016,-0.717L0.598,-0.717Z" style="fill:white;fill-rule:nonzero;"/>
            </g>
            <g transform="matrix(8,0,0,8,52.8629,26.9119)">
                <path d="M0.386,-0.736C0.454,-0.736 0.512,-0.723 0.561,-0.697C0.632,-0.659 0.676,-0.594 0.692,-0.5L0.596,-0.5C0.584,-0.552 0.56,-0.591 0.523,-0.615C0.486,-0.638 0.44,-0.65 0.384,-0.65C0.317,-0.65 0.261,-0.625 0.216,-0.576C0.171,-0.526 0.148,-0.452 0.148,-0.353C0.148,-0.268 0.167,-0.198 0.204,-0.145C0.242,-0.091 0.303,-0.064 0.387,-0.064C0.452,-0.064 0.506,-0.083 0.548,-0.121C0.591,-0.158 0.612,-0.219 0.613,-0.303L0.389,-0.303L0.389,-0.384L0.704,-0.384L0.704,-0L0.641,-0L0.618,-0.092C0.585,-0.056 0.556,-0.031 0.53,-0.017C0.488,0.007 0.433,0.019 0.368,0.019C0.283,0.019 0.21,-0.008 0.148,-0.063C0.082,-0.132 0.048,-0.227 0.048,-0.348C0.048,-0.468 0.081,-0.563 0.146,-0.634C0.208,-0.702 0.288,-0.736 0.386,-0.736Z" style="fill:white;fill-rule:nonzero;"/>
            </g>
            <g transform="matrix(8,0,0,8,59.0855,26.9119)">
                <path d="M0.152,-0.523L0.152,-0.176C0.152,-0.149 0.157,-0.127 0.165,-0.11C0.181,-0.079 0.21,-0.063 0.252,-0.063C0.314,-0.063 0.355,-0.091 0.377,-0.146C0.389,-0.175 0.396,-0.215 0.396,-0.266L0.396,-0.523L0.483,-0.523L0.483,-0L0.4,-0L0.401,-0.077C0.39,-0.057 0.376,-0.041 0.359,-0.027C0.325,0 0.285,0.014 0.237,0.014C0.162,0.014 0.111,-0.011 0.084,-0.061C0.07,-0.087 0.063,-0.123 0.063,-0.167L0.063,-0.523L0.152,-0.523Z" style="fill:white;fill-rule:nonzero;"/>
            </g>
            <g transform="matrix(8,0,0,8,63.5347,26.9119)">
                <path d="M0.064,-0.521L0.154,-0.521L0.154,-0L0.064,-0L0.064,-0.521ZM0.064,-0.717L0.154,-0.717L0.154,-0.618L0.064,-0.618L0.064,-0.717Z" style="fill:white;fill-rule:nonzero;"/>
            </g>
            <g transform="matrix(8,0,0,8,65.3121,26.9119)">
                <path d="M0.12,-0.255C0.12,-0.199 0.132,-0.153 0.156,-0.115C0.18,-0.077 0.218,-0.058 0.27,-0.058C0.311,-0.058 0.344,-0.076 0.37,-0.111C0.397,-0.146 0.41,-0.196 0.41,-0.261C0.41,-0.327 0.396,-0.376 0.369,-0.408C0.342,-0.44 0.309,-0.456 0.269,-0.456C0.225,-0.456 0.189,-0.439 0.161,-0.405C0.134,-0.371 0.12,-0.321 0.12,-0.255ZM0.252,-0.532C0.292,-0.532 0.326,-0.524 0.353,-0.507C0.369,-0.497 0.386,-0.48 0.406,-0.456L0.406,-0.72L0.491,-0.72L0.491,-0L0.412,-0L0.412,-0.073C0.391,-0.041 0.367,-0.017 0.339,-0.003C0.311,0.011 0.279,0.019 0.243,0.019C0.184,0.019 0.134,-0.006 0.091,-0.055C0.049,-0.104 0.027,-0.169 0.027,-0.25C0.027,-0.327 0.047,-0.393 0.086,-0.448C0.125,-0.504 0.18,-0.532 0.252,-0.532Z" style="fill:white;fill-rule:nonzero;"/>
            </g>
            <g transform="matrix(8,0,0,8,69.7613,26.9119)">
                <path d="M0.282,-0.535C0.319,-0.535 0.355,-0.526 0.39,-0.509C0.425,-0.491 0.451,-0.469 0.47,-0.441C0.487,-0.415 0.499,-0.384 0.505,-0.349C0.51,-0.325 0.513,-0.286 0.513,-0.233L0.129,-0.233C0.131,-0.18 0.144,-0.138 0.167,-0.106C0.19,-0.074 0.227,-0.058 0.276,-0.058C0.322,-0.058 0.358,-0.073 0.386,-0.103C0.401,-0.121 0.412,-0.141 0.419,-0.164L0.505,-0.164C0.503,-0.145 0.496,-0.123 0.483,-0.1C0.47,-0.076 0.455,-0.057 0.439,-0.042C0.413,-0.016 0.38,0.002 0.34,0.011C0.319,0.016 0.295,0.019 0.269,0.019C0.203,0.019 0.148,-0.005 0.103,-0.052C0.058,-0.1 0.035,-0.166 0.035,-0.251C0.035,-0.335 0.058,-0.404 0.104,-0.456C0.149,-0.508 0.209,-0.535 0.282,-0.535ZM0.422,-0.303C0.419,-0.341 0.41,-0.372 0.397,-0.395C0.373,-0.437 0.333,-0.458 0.277,-0.458C0.236,-0.458 0.203,-0.443 0.175,-0.414C0.148,-0.385 0.133,-0.348 0.132,-0.303L0.422,-0.303Z" style="fill:white;fill-rule:nonzero;"/>
            </g>
        </g>
    </g>
    <defs>
        <radialGradient id="_Radial1" cx="0" cy="0" r="1" gradientUnits="userSpaceOnUse" gradientTransform="matrix(-48.0003,42.0033,-41.6321,-47.5761,56,11)"><stop offset="0" style="stop-color:rgb(226,40,80);stop-opacity:1"/><stop offset="1" style="stop-color:rgb(255,164,54);stop-opacity:1"/></radialGradient>
    </defs>
</svg>
