<?xml version="1.0" encoding="UTF-8" standalone="no"?>
<!DOCTYPE svg PUBLIC "-//W3C//DTD SVG 1.1//EN" "http://www.w3.org/Graphics/SVG/1.1/DTD/svg11.dtd">
<svg width="100%" height="100%" viewBox="0 0 109 40" version="1.1" xmlns="http://www.w3.org/2000/svg" xmlns:xlink="http://www.w3.org/1999/xlink" xml:space="preserve" xmlns:serif="http://www.serif.com/" style="fill-rule:evenodd;clip-rule:evenodd;stroke-linejoin:round;stroke-miterlimit:1.41421;">
    <g>
        <path d="M99.322,0L9.535,0C9.168,0 8.805,0 8.44,0.002C8.134,0.004 7.83,0.01 7.521,0.015C6.85,0.022 6.18,0.081 5.517,0.19C4.856,0.302 4.215,0.514 3.617,0.817C3.019,1.123 2.472,1.522 1.997,1.997C1.52,2.47 1.123,3.017 0.82,3.617C0.516,4.216 0.305,4.858 0.195,5.52C0.084,6.182 0.024,6.851 0.016,7.522C0.006,7.829 0.006,8.137 0.001,8.443L0.001,31.56C0.006,31.87 0.007,32.17 0.016,32.481C0.024,33.152 0.084,33.821 0.196,34.483C0.306,35.146 0.516,35.789 0.82,36.388C1.123,36.985 1.521,37.53 1.998,38C2.471,38.477 3.017,38.875 3.616,39.179C4.215,39.483 4.855,39.695 5.517,39.809C6.18,39.918 6.85,39.977 7.521,39.986C7.831,39.993 8.134,39.997 8.44,39.997C8.806,39.999 9.168,39.999 9.535,39.999L99.322,39.999C99.682,39.999 100.047,39.999 100.406,39.997C100.711,39.997 101.023,39.993 101.328,39.987C101.998,39.978 102.667,39.919 103.328,39.809C103.992,39.695 104.635,39.482 105.236,39.179C105.835,38.875 106.381,38.477 106.854,38C107.33,37.527 107.728,36.983 108.035,36.386C108.337,35.786 108.546,35.144 108.655,34.481C108.766,33.819 108.828,33.15 108.84,32.479C108.844,32.169 108.844,31.869 108.844,31.558C108.852,31.194 108.852,30.833 108.852,30.464L108.852,9.536C108.852,9.17 108.852,8.806 108.844,8.444C108.844,8.138 108.844,7.83 108.84,7.524C108.828,6.853 108.766,6.183 108.654,5.521C108.545,4.859 108.337,4.217 108.035,3.618C107.418,2.415 106.439,1.436 105.236,0.818C104.635,0.515 103.992,0.304 103.328,0.191C102.667,0.081 101.998,0.022 101.328,0.015C101.023,0.01 100.711,0.004 100.406,0.002C100.046,0 99.682,0 99.322,0Z" style="fill:rgb(166,166,166);fill-rule:nonzero;"/>
        <g transform="matrix(1,0,0,1,7.10543e-15,-0.001)">
            <path d="M8.445,39.125C8.14,39.125 7.843,39.121 7.541,39.115C6.914,39.107 6.289,39.052 5.671,38.951C5.095,38.852 4.537,38.667 4.015,38.403C3.498,38.141 3.026,37.798 2.618,37.387C2.204,36.98 1.86,36.508 1.598,35.99C1.333,35.469 1.15,34.91 1.054,34.333C0.951,33.713 0.896,33.086 0.888,32.458C0.881,32.248 0.873,31.545 0.873,31.545L0.873,8.445C0.873,8.445 0.882,7.753 0.888,7.55C0.895,6.923 0.951,6.297 1.053,5.678C1.149,5.1 1.332,4.539 1.597,4.016C1.858,3.498 2.2,3.026 2.612,2.618C3.023,2.206 3.496,1.861 4.014,1.595C4.535,1.332 5.092,1.149 5.667,1.051C6.287,0.95 6.914,0.895 7.543,0.887L8.445,0.875L100.401,0.875L101.314,0.888C101.937,0.895 102.558,0.949 103.173,1.05C103.754,1.149 104.317,1.334 104.843,1.598C105.881,2.133 106.726,2.979 107.259,4.018C107.519,4.538 107.7,5.094 107.794,5.667C107.898,6.291 107.956,6.922 107.968,7.554C107.971,7.837 107.971,8.142 107.971,8.444C107.979,8.819 107.979,9.176 107.979,9.536L107.979,30.465C107.979,30.828 107.979,31.183 107.971,31.54C107.971,31.865 107.971,32.163 107.967,32.47C107.955,33.091 107.898,33.71 107.796,34.323C107.703,34.904 107.521,35.467 107.256,35.993C106.992,36.506 106.649,36.973 106.24,37.379C105.831,37.793 105.359,38.138 104.84,38.401C104.315,38.667 103.753,38.852 103.173,38.951C102.555,39.052 101.93,39.106 101.303,39.114C101.011,39.121 100.704,39.125 100.406,39.125L99.322,39.127L8.445,39.125Z" style="fill-rule:nonzero;"/>
        </g>
        <g transform="matrix(1.08022,0,0,1.08022,-4.3502,5.33241)">
            <g id="繁体">
                <g>
                    <path d="M37.108,2.792L37.952,3.542C36.983,4.667 35.983,5.682 34.952,6.589C34.764,6.276 34.545,6.011 34.295,5.792C35.577,4.698 36.514,3.698 37.108,2.792ZM44.467,3.589L44.467,4.62L43.436,4.62C42.967,4.589 42.702,4.573 42.639,4.573L41.374,4.573C40.467,4.573 39.811,4.589 39.405,4.62L39.405,3.589C39.655,3.62 39.983,3.651 40.389,3.682L43.67,3.682C44.014,3.651 44.28,3.62 44.467,3.589ZM37.577,5.323C37.67,5.417 37.78,5.495 37.905,5.557C38.405,5.901 38.639,6.089 38.608,6.12C37.764,6.839 37.264,7.354 37.108,7.667L37.108,12.964C37.139,13.214 37.155,13.401 37.155,13.526L36.077,13.526C36.108,12.964 36.139,12.323 36.17,11.604L36.17,8.651C35.577,9.339 35.17,9.807 34.952,10.057C34.795,9.745 34.561,9.464 34.249,9.214C35.467,8.12 36.577,6.823 37.577,5.323ZM45.264,6.682L45.264,7.761C44.827,7.729 44.186,7.698 43.342,7.667L42.967,7.667L42.967,12.589C43.061,13.151 42.514,13.479 41.327,13.573C41.233,13.167 41.061,12.792 40.811,12.448C41.592,12.479 41.983,12.386 41.983,12.167L41.983,7.667L40.811,7.667C39.842,7.667 39.17,7.698 38.795,7.761L38.795,6.682C39.077,6.714 39.436,6.745 39.874,6.776L43.295,6.776C44.077,6.776 44.733,6.745 45.264,6.682Z" style="fill:white;fill-rule:nonzero;stroke:white;stroke-width:0.23px;"/>
                    <path d="M53.795,2.698C54.577,2.761 54.983,2.823 55.014,2.886C55.014,2.917 54.983,2.948 54.92,2.979C54.827,3.136 54.78,3.276 54.78,3.401L54.686,5.557L55.53,5.557C56.124,5.589 56.514,5.557 56.702,5.464L56.702,7.011C56.639,9.823 56.577,11.417 56.514,11.792C56.452,12.417 56.295,12.776 56.045,12.87C55.639,13.026 55.124,13.151 54.499,13.245C54.467,12.745 54.311,12.386 54.03,12.167C54.842,12.323 55.342,12.261 55.53,11.979C55.624,12.167 55.717,10.261 55.811,6.261L54.639,6.261C54.702,9.542 53.842,11.995 52.061,13.62C51.686,13.37 51.327,13.229 50.983,13.198C51.327,12.948 51.67,12.667 52.014,12.354C50.608,12.417 49.53,12.479 48.78,12.542C47.999,12.636 47.342,12.761 46.811,12.917C46.749,12.698 46.655,12.386 46.53,11.979C47.249,11.979 48.139,11.964 49.202,11.932L49.202,11.089L48.452,11.089C47.764,11.12 47.249,11.151 46.905,11.182L46.905,10.339C47.155,10.37 47.624,10.386 48.311,10.386L49.202,10.386L49.202,9.729L48.405,9.729C48.499,9.729 48.186,9.745 47.467,9.776L47.045,9.776C47.077,9.62 47.108,9.214 47.139,8.557L47.139,7.198C47.108,6.667 47.077,6.339 47.045,6.214C47.17,6.245 47.624,6.276 48.405,6.307L49.202,6.307L49.202,5.651L47.045,5.651C46.795,5.682 46.639,5.698 46.577,5.698L46.577,4.854C46.702,4.886 47.139,4.917 47.889,4.948L49.202,4.948L49.202,4.198C48.639,4.229 47.936,4.261 47.092,4.292C47.03,4.073 46.92,3.807 46.764,3.495C47.452,3.62 48.327,3.636 49.389,3.542C50.389,3.417 51.155,3.245 51.686,3.026C52.092,3.589 52.311,3.948 52.342,4.104C52.217,4.104 52.077,4.089 51.92,4.057L51.452,4.057C51.17,4.089 50.905,4.104 50.655,4.104C50.342,4.136 50.124,4.136 49.999,4.104L49.999,4.948L50.608,4.948C51.67,4.979 52.295,4.948 52.483,4.854L52.483,5.698C52.358,5.667 52.139,5.651 51.827,5.651C51.452,5.62 51.014,5.604 50.514,5.604L49.999,5.604L49.999,6.307L50.842,6.307C51.561,6.307 52.014,6.276 52.202,6.214C52.139,6.339 52.108,6.667 52.108,7.198L52.108,8.464C52.139,9.276 52.17,9.714 52.202,9.776C52.108,9.776 51.967,9.761 51.78,9.729L49.999,9.729L49.999,10.386L50.702,10.386C51.295,10.386 51.78,10.354 52.155,10.292L52.155,11.136L51.545,11.136C51.264,11.136 50.967,11.12 50.655,11.089L49.999,11.089L49.999,11.886C51.217,11.823 51.936,11.729 52.155,11.604L52.061,12.261C53.186,11.198 53.764,9.198 53.795,6.261C53.264,6.261 52.889,6.292 52.67,6.354L52.67,5.464C52.858,5.526 53.233,5.557 53.795,5.557L53.795,2.698ZM49.999,6.964L49.999,7.714L51.311,7.714L51.311,6.964L49.999,6.964ZM49.202,6.964L47.936,6.964L47.936,7.714L49.202,7.714L49.202,6.964ZM47.936,8.323L47.936,9.026L49.202,9.026L49.202,8.323L47.936,8.323ZM49.999,8.323L49.999,9.026L51.311,9.026L51.311,8.323L49.999,8.323Z" style="fill:white;fill-rule:nonzero;stroke:white;stroke-width:0.23px;"/>
                    <path d="M68.749,3.401C68.717,3.589 68.686,3.87 68.655,4.245L68.655,12.636C68.717,13.229 68.092,13.557 66.78,13.62C66.749,13.214 66.624,12.854 66.405,12.542C67.374,12.729 67.811,12.557 67.717,12.026L67.717,4.245L66.124,4.245L66.124,5.417L66.686,5.417C66.967,5.386 67.155,5.37 67.249,5.37L67.249,6.167C67.061,6.136 66.749,6.12 66.311,6.12L66.124,6.12L66.124,7.198L66.358,7.198C66.858,7.198 67.217,7.182 67.436,7.151L67.436,7.995C67.217,7.932 66.858,7.901 66.358,7.901L65.045,7.901C64.514,7.901 64.139,7.932 63.92,7.995L63.92,7.151C64.108,7.214 64.483,7.229 65.045,7.198L65.28,7.198L65.28,6.12L65.139,6.12C64.67,6.12 64.295,6.136 64.014,6.167L64.014,5.323C64.577,5.417 64.952,5.448 65.139,5.417L65.28,5.417L65.28,4.245L63.686,4.245C63.686,6.307 63.67,7.714 63.639,8.464C63.608,9.37 63.561,10.104 63.499,10.667C63.374,11.636 63.014,12.636 62.42,13.667C62.264,13.542 61.905,13.417 61.342,13.292C62.092,12.698 62.53,11.854 62.655,10.761C62.749,10.198 62.795,9.37 62.795,8.276C62.827,7.339 62.827,5.714 62.795,3.401C62.889,3.401 63.077,3.417 63.358,3.448L66.78,3.448C67.905,3.479 68.561,3.464 68.749,3.401ZM66.217,9.401L64.858,9.401L64.858,10.807L66.217,10.807L66.217,9.401ZM67.108,8.698C67.108,8.792 67.092,8.932 67.061,9.12L67.061,11.182C67.092,11.401 67.108,11.542 67.108,11.604C66.702,11.573 66.264,11.542 65.795,11.511L65.186,11.511C64.592,11.511 64.202,11.526 64.014,11.557C64.045,11.401 64.061,10.979 64.061,10.292L64.061,9.729C64.061,9.698 64.045,9.573 64.014,9.354L64.014,8.698C64.327,8.761 64.749,8.776 65.28,8.745L65.842,8.745C66.53,8.776 66.952,8.761 67.108,8.698ZM60.545,2.651C60.858,3.307 61.077,3.776 61.202,4.057L60.358,4.292C60.202,3.761 60.014,3.307 59.795,2.932L60.545,2.651ZM62.514,4.339L62.514,5.229C62.295,5.229 61.827,5.214 61.108,5.182L59.655,5.182C59.717,5.182 59.545,5.198 59.139,5.229L58.155,5.229L58.155,4.339C58.686,4.401 59.186,4.432 59.655,4.432L61.108,4.432C61.795,4.401 62.264,4.37 62.514,4.339ZM62.233,5.979L62.233,6.917L61.764,6.917C61.577,6.917 61.389,6.901 61.202,6.87L59.749,6.87L58.624,6.917L58.624,5.979L59.749,6.073L61.202,6.073L62.233,5.979ZM62.233,7.432L62.233,8.37L61.858,8.37C61.639,8.37 61.405,8.354 61.155,8.323L59.795,8.323C59.295,8.323 58.999,8.339 58.905,8.37L58.624,8.37L58.624,7.432C58.842,7.464 59.233,7.495 59.795,7.526L61.155,7.526C61.53,7.526 61.889,7.495 62.233,7.432ZM59.655,9.87L59.655,11.557L61.249,11.557L61.249,9.87L59.655,9.87ZM60.827,9.12C61.514,9.089 61.952,9.057 62.139,9.026C62.077,9.214 62.045,9.651 62.045,10.339L62.045,11.136C62.045,11.698 62.061,12.089 62.092,12.307L59.702,12.307C59.67,12.682 59.686,12.964 59.749,13.151L58.811,13.151L58.811,12.776C58.811,12.589 58.827,12.417 58.858,12.261L58.858,10.292C58.827,9.792 58.795,9.37 58.764,9.026C58.983,9.089 59.405,9.12 60.03,9.12L60.827,9.12Z" style="fill:white;fill-rule:nonzero;stroke:white;stroke-width:0.23px;"/>
                    <path d="M72.967,2.792C73.186,2.823 73.405,2.839 73.624,2.839C74.03,2.87 74.233,2.886 74.233,2.886C74.233,2.917 74.202,2.964 74.139,3.026C73.983,3.307 73.92,3.714 73.952,4.245L74.327,4.245C74.577,4.245 74.842,4.229 75.124,4.198L75.124,5.089L74.983,5.089C74.795,5.089 74.577,5.073 74.327,5.042L73.952,5.042L73.952,6.214L74.233,6.214C75.077,5.464 75.608,4.589 75.827,3.589C76.577,3.932 76.952,4.136 76.952,4.198C76.952,4.261 76.905,4.307 76.811,4.339C76.624,4.464 76.467,4.636 76.342,4.854C76.155,5.136 75.827,5.542 75.358,6.073C75.295,6.136 75.249,6.182 75.217,6.214C75.749,6.214 76.124,6.198 76.342,6.167L76.342,7.057L75.874,7.057C75.655,7.057 75.436,7.042 75.217,7.011L74.561,7.011C74.436,7.136 74.233,7.323 73.952,7.573C73.67,7.823 73.483,7.995 73.389,8.089L75.686,8.089C75.749,8.057 75.795,8.042 75.827,8.042L75.827,8.792L74.233,9.776L74.233,10.198C75.452,10.011 76.155,9.839 76.342,9.682L76.249,10.62C75.905,10.682 75.233,10.823 74.233,11.042L74.233,12.636C74.202,13.198 73.624,13.495 72.499,13.526C72.405,13.057 72.264,12.682 72.077,12.401C72.92,12.495 73.342,12.417 73.342,12.167L73.342,11.136C71.905,11.354 71.077,11.542 70.858,11.698L70.483,10.526C70.764,10.589 71.717,10.526 73.342,10.339L73.342,9.495L74.514,8.839L72.405,8.839C72.249,8.964 72.014,9.151 71.702,9.401C71.389,9.651 71.124,9.839 70.905,9.964C70.686,9.651 70.42,9.417 70.108,9.261C70.545,9.073 70.952,8.87 71.327,8.651C71.483,8.557 71.608,8.479 71.702,8.417L71.702,7.995C71.827,8.057 72.014,8.073 72.264,8.042C72.327,8.011 72.483,7.886 72.733,7.667C72.92,7.511 73.186,7.292 73.53,7.011L71.795,7.011C71.514,7.042 71.264,7.057 71.045,7.057L70.483,7.057L70.483,6.167C70.827,6.198 71.249,6.214 71.749,6.214L73.061,6.214L73.061,5.042L72.358,5.042C72.202,5.073 72.014,5.089 71.795,5.089L71.233,5.089L71.233,4.198C71.545,4.229 71.905,4.245 72.311,4.245L73.061,4.245C73.03,3.495 72.999,3.011 72.967,2.792ZM79.155,6.167L77.936,6.167C77.717,6.636 77.42,7.167 77.045,7.761L77.749,7.62C77.905,8.839 78.124,9.667 78.405,10.104C78.811,9.136 79.061,7.823 79.155,6.167ZM75.92,7.948C76.858,6.886 77.514,5.198 77.889,2.886C78.764,3.011 79.233,3.12 79.295,3.214C79.295,3.245 79.264,3.292 79.202,3.354C79.045,3.573 78.92,3.807 78.827,4.057C78.764,4.214 78.608,4.636 78.358,5.323L80.139,5.323C80.545,5.323 80.967,5.307 81.405,5.276L81.405,6.214C81.405,6.214 80.983,6.198 80.139,6.167C80.045,8.104 79.67,9.698 79.014,10.948C79.639,11.698 80.483,12.198 81.545,12.448C81.077,12.604 80.717,12.917 80.467,13.386C79.592,12.823 78.905,12.261 78.405,11.698C77.842,12.261 76.967,12.886 75.78,13.573C75.436,13.198 75.045,12.932 74.608,12.776C76.045,12.464 77.139,11.87 77.889,10.995C77.514,10.276 77.186,9.292 76.905,8.042L76.436,8.745C76.28,8.464 76.108,8.198 75.92,7.948Z" style="fill:white;fill-rule:nonzero;stroke:white;stroke-width:0.23px;"/>
                </g>
            </g>
        </g>
        <g id="feature-performance.svg" transform="matrix(0.453704,0,0,0.453704,17.3435,17.6526)">
            <g transform="matrix(1,0,0,1,-32,-32)">
                <path d="M15.037,18.037C19.535,13.54 25.639,11.007 32,11C32.012,11 32.024,11 32.036,11C45.183,11 56,21.818 56,34.964C56,38.536 55.202,42.063 53.663,45.287C53.167,46.332 52.109,47.001 50.952,47.001C49.306,47.001 47.952,45.646 47.952,44C47.952,43.555 48.051,43.115 48.242,42.713C49.399,40.29 50,37.639 50,34.954C50,25.08 41.874,16.954 32,16.954C22.125,16.954 14,25.08 14,34.954C14,34.97 14,34.985 14,35C13.996,37.668 14.591,40.303 15.74,42.71C15.996,43.162 16.131,43.672 16.131,44.191C16.131,45.797 14.843,47.133 13.238,47.191C11.97,47.235 10.805,46.471 10.34,45.29C8.798,42.079 7.998,38.562 8,35C8.007,28.639 10.539,22.535 15.037,18.037ZM42.177,29.035C42.565,28.949 42.972,29.021 43.307,29.234C43.997,29.679 44.2,30.613 43.757,31.304L36.367,42.917C38.315,44.924 38.568,48.06 36.967,50.354C36.535,50.993 35.986,51.542 35.347,51.974C34.355,52.645 33.184,53.004 31.986,53.004C28.694,53.004 25.986,50.295 25.986,47.004C25.986,43.712 28.694,41.004 31.986,41.004C32.618,41.004 33.246,41.104 33.847,41.3L41.237,29.693C41.451,29.358 41.789,29.121 42.177,29.035Z" style="fill:url(#_Radial1);"/>
            </g>
        </g>
        <g transform="matrix(1,0,0,1,-0.541202,3.64015)">
            <g transform="matrix(8,0,0,8,34.6402,26.9119)">
                <path d="M0.692,-0L0.584,-0L0.507,-0.207L0.192,-0.207L0.119,-0L0.011,-0L0.299,-0.756L0.404,-0.756L0.692,-0ZM0.477,-0.292L0.362,-0.607C0.359,-0.617 0.355,-0.635 0.351,-0.66L0.348,-0.66C0.345,-0.637 0.34,-0.619 0.336,-0.607L0.223,-0.292L0.477,-0.292Z" style="fill:white;fill-rule:nonzero;"/>
            </g>
            <g transform="matrix(8,0,0,8,40.1558,26.9119)">
                <path d="M0.615,-0.031C0.56,-0.002 0.49,0.013 0.406,0.013C0.297,0.013 0.211,-0.022 0.146,-0.091C0.081,-0.159 0.049,-0.25 0.049,-0.364C0.049,-0.486 0.085,-0.583 0.158,-0.658C0.231,-0.732 0.324,-0.769 0.436,-0.769C0.508,-0.769 0.568,-0.759 0.615,-0.738L0.615,-0.636C0.561,-0.666 0.502,-0.681 0.437,-0.681C0.353,-0.681 0.284,-0.653 0.231,-0.597C0.178,-0.541 0.151,-0.465 0.151,-0.37C0.151,-0.279 0.176,-0.207 0.226,-0.154C0.275,-0.101 0.34,-0.074 0.42,-0.074C0.495,-0.074 0.56,-0.091 0.615,-0.125L0.615,-0.031Z" style="fill:white;fill-rule:nonzero;"/>
            </g>
            <g transform="matrix(8,0,0,8,45.5074,26.9119)">
                <path d="M0.555,-0.669L0.336,-0.669L0.336,-0L0.238,-0L0.238,-0.669L0.021,-0.669L0.021,-0.756L0.555,-0.756L0.555,-0.669Z" style="fill:white;fill-rule:nonzero;"/>
            </g>
            <g transform="matrix(8,0,0,8,52.4605,26.9119)">
                <path d="M0.669,-0.052C0.594,-0.009 0.509,0.013 0.414,0.013C0.304,0.013 0.216,-0.022 0.149,-0.091C0.082,-0.16 0.049,-0.253 0.049,-0.368C0.049,-0.485 0.086,-0.581 0.16,-0.656C0.234,-0.731 0.328,-0.769 0.444,-0.769C0.526,-0.769 0.595,-0.756 0.651,-0.73L0.651,-0.625C0.591,-0.663 0.519,-0.682 0.435,-0.682C0.353,-0.682 0.285,-0.653 0.231,-0.597C0.178,-0.541 0.151,-0.467 0.151,-0.375C0.151,-0.28 0.176,-0.206 0.225,-0.153C0.274,-0.101 0.341,-0.074 0.424,-0.074C0.482,-0.074 0.531,-0.085 0.571,-0.107L0.571,-0.312L0.407,-0.312L0.407,-0.398L0.669,-0.398L0.669,-0.052Z" style="fill:white;fill-rule:nonzero;"/>
            </g>
            <g transform="matrix(8,0,0,8,58.4097,26.9119)">
                <path d="M0.531,-0L0.435,-0L0.435,-0.085L0.433,-0.085C0.397,-0.02 0.341,0.013 0.267,0.013C0.139,0.013 0.075,-0.064 0.075,-0.217L0.075,-0.54L0.169,-0.54L0.169,-0.231C0.169,-0.121 0.211,-0.066 0.295,-0.066C0.337,-0.066 0.371,-0.082 0.396,-0.113C0.422,-0.143 0.435,-0.182 0.435,-0.229L0.435,-0.54L0.531,-0.54L0.531,-0Z" style="fill:white;fill-rule:nonzero;"/>
            </g>
            <g transform="matrix(8,0,0,8,63.3394,26.9119)">
                <path d="M0.074,-0.73C0.074,-0.747 0.08,-0.762 0.091,-0.773C0.103,-0.785 0.117,-0.791 0.134,-0.791C0.151,-0.791 0.166,-0.785 0.177,-0.773C0.189,-0.762 0.195,-0.748 0.195,-0.73C0.195,-0.714 0.189,-0.699 0.177,-0.688C0.166,-0.677 0.151,-0.671 0.134,-0.671C0.117,-0.671 0.102,-0.677 0.091,-0.688C0.079,-0.699 0.074,-0.714 0.074,-0.73ZM0.085,-0L0.085,-0.54L0.181,-0.54L0.181,-0L0.085,-0Z" style="fill:white;fill-rule:nonzero;"/>
            </g>
            <g transform="matrix(8,0,0,8,65.4683,26.9119)">
                <path d="M0.554,-0L0.458,-0L0.458,-0.09L0.457,-0.09C0.417,-0.021 0.356,0.013 0.273,0.013C0.205,0.013 0.15,-0.012 0.11,-0.06C0.069,-0.109 0.049,-0.175 0.049,-0.257C0.049,-0.347 0.072,-0.418 0.118,-0.472C0.163,-0.526 0.223,-0.553 0.296,-0.553C0.37,-0.553 0.423,-0.524 0.457,-0.467L0.458,-0.467L0.458,-0.799L0.554,-0.799L0.554,-0ZM0.459,-0.321C0.459,-0.365 0.445,-0.401 0.416,-0.43C0.388,-0.459 0.353,-0.474 0.311,-0.474C0.26,-0.474 0.22,-0.455 0.191,-0.417C0.162,-0.379 0.147,-0.327 0.147,-0.262C0.147,-0.201 0.161,-0.154 0.189,-0.119C0.217,-0.084 0.255,-0.066 0.302,-0.066C0.348,-0.066 0.386,-0.084 0.415,-0.118C0.444,-0.152 0.459,-0.195 0.459,-0.246L0.459,-0.321Z" style="fill:white;fill-rule:nonzero;"/>
            </g>
            <g transform="matrix(8,0,0,8,70.5855,26.9119)">
                <path d="M0.525,-0.246L0.147,-0.246C0.149,-0.188 0.165,-0.143 0.195,-0.112C0.225,-0.081 0.267,-0.065 0.32,-0.065C0.381,-0.065 0.436,-0.084 0.487,-0.123L0.487,-0.038C0.439,-0.004 0.376,0.013 0.298,0.013C0.22,0.013 0.159,-0.012 0.115,-0.062C0.071,-0.111 0.049,-0.18 0.049,-0.268C0.049,-0.35 0.073,-0.418 0.121,-0.472C0.169,-0.526 0.229,-0.553 0.3,-0.553C0.371,-0.553 0.426,-0.53 0.466,-0.485C0.506,-0.439 0.525,-0.376 0.525,-0.294L0.525,-0.246ZM0.43,-0.322C0.429,-0.371 0.418,-0.409 0.395,-0.436C0.372,-0.462 0.34,-0.476 0.299,-0.476C0.261,-0.476 0.228,-0.461 0.2,-0.433C0.172,-0.405 0.155,-0.368 0.147,-0.322L0.43,-0.322Z" style="fill:white;fill-rule:nonzero;"/>
            </g>
        </g>
    </g>
    <defs>
        <radialGradient id="_Radial1" cx="0" cy="0" r="1" gradientUnits="userSpaceOnUse" gradientTransform="matrix(-48.0003,42.0033,-41.6321,-47.5761,56,11)"><stop offset="0" style="stop-color:rgb(226,40,80);stop-opacity:1"/><stop offset="1" style="stop-color:rgb(255,164,54);stop-opacity:1"/></radialGradient>
    </defs>
</svg>
